<?xml version="1.0" standalone="no"?>
<!DOCTYPE svg PUBLIC "-//W3C//DTD SVG 20010904//EN"
 "http://www.w3.org/TR/2001/REC-SVG-20010904/DTD/svg10.dtd">
<svg version="1.0" xmlns="http://www.w3.org/2000/svg"
 width="512.000000pt" height="512.000000pt" viewBox="0 0 512.000000 512.000000"
 preserveAspectRatio="xMidYMid meet">
<metadata>
Created by potrace 1.14, written by Peter Selinger 2001-2017
</metadata>
<g transform="translate(0.000000,512.000000) scale(0.100000,-0.100000)"
fill="#000000" stroke="none">
<path d="M1430 4880 c-273 -6 -285 -9 -316 -74 -14 -28 -15 -76 -7 -407 8
-334 11 -378 28 -413 22 -46 67 -76 115 -76 34 0 37 -2 48 -44 13 -48 66 -111
109 -127 98 -37 217 29 244 136 l11 45 143 0 143 0 6 -32 c22 -108 148 -177
249 -134 46 19 95 79 108 131 l11 45 77 0 c47 0 82 5 89 12 9 9 12 70 12 213
l0 200 -107 148 -106 147 -94 0 -93 0 -1 63 c0 83 -17 126 -58 154 -38 26 -54
26 -611 13z m570 -85 c8 -10 14 -117 21 -365 l9 -351 -36 -37 -36 -37 -158 -4
-158 -3 -40 40 c-47 47 -104 67 -163 57 -45 -8 -114 -55 -124 -84 -5 -17 -15
-21 -45 -21 -69 0 -69 -1 -80 411 -8 319 -7 366 6 379 12 12 61 16 267 20 515
11 524 11 537 -5z m315 -322 c39 -53 72 -100 73 -105 2 -4 -62 -8 -142 -8
l-146 0 0 105 0 105 73 0 72 0 70 -97z m105 -233 c0 -40 0 -40 -39 -40 -44 0
-64 -18 -59 -52 3 -20 10 -23 51 -26 l47 -3 0 -55 0 -54 -60 0 c-57 0 -62 2
-93 36 -35 41 -81 64 -127 64 l-30 0 0 85 0 85 155 0 155 0 0 -40z m-222 -235
c38 -32 48 -72 28 -118 -30 -73 -120 -86 -171 -25 -22 26 -26 39 -22 71 7 48
39 85 81 90 17 2 36 5 43 5 6 1 25 -9 41 -23z m-668 -14 c78 -56 38 -181 -57
-181 -49 0 -103 54 -103 103 0 38 30 83 64 97 27 12 64 4 96 -19z"/>
<path d="M1523 4709 c-87 -56 -106 -179 -27 -179 30 0 36 5 56 48 25 51 55 65
79 36 12 -15 11 -19 -9 -32 -12 -8 -22 -23 -22 -33 0 -23 23 -34 110 -54 82
-18 86 -14 92 87 6 95 0 107 -44 90 -29 -11 -34 -10 -58 12 -55 51 -121 61
-177 25z"/>
<path d="M1338 4464 c-64 -20 -78 -29 -78 -45 0 -12 9 -28 21 -37 19 -16 19
-18 4 -57 -32 -74 9 -164 83 -185 89 -24 152 -6 152 44 0 36 -30 56 -72 50
-28 -5 -40 -2 -57 15 -18 18 -19 25 -10 42 6 11 16 18 22 16 36 -15 43 -16 55
-8 24 15 -11 192 -37 191 -3 -1 -41 -12 -83 -26z"/>
<path d="M1797 4413 c-14 -13 -6 -69 13 -93 23 -29 25 -51 8 -68 -22 -22 -46
-14 -50 16 -5 46 -37 40 -107 -20 -33 -29 -61 -58 -61 -65 0 -7 28 -35 63 -63
72 -59 100 -62 105 -12 3 28 7 32 33 32 122 0 173 157 81 253 -24 25 -69 36
-85 20z"/>
<path d="M2842 3300 c-58 -35 -64 -67 -60 -299 2 -143 7 -213 16 -228 15 -27
44 -43 153 -83 139 -50 130 -35 127 -213 l-3 -152 -80 0 -80 0 -3 133 -3 132
-64 0 -65 0 1 -142 c0 -233 17 -253 209 -253 127 0 168 11 197 54 16 23 18 50
18 233 0 257 6 245 -154 305 -61 22 -118 47 -126 53 -12 10 -15 45 -15 181 l0
169 85 0 85 0 0 -140 0 -141 63 3 62 3 3 141 c3 166 -7 207 -57 241 -31 21
-45 23 -155 23 -104 0 -126 -3 -154 -20z"/>
<path d="M468 2924 c-55 -29 -58 -47 -58 -357 0 -279 0 -285 23 -318 29 -43
71 -58 170 -58 l77 -1 0 -135 0 -135 -75 0 -75 0 0 95 0 95 -61 0 -61 0 4
-119 c3 -110 5 -121 27 -145 36 -38 81 -49 187 -44 101 4 136 19 161 69 10 18
13 152 13 547 l0 522 -152 0 c-116 -1 -160 -4 -180 -16z m210 -356 l2 -258
-75 0 -75 0 0 260 0 261 73 -3 72 -3 3 -257z"/>
<path d="M902 2568 l3 -373 60 0 60 0 3 317 2 317 83 3 82 3 3 53 3 52 -73 0
c-44 0 -79 -5 -86 -12 -9 -9 -12 -9 -12 0 0 8 -21 12 -65 12 l-65 0 2 -372z"/>
<path d="M1334 2921 c-17 -11 -36 -34 -43 -52 -7 -21 -11 -129 -11 -309 0
-272 0 -278 23 -311 29 -43 71 -58 167 -58 97 -1 143 12 174 50 24 29 26 37
26 140 l0 109 -60 0 -60 0 0 -90 0 -90 -75 0 -75 0 0 110 0 110 135 0 135 0 0
160 c0 235 -12 250 -197 250 -89 0 -114 -4 -139 -19z m216 -186 l0 -95 -75 0
-75 0 0 95 0 95 75 0 75 0 0 -95z"/>
<path d="M1834 2921 c-17 -10 -36 -34 -43 -52 -7 -21 -11 -129 -11 -309 0
-272 0 -278 23 -311 29 -43 71 -58 167 -58 97 -1 143 12 174 50 24 29 26 37
26 140 l0 109 -60 0 -60 0 0 -90 0 -90 -75 0 -76 0 3 108 3 107 133 3 132 3 0
169 0 170 -29 32 -29 33 -124 3 c-108 2 -127 0 -154 -17z m216 -186 l0 -95
-75 0 -75 0 0 95 0 95 75 0 75 0 0 -95z"/>
<path d="M2272 2568 l3 -373 60 0 60 0 3 318 2 317 70 0 70 0 2 -317 3 -318
60 0 60 0 3 285 c4 354 1 383 -43 427 l-33 33 -161 0 -161 0 2 -372z"/>
<path d="M3365 2907 c-44 -44 -47 -70 -43 -372 3 -213 6 -255 20 -281 25 -45
67 -59 183 -59 165 0 195 30 195 200 l0 95 -65 0 -65 0 0 -90 0 -90 -70 0 -70
0 0 260 0 260 70 0 70 0 0 -95 0 -95 65 0 65 0 0 95 c0 178 -27 205 -205 205
l-117 0 -33 -33z"/>
<path d="M3869 2925 c-38 -21 -59 -73 -59 -144 l0 -61 60 0 60 0 0 55 0 55 75
0 75 0 0 -94 0 -94 -100 -4 c-97 -3 -100 -4 -132 -36 l-33 -32 0 -149 c0 -135
2 -152 20 -177 33 -44 82 -55 235 -52 l135 3 3 275 c4 344 0 391 -38 433 l-28
32 -124 3 c-93 1 -129 -1 -149 -13z m211 -505 l0 -110 -75 0 -75 0 0 103 c0
57 3 107 7 110 3 4 37 7 75 7 l68 0 0 -110z"/>
<path d="M4302 2568 l3 -373 60 0 60 0 3 318 2 317 70 0 70 0 2 -317 3 -318
60 0 60 0 3 295 c3 352 1 373 -43 417 l-33 33 -161 0 -161 0 2 -372z"/>
<path d="M907 2153 c-4 -3 -7 -78 -7 -165 0 -156 0 -159 21 -156 20 3 21 8 20
157 -1 85 -4 158 -7 163 -6 10 -18 10 -27 1z"/>
<path d="M987 2154 c-4 -4 -7 -79 -7 -166 l0 -159 23 3 c22 3 22 5 22 163 0
136 -2 160 -15 163 -9 1 -19 0 -23 -4z"/>
<path d="M1147 2154 c-4 -4 -7 -79 -7 -166 l0 -158 40 0 40 0 -2 163 -3 162
-30 3 c-17 2 -34 0 -38 -4z"/>
<path d="M1257 2154 c-4 -4 -7 -79 -7 -166 l0 -158 25 0 25 0 -2 162 c-3 138
-5 163 -18 166 -9 1 -19 0 -23 -4z"/>
<path d="M1347 2153 c-4 -3 -7 -78 -7 -165 l0 -158 80 0 80 0 0 165 0 165 -73
0 c-41 0 -77 -3 -80 -7z"/>
<path d="M1557 2154 c-4 -4 -7 -79 -7 -166 0 -152 1 -158 20 -158 20 0 20 5
18 162 -3 151 -9 184 -31 162z"/>
<path d="M1627 2153 c-4 -3 -7 -78 -7 -165 0 -151 1 -158 20 -158 19 0 20 7
20 165 0 131 -3 165 -13 165 -8 0 -17 -3 -20 -7z"/>
<path d="M1707 2154 c-4 -4 -7 -79 -7 -166 l0 -158 80 0 80 0 -2 163 -3 162
-70 3 c-39 1 -74 0 -78 -4z"/>
<path d="M1975 2148 c-3 -8 -4 -81 -3 -163 l3 -150 38 -3 38 -3 -3 163 -3 163
-33 3 c-20 2 -34 -2 -37 -10z"/>
<path d="M2107 2153 c-4 -3 -7 -78 -7 -165 0 -151 1 -158 20 -158 19 0 20 7
20 165 0 131 -3 165 -13 165 -8 0 -17 -3 -20 -7z"/>
<path d="M2267 2154 c-4 -4 -7 -79 -7 -166 l0 -158 40 0 40 0 -2 163 -3 162
-30 3 c-17 2 -34 0 -38 -4z"/>
<path d="M2385 2148 c-3 -8 -4 -81 -3 -163 3 -147 3 -150 26 -153 l23 -3 -3
163 c-3 146 -5 163 -21 166 -9 2 -19 -3 -22 -10z"/>
<path d="M2547 2154 c-4 -4 -7 -79 -7 -166 l0 -158 40 0 40 0 -2 163 -3 162
-30 3 c-17 2 -34 0 -38 -4z"/>
<path d="M2657 2154 c-4 -4 -7 -79 -7 -166 l0 -158 25 0 25 0 -2 162 c-3 138
-5 163 -18 166 -9 1 -19 0 -23 -4z"/>
<path d="M2737 2154 c-4 -4 -7 -79 -7 -166 l0 -158 25 0 25 0 -2 162 c-3 138
-5 163 -18 166 -9 1 -19 0 -23 -4z"/>
<path d="M2817 2153 c-4 -3 -7 -78 -7 -165 0 -150 1 -158 19 -158 11 0 23 5
26 11 4 6 4 80 0 165 -7 148 -13 172 -38 147z"/>
<path d="M2907 2154 c-4 -4 -7 -79 -7 -166 l0 -158 40 0 40 0 -2 163 -3 162
-30 3 c-17 2 -34 0 -38 -4z"/>
<path d="M3027 2154 c-4 -4 -7 -79 -7 -166 l0 -158 40 0 40 0 -2 163 -3 162
-30 3 c-17 2 -34 0 -38 -4z"/>
<path d="M3180 1995 l0 -165 60 0 60 0 -2 163 -3 162 -57 3 -58 3 0 -166z"/>
<path d="M3347 2154 c-4 -4 -7 -79 -7 -166 0 -152 1 -158 20 -158 20 0 20 5
18 162 -3 151 -9 184 -31 162z"/>
<path d="M3460 1995 l0 -165 35 0 35 0 0 165 0 165 -35 0 -35 0 0 -165z"/>
<path d="M3627 2153 c-4 -3 -7 -78 -7 -165 l0 -158 35 0 35 0 0 165 0 165 -28
0 c-16 0 -32 -3 -35 -7z"/>
<path d="M3737 2154 c-4 -4 -7 -79 -7 -166 0 -152 1 -158 20 -158 20 0 20 5
18 162 -3 151 -9 184 -31 162z"/>
<path d="M3827 2154 c-4 -4 -7 -79 -7 -166 l0 -158 65 0 65 0 -2 163 -3 162
-55 3 c-31 2 -59 0 -63 -4z"/>
<path d="M4027 2154 c-4 -4 -7 -79 -7 -166 0 -152 1 -158 20 -158 20 0 20 5
18 162 -3 151 -9 184 -31 162z"/>
<path d="M4137 2154 c-4 -4 -7 -79 -7 -166 l0 -158 65 0 65 0 -2 163 -3 162
-55 3 c-31 2 -59 0 -63 -4z"/>
<path d="M4297 2154 c-4 -4 -7 -79 -7 -166 l0 -158 40 0 40 0 -2 163 -3 162
-30 3 c-17 2 -34 0 -38 -4z"/>
<path d="M4437 2154 c-4 -4 -7 -79 -7 -166 l0 -158 40 0 40 0 -2 163 -3 162
-30 3 c-17 2 -34 0 -38 -4z"/>
<path d="M4567 2154 c-4 -4 -7 -79 -7 -166 l0 -158 25 0 25 0 -2 162 c-3 138
-5 163 -18 166 -9 1 -19 0 -23 -4z"/>
<path d="M4667 2154 c-4 -4 -7 -79 -7 -166 l0 -158 25 0 25 0 -2 162 c-3 138
-5 163 -18 166 -9 1 -19 0 -23 -4z"/>
</g>
</svg>
