<svg width="375" height="667" viewBox="0 0 375 667" fill="none" xmlns="http://www.w3.org/2000/svg">
<path d="M0 0.000488281L375 0.000288221L375 666.999C375 666.999 341.5 666.999 266.5 667C191.5 667 182.5 667 98.9999 667C15.4999 667 -8.23831e-05 661.169 -8.23831e-05 661.169L0 0.000488281Z" fill="#49C2F2"/>
<rect y="0.00158691" width="375" height="483.638" fill="url(#paint0_linear_2924:20620)" fill-opacity="0.8"/>
<mask id="path-3-outside-1_2924:20620" maskUnits="userSpaceOnUse" x="41.0002" y="213.584" width="134" height="73" fill="black">
<rect fill="white" x="41.0002" y="213.584" width="134" height="73"/>
<path d="M56.2435 285.441C56.0605 285.523 55.8714 285.489 55.6763 285.339C55.4812 285.189 55.3267 284.955 55.213 284.637C54.2136 281.843 53.1776 279.277 52.1049 276.937C51.0445 274.566 49.9027 272.165 48.6796 269.735C47.3468 267.064 46.1724 264.638 45.1566 262.457C44.153 260.245 43.1759 257.81 42.2253 255.153C41.9735 254.449 41.933 253.94 42.1039 253.627C42.3154 253.295 42.5127 253.089 42.6957 253.007C42.96 252.889 43.1653 253.034 43.3116 253.443L43.9147 255.624C44.3128 256.736 45.1457 258.735 46.4133 261.62C47.7014 264.495 49.2414 267.746 51.0333 271.371C53.321 275.986 54.9971 279.584 56.0616 282.164L56.1848 278.553C56.2711 275.697 56.3125 273.505 56.3089 271.979C56.3054 270.453 56.2287 268.591 56.079 266.393C55.9293 264.194 55.6457 261.226 55.2281 257.488C54.7649 256.325 54.3587 255.255 54.0093 254.279C53.3268 252.371 52.937 250.952 52.8397 250.02C52.7952 249.171 52.9967 248.647 53.444 248.447C53.7287 248.32 54.0275 248.463 54.3405 248.877C54.6453 249.267 54.9358 249.849 55.2121 250.621C55.8052 252.279 56.2823 254.371 56.6433 256.896C56.8668 257.455 57.2547 258.506 57.8072 260.051C59.3712 264.357 60.8196 268.043 62.1523 271.11C63.5053 274.167 64.9094 276.477 66.3645 278.04C66.9197 271.55 67.0639 265.889 66.7971 261.056C66.5304 256.223 65.7064 251.877 64.3252 248.015C63.8702 246.744 63.2769 245.678 62.5453 244.82C61.8136 243.961 61.1225 243.677 60.4718 243.967C59.9635 244.194 59.5181 244.63 59.1356 245.275L59.2387 247.046C59.1776 247.6 58.964 247.959 58.598 248.122C58.293 248.258 58.0714 248.133 57.9333 247.747C57.8439 247.497 57.7648 246.979 57.6959 246.194C57.542 244.445 58.3394 243.18 60.0881 242.4C60.7184 242.119 61.3974 242.171 62.1252 242.558C62.8651 242.912 63.5358 243.469 64.1373 244.228C64.7511 244.954 65.1839 245.67 65.4358 246.374C68.5963 255.209 69.4243 265.731 67.9199 277.938C67.6795 279.442 67.3356 280.293 66.8883 280.493C66.4409 280.692 65.508 279.765 64.0896 277.712C61.895 274.477 59.6115 269.544 57.239 262.912C57.4942 265.801 57.6721 268.934 57.7726 272.314C57.8732 275.693 57.8132 278.656 57.5928 281.204C57.3643 283.729 56.9145 285.142 56.2435 285.441Z"/>
<path d="M80.247 274.53C79.5964 274.821 79.0474 274.934 78.6002 274.87C78.1448 274.784 77.7159 274.541 77.3135 274.141C76.5696 273.446 75.9742 272.474 75.5274 271.224C74.7474 269.044 74.3029 266.846 74.1938 264.629C74.0766 262.39 74.2867 260.373 74.824 258.58C75.3451 256.872 76.1851 255.76 77.3441 255.243C77.9541 254.97 78.5335 255.041 79.0823 255.454C79.6433 255.836 80.066 256.424 80.3504 257.219C80.846 258.605 80.9513 259.954 80.6662 261.266C80.4015 262.57 79.8521 263.803 79.0182 264.965C78.3022 265.996 77.3829 267.117 76.2602 268.329L77.0767 270.809C77.7592 272.717 78.6189 273.44 79.6559 272.977C80.0829 272.786 80.4571 272.514 80.7785 272.16C81.1201 271.797 81.4679 271.352 81.8219 270.825C82.2409 270.217 82.5622 269.862 82.7859 269.763C83.1316 269.608 83.3775 269.736 83.5238 270.144C83.6294 270.44 83.5012 270.905 83.1391 271.541C82.7973 272.167 82.3437 272.778 81.7783 273.373C81.2048 273.945 80.6944 274.331 80.247 274.53ZM75.9192 266.585C77.0622 265.364 77.9043 264.356 78.4453 263.561C78.9864 262.767 79.3099 261.924 79.4159 261.034C79.5423 260.135 79.3942 259.095 78.9717 257.914C78.6549 257.028 78.1609 256.735 77.4899 257.034C76.9002 257.297 76.4242 258.208 76.0618 259.766C75.6587 261.341 75.5524 263.219 75.7428 265.4C75.7954 266.008 75.8542 266.403 75.9192 266.585Z"/>
<path d="M89.959 270.117C89.227 270.444 88.5907 270.477 88.05 270.218C87.5296 269.95 87.1435 269.464 86.8916 268.76C86.6722 268.147 86.5037 267.577 86.3859 267.05C86.26 266.5 86.0835 265.644 85.8561 264.481C85.4259 262.224 84.9815 259.63 84.523 256.7L83.7804 252.054C82.1898 241.939 81.3743 236.627 81.3338 236.118C81.3055 235.709 81.4642 235.428 81.8098 235.273C82.2369 235.083 82.5438 235.249 82.7307 235.771L82.9255 236.711C83.0838 237.483 83.2158 238.215 83.3212 238.905C83.4186 239.573 83.6215 240.865 83.9299 242.782C84.4046 245.889 85.0193 249.881 85.774 254.759C86.549 259.628 87.0928 262.862 87.4053 264.461C87.726 266.215 87.9594 267.296 88.1057 267.704C88.2276 268.045 88.4287 268.311 88.7092 268.502C88.9897 268.693 89.2622 268.729 89.5265 268.611C89.8112 268.484 90.0552 268.309 90.2586 268.087C90.4742 267.833 90.6145 267.665 90.6796 267.583L91.0884 267.045C91.2186 266.881 91.304 266.791 91.3447 266.772C91.792 266.573 92.1051 266.723 92.2838 267.222C92.4625 267.722 92.3201 268.247 91.8563 268.796C91.3845 269.323 90.7521 269.763 89.959 270.117Z"/>
<path d="M98.6011 266.418C97.6251 266.853 96.7102 266.801 95.8565 266.26C95.015 265.687 94.3911 264.833 93.9849 263.698C93.2699 261.699 92.8559 259.487 92.7429 257.062C92.6501 254.627 92.8867 252.454 93.4525 250.542C93.998 248.639 94.8808 247.416 96.1008 246.871C96.9752 246.481 97.6704 246.579 98.1866 247.165C98.2883 247.251 98.3838 247.354 98.4732 247.472C98.5545 247.567 98.6358 247.663 98.7171 247.758C98.9325 248.031 99.0992 248.167 99.2171 248.167C99.3797 248.358 99.4813 248.51 99.5219 248.623C99.595 248.828 99.5726 249.062 99.4546 249.325C99.3569 249.579 99.2064 249.752 99.003 249.843C98.576 250.033 98.1756 249.804 97.8017 249.154C97.4279 248.505 96.9664 248.302 96.4174 248.547C95.6854 248.874 95.1402 249.855 94.7818 251.49C94.4154 253.102 94.2826 255.005 94.3835 257.199C94.4641 259.27 94.7604 261.021 95.2722 262.451C95.9953 264.473 97.0177 265.189 98.3394 264.599C99.0104 264.299 99.5047 263.67 99.8222 262.712C99.8507 262.594 99.9097 262.397 99.9992 262.12C100.081 261.82 100.176 261.593 100.286 261.438C100.388 261.261 100.5 261.146 100.622 261.091C101.008 260.919 101.27 261.026 101.408 261.412C101.571 261.866 101.552 262.44 101.353 263.135C101.145 263.807 100.797 264.45 100.309 265.063C99.8212 265.676 99.2518 266.127 98.6011 266.418Z"/>
<path d="M109.208 261.565C108.151 262.037 107.191 261.926 106.329 261.23C105.488 260.526 104.836 259.526 104.372 258.232C103.633 256.165 103.223 254.03 103.143 251.827C103.074 249.593 103.351 247.599 103.974 245.846C104.548 244.089 105.486 242.92 106.787 242.339C108.658 241.504 110.162 242.676 111.299 245.856C111.868 247.446 112.215 249.174 112.34 251.041C112.466 252.908 112.384 254.656 112.095 256.287C111.826 257.908 111.396 259.179 110.807 260.101C110.351 260.805 109.818 261.293 109.208 261.565ZM108.904 259.923C109.534 259.642 110.016 258.716 110.35 257.144C110.704 255.564 110.821 253.747 110.7 251.694C110.599 249.632 110.321 247.965 109.866 246.693C109.394 245.376 109.031 244.59 108.775 244.336C108.531 244.05 108.293 243.879 108.061 243.825C107.829 243.77 107.52 243.829 107.134 244.001C106.707 244.192 106.325 244.573 105.987 245.145C105.287 246.221 104.88 247.72 104.766 249.641C104.549 252.53 104.847 255.11 105.66 257.381C106.212 258.925 106.991 259.816 107.995 260.052C108.336 260.084 108.639 260.041 108.904 259.923Z"/>
<path d="M119.086 257.354C118.883 257.445 118.693 257.477 118.519 257.449C118.344 257.422 118.232 257.34 118.183 257.204C118.139 256.486 118.045 255.764 117.903 255.037C117.745 254.134 117.656 253.357 117.636 252.707C117.178 248.856 116.443 244.561 115.432 239.824L115.316 239.204C115.26 239.045 115.309 238.72 115.463 238.23C115.614 238.057 115.75 237.944 115.872 237.889C116.136 237.771 116.388 237.882 116.628 238.223L116.726 238.496C117.242 240.004 117.648 241.864 117.944 244.076L118.461 247.993L118.559 245.895C118.625 242.652 118.927 240.2 119.464 238.538C119.965 236.971 120.774 235.938 121.893 235.439C122.482 235.176 123.068 235.231 123.649 235.603C124.251 235.967 124.686 236.523 124.954 237.273L125.051 237.545C125.055 237.623 125.078 237.718 125.118 237.832C125.68 235.842 126.463 234.308 127.468 233.227C127.789 232.873 128.133 232.614 128.499 232.451C128.885 232.278 129.314 232.324 129.786 232.588C130.258 232.851 130.607 233.301 130.835 233.937C131.282 235.186 131.59 236.774 131.76 238.7C131.849 239.871 131.906 240.755 131.93 241.35C132.108 245.01 132.349 247.431 132.653 248.612C132.706 248.826 132.769 249.101 132.842 249.437C132.907 249.75 132.942 249.945 132.946 250.023C132.978 250.64 132.801 251.035 132.415 251.208C131.947 251.417 131.514 250.965 131.116 249.852C130.872 249.17 130.716 248.371 130.647 247.453C130.611 246.758 130.556 245.98 130.483 245.117C130.447 244.817 130.404 244.072 130.356 242.882C130.296 241.197 130.215 239.784 130.113 238.644C130.012 237.504 129.793 236.298 129.456 235.027C129.302 234.595 129.157 234.356 129.023 234.311C128.901 234.234 128.698 234.259 128.413 234.386C128.108 234.522 127.754 234.917 127.351 235.571C126.969 236.215 126.635 236.996 126.35 237.914C125.683 240.003 125.463 242.419 125.689 245.162C125.787 246.093 125.829 246.772 125.817 247.199C125.958 249.77 126.069 251.432 126.151 252.186C126.248 252.986 126.27 253.476 126.217 253.658C126.16 253.894 126.01 254.067 125.766 254.175C125.298 254.384 124.942 254.214 124.698 253.664C124.333 251.983 124.114 250.448 124.041 249.058C123.968 247.669 123.934 246.09 123.939 244.324C123.927 243.17 123.865 242.039 123.751 240.931C123.65 239.791 123.473 238.869 123.221 238.165C122.945 237.392 122.594 237.102 122.167 237.292C121.455 237.61 120.91 238.722 120.531 240.63C120.144 242.514 119.889 244.538 119.766 246.699C119.636 248.839 119.592 250.333 119.637 251.182C119.649 251.677 119.663 252.079 119.679 252.388C119.687 252.674 119.699 252.906 119.716 253.083C119.885 255.667 119.676 257.091 119.086 257.354Z"/>
<path d="M142.446 246.77C141.795 247.061 141.246 247.174 140.799 247.11C140.343 247.024 139.914 246.781 139.512 246.381C138.768 245.686 138.173 244.714 137.726 243.464C136.946 241.284 136.501 239.086 136.392 236.869C136.275 234.63 136.485 232.614 137.023 230.82C137.544 229.112 138.384 228 139.543 227.483C140.153 227.21 140.732 227.281 141.281 227.694C141.842 228.076 142.265 228.665 142.549 229.459C143.045 230.845 143.15 232.194 142.865 233.506C142.6 234.81 142.051 236.043 141.217 237.205C140.501 238.236 139.581 239.357 138.459 240.569L139.275 243.049C139.958 244.957 140.818 245.68 141.855 245.217C142.282 245.026 142.656 244.754 142.977 244.4C143.319 244.037 143.667 243.592 144.02 243.065C144.439 242.457 144.761 242.102 144.985 242.003C145.33 241.848 145.576 241.976 145.722 242.384C145.828 242.68 145.7 243.145 145.338 243.781C144.996 244.408 144.542 245.018 143.977 245.613C143.403 246.185 142.893 246.571 142.446 246.77ZM138.118 238.825C139.261 237.604 140.103 236.596 140.644 235.801C141.185 235.007 141.509 234.164 141.615 233.274C141.741 232.375 141.593 231.335 141.17 230.154C140.853 229.268 140.36 228.975 139.689 229.274C139.099 229.538 138.623 230.448 138.26 232.006C137.857 233.581 137.751 235.459 137.941 237.64C137.994 238.248 138.053 238.643 138.118 238.825Z"/>
<path d="M160.672 238.399C159.961 238.716 159.349 238.752 158.837 238.507C158.345 238.252 157.908 237.591 157.526 236.524C157.315 235.933 157.132 235.225 156.978 234.398L156.557 232.334L156.32 230.583L156.174 229.581L155.9 227.53C155.835 227.217 155.756 226.699 155.663 225.977L155.572 225.228L155.322 223.64L155.14 222.536C154.347 222.89 153.635 223.274 153.004 223.687C152.573 223.8 152.301 223.698 152.187 223.38C152.106 223.153 152.11 222.901 152.2 222.624C152.289 222.347 152.442 222.147 152.657 222.024L154.878 221.112C154.878 221.112 154.827 220.806 154.726 220.193C154.604 219.72 154.498 219.162 154.409 218.517C154.32 217.872 154.285 217.281 154.306 216.745C154.31 216.164 154.485 215.796 154.831 215.642C155.156 215.497 155.392 215.628 155.538 216.037L155.611 216.242C155.692 216.732 155.739 217.093 155.751 217.325L156.269 220.452L158.465 219.472C159.237 219.127 159.74 218.982 159.971 219.037C160.183 219.1 160.325 219.234 160.398 219.439C160.528 219.802 160.461 220.109 160.197 220.358C159.944 220.576 159.462 220.844 158.751 221.162C158.1 221.452 157.366 221.74 156.549 222.026C156.695 222.83 157.021 225.094 157.528 228.819C157.983 232.198 158.356 234.296 158.649 235.114C158.965 236 159.264 236.538 159.545 236.729C159.711 236.865 159.957 236.861 160.283 236.716C160.567 236.589 160.783 236.4 160.929 236.151C161.088 235.869 161.226 235.531 161.344 235.136C161.454 234.718 161.562 234.393 161.668 234.162C161.774 233.93 161.918 233.773 162.101 233.692C162.508 233.51 162.792 233.647 162.955 234.101C163.036 234.328 162.967 234.793 162.747 235.497C162.527 236.201 162.291 236.794 162.039 237.275C161.819 237.716 161.364 238.09 160.672 238.399Z"/>
<path d="M170.811 234.071C169.754 234.543 168.794 234.431 167.932 233.736C167.091 233.032 166.438 232.032 165.975 230.738C165.236 228.671 164.826 226.536 164.745 224.333C164.677 222.099 164.954 220.105 165.577 218.352C166.151 216.595 167.088 215.426 168.39 214.845C170.261 214.01 171.765 215.182 172.902 218.362C173.471 219.952 173.818 221.68 173.943 223.547C174.069 225.414 173.987 227.162 173.698 228.793C173.429 230.414 172.999 231.685 172.409 232.607C171.954 233.311 171.421 233.799 170.811 234.071ZM170.507 232.429C171.137 232.148 171.619 231.222 171.953 229.65C172.307 228.07 172.424 226.253 172.302 224.2C172.201 222.138 171.923 220.471 171.469 219.199C170.997 217.882 170.634 217.096 170.378 216.842C170.134 216.556 169.896 216.385 169.664 216.33C169.432 216.276 169.123 216.335 168.737 216.507C168.31 216.698 167.928 217.079 167.59 217.651C166.89 218.727 166.483 220.226 166.369 222.147C166.152 225.036 166.45 227.616 167.263 229.887C167.815 231.431 168.593 232.322 169.598 232.558C169.939 232.59 170.242 232.547 170.507 232.429Z"/>
</mask>
<path d="M56.2435 285.441C56.0605 285.523 55.8714 285.489 55.6763 285.339C55.4812 285.189 55.3267 284.955 55.213 284.637C54.2136 281.843 53.1776 279.277 52.1049 276.937C51.0445 274.566 49.9027 272.165 48.6796 269.735C47.3468 267.064 46.1724 264.638 45.1566 262.457C44.153 260.245 43.1759 257.81 42.2253 255.153C41.9735 254.449 41.933 253.94 42.1039 253.627C42.3154 253.295 42.5127 253.089 42.6957 253.007C42.96 252.889 43.1653 253.034 43.3116 253.443L43.9147 255.624C44.3128 256.736 45.1457 258.735 46.4133 261.62C47.7014 264.495 49.2414 267.746 51.0333 271.371C53.321 275.986 54.9971 279.584 56.0616 282.164L56.1848 278.553C56.2711 275.697 56.3125 273.505 56.3089 271.979C56.3054 270.453 56.2287 268.591 56.079 266.393C55.9293 264.194 55.6457 261.226 55.2281 257.488C54.7649 256.325 54.3587 255.255 54.0093 254.279C53.3268 252.371 52.937 250.952 52.8397 250.02C52.7952 249.171 52.9967 248.647 53.444 248.447C53.7287 248.32 54.0275 248.463 54.3405 248.877C54.6453 249.267 54.9358 249.849 55.2121 250.621C55.8052 252.279 56.2823 254.371 56.6433 256.896C56.8668 257.455 57.2547 258.506 57.8072 260.051C59.3712 264.357 60.8196 268.043 62.1523 271.11C63.5053 274.167 64.9094 276.477 66.3645 278.04C66.9197 271.55 67.0639 265.889 66.7971 261.056C66.5304 256.223 65.7064 251.877 64.3252 248.015C63.8702 246.744 63.2769 245.678 62.5453 244.82C61.8136 243.961 61.1225 243.677 60.4718 243.967C59.9635 244.194 59.5181 244.63 59.1356 245.275L59.2387 247.046C59.1776 247.6 58.964 247.959 58.598 248.122C58.293 248.258 58.0714 248.133 57.9333 247.747C57.8439 247.497 57.7648 246.979 57.6959 246.194C57.542 244.445 58.3394 243.18 60.0881 242.4C60.7184 242.119 61.3974 242.171 62.1252 242.558C62.8651 242.912 63.5358 243.469 64.1373 244.228C64.7511 244.954 65.1839 245.67 65.4358 246.374C68.5963 255.209 69.4243 265.731 67.9199 277.938C67.6795 279.442 67.3356 280.293 66.8883 280.493C66.4409 280.692 65.508 279.765 64.0896 277.712C61.895 274.477 59.6115 269.544 57.239 262.912C57.4942 265.801 57.6721 268.934 57.7726 272.314C57.8732 275.693 57.8132 278.656 57.5928 281.204C57.3643 283.729 56.9145 285.142 56.2435 285.441Z" fill="white"/>
<path d="M80.247 274.53C79.5964 274.821 79.0474 274.934 78.6002 274.87C78.1448 274.784 77.7159 274.541 77.3135 274.141C76.5696 273.446 75.9742 272.474 75.5274 271.224C74.7474 269.044 74.3029 266.846 74.1938 264.629C74.0766 262.39 74.2867 260.373 74.824 258.58C75.3451 256.872 76.1851 255.76 77.3441 255.243C77.9541 254.97 78.5335 255.041 79.0823 255.454C79.6433 255.836 80.066 256.424 80.3504 257.219C80.846 258.605 80.9513 259.954 80.6662 261.266C80.4015 262.57 79.8521 263.803 79.0182 264.965C78.3022 265.996 77.3829 267.117 76.2602 268.329L77.0767 270.809C77.7592 272.717 78.6189 273.44 79.6559 272.977C80.0829 272.786 80.4571 272.514 80.7785 272.16C81.1201 271.797 81.4679 271.352 81.8219 270.825C82.2409 270.217 82.5622 269.862 82.7859 269.763C83.1316 269.608 83.3775 269.736 83.5238 270.144C83.6294 270.44 83.5012 270.905 83.1391 271.541C82.7973 272.167 82.3437 272.778 81.7783 273.373C81.2048 273.945 80.6944 274.331 80.247 274.53ZM75.9192 266.585C77.0622 265.364 77.9043 264.356 78.4453 263.561C78.9864 262.767 79.3099 261.924 79.4159 261.034C79.5423 260.135 79.3942 259.095 78.9717 257.914C78.6549 257.028 78.1609 256.735 77.4899 257.034C76.9002 257.297 76.4242 258.208 76.0618 259.766C75.6587 261.341 75.5524 263.219 75.7428 265.4C75.7954 266.008 75.8542 266.403 75.9192 266.585Z" fill="white"/>
<path d="M89.959 270.117C89.227 270.444 88.5907 270.477 88.05 270.218C87.5296 269.95 87.1435 269.464 86.8916 268.76C86.6722 268.147 86.5037 267.577 86.3859 267.05C86.26 266.5 86.0835 265.644 85.8561 264.481C85.4259 262.224 84.9815 259.63 84.523 256.7L83.7804 252.054C82.1898 241.939 81.3743 236.627 81.3338 236.118C81.3055 235.709 81.4642 235.428 81.8098 235.273C82.2369 235.083 82.5438 235.249 82.7307 235.771L82.9255 236.711C83.0838 237.483 83.2158 238.215 83.3212 238.905C83.4186 239.573 83.6215 240.865 83.9299 242.782C84.4046 245.889 85.0193 249.881 85.774 254.759C86.549 259.628 87.0928 262.862 87.4053 264.461C87.726 266.215 87.9594 267.296 88.1057 267.704C88.2276 268.045 88.4287 268.311 88.7092 268.502C88.9897 268.693 89.2622 268.729 89.5265 268.611C89.8112 268.484 90.0552 268.309 90.2586 268.087C90.4742 267.833 90.6145 267.665 90.6796 267.583L91.0884 267.045C91.2186 266.881 91.304 266.791 91.3447 266.772C91.792 266.573 92.1051 266.723 92.2838 267.222C92.4625 267.722 92.3201 268.247 91.8563 268.796C91.3845 269.323 90.7521 269.763 89.959 270.117Z" fill="white"/>
<path d="M98.6011 266.418C97.6251 266.853 96.7102 266.801 95.8565 266.26C95.015 265.687 94.3911 264.833 93.9849 263.698C93.2699 261.699 92.8559 259.487 92.7429 257.062C92.6501 254.627 92.8867 252.454 93.4525 250.542C93.998 248.639 94.8808 247.416 96.1008 246.871C96.9752 246.481 97.6704 246.579 98.1866 247.165C98.2883 247.251 98.3838 247.354 98.4732 247.472C98.5545 247.567 98.6358 247.663 98.7171 247.758C98.9325 248.031 99.0992 248.167 99.2171 248.167C99.3797 248.358 99.4813 248.51 99.5219 248.623C99.595 248.828 99.5726 249.062 99.4546 249.325C99.3569 249.579 99.2064 249.752 99.003 249.843C98.576 250.033 98.1756 249.804 97.8017 249.154C97.4279 248.505 96.9664 248.302 96.4174 248.547C95.6854 248.874 95.1402 249.855 94.7818 251.49C94.4154 253.102 94.2826 255.005 94.3835 257.199C94.4641 259.27 94.7604 261.021 95.2722 262.451C95.9953 264.473 97.0177 265.189 98.3394 264.599C99.0104 264.299 99.5047 263.67 99.8222 262.712C99.8507 262.594 99.9097 262.397 99.9992 262.12C100.081 261.82 100.176 261.593 100.286 261.438C100.388 261.261 100.5 261.146 100.622 261.091C101.008 260.919 101.27 261.026 101.408 261.412C101.571 261.866 101.552 262.44 101.353 263.135C101.145 263.807 100.797 264.45 100.309 265.063C99.8212 265.676 99.2518 266.127 98.6011 266.418Z" fill="white"/>
<path d="M109.208 261.565C108.151 262.037 107.191 261.926 106.329 261.23C105.488 260.526 104.836 259.526 104.372 258.232C103.633 256.165 103.223 254.03 103.143 251.827C103.074 249.593 103.351 247.599 103.974 245.846C104.548 244.089 105.486 242.92 106.787 242.339C108.658 241.504 110.162 242.676 111.299 245.856C111.868 247.446 112.215 249.174 112.34 251.041C112.466 252.908 112.384 254.656 112.095 256.287C111.826 257.908 111.396 259.179 110.807 260.101C110.351 260.805 109.818 261.293 109.208 261.565ZM108.904 259.923C109.534 259.642 110.016 258.716 110.35 257.144C110.704 255.564 110.821 253.747 110.7 251.694C110.599 249.632 110.321 247.965 109.866 246.693C109.394 245.376 109.031 244.59 108.775 244.336C108.531 244.05 108.293 243.879 108.061 243.825C107.829 243.77 107.52 243.829 107.134 244.001C106.707 244.192 106.325 244.573 105.987 245.145C105.287 246.221 104.88 247.72 104.766 249.641C104.549 252.53 104.847 255.11 105.66 257.381C106.212 258.925 106.991 259.816 107.995 260.052C108.336 260.084 108.639 260.041 108.904 259.923Z" fill="white"/>
<path d="M119.086 257.354C118.883 257.445 118.693 257.477 118.519 257.449C118.344 257.422 118.232 257.34 118.183 257.204C118.139 256.486 118.045 255.764 117.903 255.037C117.745 254.134 117.656 253.357 117.636 252.707C117.178 248.856 116.443 244.561 115.432 239.824L115.316 239.204C115.26 239.045 115.309 238.72 115.463 238.23C115.614 238.057 115.75 237.944 115.872 237.889C116.136 237.771 116.388 237.882 116.628 238.223L116.726 238.496C117.242 240.004 117.648 241.864 117.944 244.076L118.461 247.993L118.559 245.895C118.625 242.652 118.927 240.2 119.464 238.538C119.965 236.971 120.774 235.938 121.893 235.439C122.482 235.176 123.068 235.231 123.649 235.603C124.251 235.967 124.686 236.523 124.954 237.273L125.051 237.545C125.055 237.623 125.078 237.718 125.118 237.832C125.68 235.842 126.463 234.308 127.468 233.227C127.789 232.873 128.133 232.614 128.499 232.451C128.885 232.278 129.314 232.324 129.786 232.588C130.258 232.851 130.607 233.301 130.835 233.937C131.282 235.186 131.59 236.774 131.76 238.7C131.849 239.871 131.906 240.755 131.93 241.35C132.108 245.01 132.349 247.431 132.653 248.612C132.706 248.826 132.769 249.101 132.842 249.437C132.907 249.75 132.942 249.945 132.946 250.023C132.978 250.64 132.801 251.035 132.415 251.208C131.947 251.417 131.514 250.965 131.116 249.852C130.872 249.17 130.716 248.371 130.647 247.453C130.611 246.758 130.556 245.98 130.483 245.117C130.447 244.817 130.404 244.072 130.356 242.882C130.296 241.197 130.215 239.784 130.113 238.644C130.012 237.504 129.793 236.298 129.456 235.027C129.302 234.595 129.157 234.356 129.023 234.311C128.901 234.234 128.698 234.259 128.413 234.386C128.108 234.522 127.754 234.917 127.351 235.571C126.969 236.215 126.635 236.996 126.35 237.914C125.683 240.003 125.463 242.419 125.689 245.162C125.787 246.093 125.829 246.772 125.817 247.199C125.958 249.77 126.069 251.432 126.151 252.186C126.248 252.986 126.27 253.476 126.217 253.658C126.16 253.894 126.01 254.067 125.766 254.175C125.298 254.384 124.942 254.214 124.698 253.664C124.333 251.983 124.114 250.448 124.041 249.058C123.968 247.669 123.934 246.09 123.939 244.324C123.927 243.17 123.865 242.039 123.751 240.931C123.65 239.791 123.473 238.869 123.221 238.165C122.945 237.392 122.594 237.102 122.167 237.292C121.455 237.61 120.91 238.722 120.531 240.63C120.144 242.514 119.889 244.538 119.766 246.699C119.636 248.839 119.592 250.333 119.637 251.182C119.649 251.677 119.663 252.079 119.679 252.388C119.687 252.674 119.699 252.906 119.716 253.083C119.885 255.667 119.676 257.091 119.086 257.354Z" fill="white"/>
<path d="M142.446 246.77C141.795 247.061 141.246 247.174 140.799 247.11C140.343 247.024 139.914 246.781 139.512 246.381C138.768 245.686 138.173 244.714 137.726 243.464C136.946 241.284 136.501 239.086 136.392 236.869C136.275 234.63 136.485 232.614 137.023 230.82C137.544 229.112 138.384 228 139.543 227.483C140.153 227.21 140.732 227.281 141.281 227.694C141.842 228.076 142.265 228.665 142.549 229.459C143.045 230.845 143.15 232.194 142.865 233.506C142.6 234.81 142.051 236.043 141.217 237.205C140.501 238.236 139.581 239.357 138.459 240.569L139.275 243.049C139.958 244.957 140.818 245.68 141.855 245.217C142.282 245.026 142.656 244.754 142.977 244.4C143.319 244.037 143.667 243.592 144.02 243.065C144.439 242.457 144.761 242.102 144.985 242.003C145.33 241.848 145.576 241.976 145.722 242.384C145.828 242.68 145.7 243.145 145.338 243.781C144.996 244.408 144.542 245.018 143.977 245.613C143.403 246.185 142.893 246.571 142.446 246.77ZM138.118 238.825C139.261 237.604 140.103 236.596 140.644 235.801C141.185 235.007 141.509 234.164 141.615 233.274C141.741 232.375 141.593 231.335 141.17 230.154C140.853 229.268 140.36 228.975 139.689 229.274C139.099 229.538 138.623 230.448 138.26 232.006C137.857 233.581 137.751 235.459 137.941 237.64C137.994 238.248 138.053 238.643 138.118 238.825Z" fill="white"/>
<path d="M160.672 238.399C159.961 238.716 159.349 238.752 158.837 238.507C158.345 238.252 157.908 237.591 157.526 236.524C157.315 235.933 157.132 235.225 156.978 234.398L156.557 232.334L156.32 230.583L156.174 229.581L155.9 227.53C155.835 227.217 155.756 226.699 155.663 225.977L155.572 225.228L155.322 223.64L155.14 222.536C154.347 222.89 153.635 223.274 153.004 223.687C152.573 223.8 152.301 223.698 152.187 223.38C152.106 223.153 152.11 222.901 152.2 222.624C152.289 222.347 152.442 222.147 152.657 222.024L154.878 221.112C154.878 221.112 154.827 220.806 154.726 220.193C154.604 219.72 154.498 219.162 154.409 218.517C154.32 217.872 154.285 217.281 154.306 216.745C154.31 216.164 154.485 215.796 154.831 215.642C155.156 215.497 155.392 215.628 155.538 216.037L155.611 216.242C155.692 216.732 155.739 217.093 155.751 217.325L156.269 220.452L158.465 219.472C159.237 219.127 159.74 218.982 159.971 219.037C160.183 219.1 160.325 219.234 160.398 219.439C160.528 219.802 160.461 220.109 160.197 220.358C159.944 220.576 159.462 220.844 158.751 221.162C158.1 221.452 157.366 221.74 156.549 222.026C156.695 222.83 157.021 225.094 157.528 228.819C157.983 232.198 158.356 234.296 158.649 235.114C158.965 236 159.264 236.538 159.545 236.729C159.711 236.865 159.957 236.861 160.283 236.716C160.567 236.589 160.783 236.4 160.929 236.151C161.088 235.869 161.226 235.531 161.344 235.136C161.454 234.718 161.562 234.393 161.668 234.162C161.774 233.93 161.918 233.773 162.101 233.692C162.508 233.51 162.792 233.647 162.955 234.101C163.036 234.328 162.967 234.793 162.747 235.497C162.527 236.201 162.291 236.794 162.039 237.275C161.819 237.716 161.364 238.09 160.672 238.399Z" fill="white"/>
<path d="M170.811 234.071C169.754 234.543 168.794 234.431 167.932 233.736C167.091 233.032 166.438 232.032 165.975 230.738C165.236 228.671 164.826 226.536 164.745 224.333C164.677 222.099 164.954 220.105 165.577 218.352C166.151 216.595 167.088 215.426 168.39 214.845C170.261 214.01 171.765 215.182 172.902 218.362C173.471 219.952 173.818 221.68 173.943 223.547C174.069 225.414 173.987 227.162 173.698 228.793C173.429 230.414 172.999 231.685 172.409 232.607C171.954 233.311 171.421 233.799 170.811 234.071ZM170.507 232.429C171.137 232.148 171.619 231.222 171.953 229.65C172.307 228.07 172.424 226.253 172.302 224.2C172.201 222.138 171.923 220.471 171.469 219.199C170.997 217.882 170.634 217.096 170.378 216.842C170.134 216.556 169.896 216.385 169.664 216.33C169.432 216.276 169.123 216.335 168.737 216.507C168.31 216.698 167.928 217.079 167.59 217.651C166.89 218.727 166.483 220.226 166.369 222.147C166.152 225.036 166.45 227.616 167.263 229.887C167.815 231.431 168.593 232.322 169.598 232.558C169.939 232.59 170.242 232.547 170.507 232.429Z" fill="white"/>
<path d="M56.2435 285.441C56.0605 285.523 55.8714 285.489 55.6763 285.339C55.4812 285.189 55.3267 284.955 55.213 284.637C54.2136 281.843 53.1776 279.277 52.1049 276.937C51.0445 274.566 49.9027 272.165 48.6796 269.735C47.3468 267.064 46.1724 264.638 45.1566 262.457C44.153 260.245 43.1759 257.81 42.2253 255.153C41.9735 254.449 41.933 253.94 42.1039 253.627C42.3154 253.295 42.5127 253.089 42.6957 253.007C42.96 252.889 43.1653 253.034 43.3116 253.443L43.9147 255.624C44.3128 256.736 45.1457 258.735 46.4133 261.62C47.7014 264.495 49.2414 267.746 51.0333 271.371C53.321 275.986 54.9971 279.584 56.0616 282.164L56.1848 278.553C56.2711 275.697 56.3125 273.505 56.3089 271.979C56.3054 270.453 56.2287 268.591 56.079 266.393C55.9293 264.194 55.6457 261.226 55.2281 257.488C54.7649 256.325 54.3587 255.255 54.0093 254.279C53.3268 252.371 52.937 250.952 52.8397 250.02C52.7952 249.171 52.9967 248.647 53.444 248.447C53.7287 248.32 54.0275 248.463 54.3405 248.877C54.6453 249.267 54.9358 249.849 55.2121 250.621C55.8052 252.279 56.2823 254.371 56.6433 256.896C56.8668 257.455 57.2547 258.506 57.8072 260.051C59.3712 264.357 60.8196 268.043 62.1523 271.11C63.5053 274.167 64.9094 276.477 66.3645 278.04C66.9197 271.55 67.0639 265.889 66.7971 261.056C66.5304 256.223 65.7064 251.877 64.3252 248.015C63.8702 246.744 63.2769 245.678 62.5453 244.82C61.8136 243.961 61.1225 243.677 60.4718 243.967C59.9635 244.194 59.5181 244.63 59.1356 245.275L59.2387 247.046C59.1776 247.6 58.964 247.959 58.598 248.122C58.293 248.258 58.0714 248.133 57.9333 247.747C57.8439 247.497 57.7648 246.979 57.6959 246.194C57.542 244.445 58.3394 243.18 60.0881 242.4C60.7184 242.119 61.3974 242.171 62.1252 242.558C62.8651 242.912 63.5358 243.469 64.1373 244.228C64.7511 244.954 65.1839 245.67 65.4358 246.374C68.5963 255.209 69.4243 265.731 67.9199 277.938C67.6795 279.442 67.3356 280.293 66.8883 280.493C66.4409 280.692 65.508 279.765 64.0896 277.712C61.895 274.477 59.6115 269.544 57.239 262.912C57.4942 265.801 57.6721 268.934 57.7726 272.314C57.8732 275.693 57.8132 278.656 57.5928 281.204C57.3643 283.729 56.9145 285.142 56.2435 285.441Z" stroke="#2F4534" stroke-width="2" mask="url(#path-3-outside-1_2924:20620)"/>
<path d="M80.247 274.53C79.5964 274.821 79.0474 274.934 78.6002 274.87C78.1448 274.784 77.7159 274.541 77.3135 274.141C76.5696 273.446 75.9742 272.474 75.5274 271.224C74.7474 269.044 74.3029 266.846 74.1938 264.629C74.0766 262.39 74.2867 260.373 74.824 258.58C75.3451 256.872 76.1851 255.76 77.3441 255.243C77.9541 254.97 78.5335 255.041 79.0823 255.454C79.6433 255.836 80.066 256.424 80.3504 257.219C80.846 258.605 80.9513 259.954 80.6662 261.266C80.4015 262.57 79.8521 263.803 79.0182 264.965C78.3022 265.996 77.3829 267.117 76.2602 268.329L77.0767 270.809C77.7592 272.717 78.6189 273.44 79.6559 272.977C80.0829 272.786 80.4571 272.514 80.7785 272.16C81.1201 271.797 81.4679 271.352 81.8219 270.825C82.2409 270.217 82.5622 269.862 82.7859 269.763C83.1316 269.608 83.3775 269.736 83.5238 270.144C83.6294 270.44 83.5012 270.905 83.1391 271.541C82.7973 272.167 82.3437 272.778 81.7783 273.373C81.2048 273.945 80.6944 274.331 80.247 274.53ZM75.9192 266.585C77.0622 265.364 77.9043 264.356 78.4453 263.561C78.9864 262.767 79.3099 261.924 79.4159 261.034C79.5423 260.135 79.3942 259.095 78.9717 257.914C78.6549 257.028 78.1609 256.735 77.4899 257.034C76.9002 257.297 76.4242 258.208 76.0618 259.766C75.6587 261.341 75.5524 263.219 75.7428 265.4C75.7954 266.008 75.8542 266.403 75.9192 266.585Z" stroke="#2F4534" stroke-width="2" mask="url(#path-3-outside-1_2924:20620)"/>
<path d="M89.959 270.117C89.227 270.444 88.5907 270.477 88.05 270.218C87.5296 269.95 87.1435 269.464 86.8916 268.76C86.6722 268.147 86.5037 267.577 86.3859 267.05C86.26 266.5 86.0835 265.644 85.8561 264.481C85.4259 262.224 84.9815 259.63 84.523 256.7L83.7804 252.054C82.1898 241.939 81.3743 236.627 81.3338 236.118C81.3055 235.709 81.4642 235.428 81.8098 235.273C82.2369 235.083 82.5438 235.249 82.7307 235.771L82.9255 236.711C83.0838 237.483 83.2158 238.215 83.3212 238.905C83.4186 239.573 83.6215 240.865 83.9299 242.782C84.4046 245.889 85.0193 249.881 85.774 254.759C86.549 259.628 87.0928 262.862 87.4053 264.461C87.726 266.215 87.9594 267.296 88.1057 267.704C88.2276 268.045 88.4287 268.311 88.7092 268.502C88.9897 268.693 89.2622 268.729 89.5265 268.611C89.8112 268.484 90.0552 268.309 90.2586 268.087C90.4742 267.833 90.6145 267.665 90.6796 267.583L91.0884 267.045C91.2186 266.881 91.304 266.791 91.3447 266.772C91.792 266.573 92.1051 266.723 92.2838 267.222C92.4625 267.722 92.3201 268.247 91.8563 268.796C91.3845 269.323 90.7521 269.763 89.959 270.117Z" stroke="#2F4534" stroke-width="2" mask="url(#path-3-outside-1_2924:20620)"/>
<path d="M98.6011 266.418C97.6251 266.853 96.7102 266.801 95.8565 266.26C95.015 265.687 94.3911 264.833 93.9849 263.698C93.2699 261.699 92.8559 259.487 92.7429 257.062C92.6501 254.627 92.8867 252.454 93.4525 250.542C93.998 248.639 94.8808 247.416 96.1008 246.871C96.9752 246.481 97.6704 246.579 98.1866 247.165C98.2883 247.251 98.3838 247.354 98.4732 247.472C98.5545 247.567 98.6358 247.663 98.7171 247.758C98.9325 248.031 99.0992 248.167 99.2171 248.167C99.3797 248.358 99.4813 248.51 99.5219 248.623C99.595 248.828 99.5726 249.062 99.4546 249.325C99.3569 249.579 99.2064 249.752 99.003 249.843C98.576 250.033 98.1756 249.804 97.8017 249.154C97.4279 248.505 96.9664 248.302 96.4174 248.547C95.6854 248.874 95.1402 249.855 94.7818 251.49C94.4154 253.102 94.2826 255.005 94.3835 257.199C94.4641 259.27 94.7604 261.021 95.2722 262.451C95.9953 264.473 97.0177 265.189 98.3394 264.599C99.0104 264.299 99.5047 263.67 99.8222 262.712C99.8507 262.594 99.9097 262.397 99.9992 262.12C100.081 261.82 100.176 261.593 100.286 261.438C100.388 261.261 100.5 261.146 100.622 261.091C101.008 260.919 101.27 261.026 101.408 261.412C101.571 261.866 101.552 262.44 101.353 263.135C101.145 263.807 100.797 264.45 100.309 265.063C99.8212 265.676 99.2518 266.127 98.6011 266.418Z" stroke="#2F4534" stroke-width="2" mask="url(#path-3-outside-1_2924:20620)"/>
<path d="M109.208 261.565C108.151 262.037 107.191 261.926 106.329 261.23C105.488 260.526 104.836 259.526 104.372 258.232C103.633 256.165 103.223 254.03 103.143 251.827C103.074 249.593 103.351 247.599 103.974 245.846C104.548 244.089 105.486 242.92 106.787 242.339C108.658 241.504 110.162 242.676 111.299 245.856C111.868 247.446 112.215 249.174 112.34 251.041C112.466 252.908 112.384 254.656 112.095 256.287C111.826 257.908 111.396 259.179 110.807 260.101C110.351 260.805 109.818 261.293 109.208 261.565ZM108.904 259.923C109.534 259.642 110.016 258.716 110.35 257.144C110.704 255.564 110.821 253.747 110.7 251.694C110.599 249.632 110.321 247.965 109.866 246.693C109.394 245.376 109.031 244.59 108.775 244.336C108.531 244.05 108.293 243.879 108.061 243.825C107.829 243.77 107.52 243.829 107.134 244.001C106.707 244.192 106.325 244.573 105.987 245.145C105.287 246.221 104.88 247.72 104.766 249.641C104.549 252.53 104.847 255.11 105.66 257.381C106.212 258.925 106.991 259.816 107.995 260.052C108.336 260.084 108.639 260.041 108.904 259.923Z" stroke="#2F4534" stroke-width="2" mask="url(#path-3-outside-1_2924:20620)"/>
<path d="M119.086 257.354C118.883 257.445 118.693 257.477 118.519 257.449C118.344 257.422 118.232 257.34 118.183 257.204C118.139 256.486 118.045 255.764 117.903 255.037C117.745 254.134 117.656 253.357 117.636 252.707C117.178 248.856 116.443 244.561 115.432 239.824L115.316 239.204C115.26 239.045 115.309 238.72 115.463 238.23C115.614 238.057 115.75 237.944 115.872 237.889C116.136 237.771 116.388 237.882 116.628 238.223L116.726 238.496C117.242 240.004 117.648 241.864 117.944 244.076L118.461 247.993L118.559 245.895C118.625 242.652 118.927 240.2 119.464 238.538C119.965 236.971 120.774 235.938 121.893 235.439C122.482 235.176 123.068 235.231 123.649 235.603C124.251 235.967 124.686 236.523 124.954 237.273L125.051 237.545C125.055 237.623 125.078 237.718 125.118 237.832C125.68 235.842 126.463 234.308 127.468 233.227C127.789 232.873 128.133 232.614 128.499 232.451C128.885 232.278 129.314 232.324 129.786 232.588C130.258 232.851 130.607 233.301 130.835 233.937C131.282 235.186 131.59 236.774 131.76 238.7C131.849 239.871 131.906 240.755 131.93 241.35C132.108 245.01 132.349 247.431 132.653 248.612C132.706 248.826 132.769 249.101 132.842 249.437C132.907 249.75 132.942 249.945 132.946 250.023C132.978 250.64 132.801 251.035 132.415 251.208C131.947 251.417 131.514 250.965 131.116 249.852C130.872 249.17 130.716 248.371 130.647 247.453C130.611 246.758 130.556 245.98 130.483 245.117C130.447 244.817 130.404 244.072 130.356 242.882C130.296 241.197 130.215 239.784 130.113 238.644C130.012 237.504 129.793 236.298 129.456 235.027C129.302 234.595 129.157 234.356 129.023 234.311C128.901 234.234 128.698 234.259 128.413 234.386C128.108 234.522 127.754 234.917 127.351 235.571C126.969 236.215 126.635 236.996 126.35 237.914C125.683 240.003 125.463 242.419 125.689 245.162C125.787 246.093 125.829 246.772 125.817 247.199C125.958 249.77 126.069 251.432 126.151 252.186C126.248 252.986 126.27 253.476 126.217 253.658C126.16 253.894 126.01 254.067 125.766 254.175C125.298 254.384 124.942 254.214 124.698 253.664C124.333 251.983 124.114 250.448 124.041 249.058C123.968 247.669 123.934 246.09 123.939 244.324C123.927 243.17 123.865 242.039 123.751 240.931C123.65 239.791 123.473 238.869 123.221 238.165C122.945 237.392 122.594 237.102 122.167 237.292C121.455 237.61 120.91 238.722 120.531 240.63C120.144 242.514 119.889 244.538 119.766 246.699C119.636 248.839 119.592 250.333 119.637 251.182C119.649 251.677 119.663 252.079 119.679 252.388C119.687 252.674 119.699 252.906 119.716 253.083C119.885 255.667 119.676 257.091 119.086 257.354Z" stroke="#2F4534" stroke-width="2" mask="url(#path-3-outside-1_2924:20620)"/>
<path d="M142.446 246.77C141.795 247.061 141.246 247.174 140.799 247.11C140.343 247.024 139.914 246.781 139.512 246.381C138.768 245.686 138.173 244.714 137.726 243.464C136.946 241.284 136.501 239.086 136.392 236.869C136.275 234.63 136.485 232.614 137.023 230.82C137.544 229.112 138.384 228 139.543 227.483C140.153 227.21 140.732 227.281 141.281 227.694C141.842 228.076 142.265 228.665 142.549 229.459C143.045 230.845 143.15 232.194 142.865 233.506C142.6 234.81 142.051 236.043 141.217 237.205C140.501 238.236 139.581 239.357 138.459 240.569L139.275 243.049C139.958 244.957 140.818 245.68 141.855 245.217C142.282 245.026 142.656 244.754 142.977 244.4C143.319 244.037 143.667 243.592 144.02 243.065C144.439 242.457 144.761 242.102 144.985 242.003C145.33 241.848 145.576 241.976 145.722 242.384C145.828 242.68 145.7 243.145 145.338 243.781C144.996 244.408 144.542 245.018 143.977 245.613C143.403 246.185 142.893 246.571 142.446 246.77ZM138.118 238.825C139.261 237.604 140.103 236.596 140.644 235.801C141.185 235.007 141.509 234.164 141.615 233.274C141.741 232.375 141.593 231.335 141.17 230.154C140.853 229.268 140.36 228.975 139.689 229.274C139.099 229.538 138.623 230.448 138.26 232.006C137.857 233.581 137.751 235.459 137.941 237.64C137.994 238.248 138.053 238.643 138.118 238.825Z" stroke="#2F4534" stroke-width="2" mask="url(#path-3-outside-1_2924:20620)"/>
<path d="M160.672 238.399C159.961 238.716 159.349 238.752 158.837 238.507C158.345 238.252 157.908 237.591 157.526 236.524C157.315 235.933 157.132 235.225 156.978 234.398L156.557 232.334L156.32 230.583L156.174 229.581L155.9 227.53C155.835 227.217 155.756 226.699 155.663 225.977L155.572 225.228L155.322 223.64L155.14 222.536C154.347 222.89 153.635 223.274 153.004 223.687C152.573 223.8 152.301 223.698 152.187 223.38C152.106 223.153 152.11 222.901 152.2 222.624C152.289 222.347 152.442 222.147 152.657 222.024L154.878 221.112C154.878 221.112 154.827 220.806 154.726 220.193C154.604 219.72 154.498 219.162 154.409 218.517C154.32 217.872 154.285 217.281 154.306 216.745C154.31 216.164 154.485 215.796 154.831 215.642C155.156 215.497 155.392 215.628 155.538 216.037L155.611 216.242C155.692 216.732 155.739 217.093 155.751 217.325L156.269 220.452L158.465 219.472C159.237 219.127 159.74 218.982 159.971 219.037C160.183 219.1 160.325 219.234 160.398 219.439C160.528 219.802 160.461 220.109 160.197 220.358C159.944 220.576 159.462 220.844 158.751 221.162C158.1 221.452 157.366 221.74 156.549 222.026C156.695 222.83 157.021 225.094 157.528 228.819C157.983 232.198 158.356 234.296 158.649 235.114C158.965 236 159.264 236.538 159.545 236.729C159.711 236.865 159.957 236.861 160.283 236.716C160.567 236.589 160.783 236.4 160.929 236.151C161.088 235.869 161.226 235.531 161.344 235.136C161.454 234.718 161.562 234.393 161.668 234.162C161.774 233.93 161.918 233.773 162.101 233.692C162.508 233.51 162.792 233.647 162.955 234.101C163.036 234.328 162.967 234.793 162.747 235.497C162.527 236.201 162.291 236.794 162.039 237.275C161.819 237.716 161.364 238.09 160.672 238.399Z" stroke="#2F4534" stroke-width="2" mask="url(#path-3-outside-1_2924:20620)"/>
<path d="M170.811 234.071C169.754 234.543 168.794 234.431 167.932 233.736C167.091 233.032 166.438 232.032 165.975 230.738C165.236 228.671 164.826 226.536 164.745 224.333C164.677 222.099 164.954 220.105 165.577 218.352C166.151 216.595 167.088 215.426 168.39 214.845C170.261 214.01 171.765 215.182 172.902 218.362C173.471 219.952 173.818 221.68 173.943 223.547C174.069 225.414 173.987 227.162 173.698 228.793C173.429 230.414 172.999 231.685 172.409 232.607C171.954 233.311 171.421 233.799 170.811 234.071ZM170.507 232.429C171.137 232.148 171.619 231.222 171.953 229.65C172.307 228.07 172.424 226.253 172.302 224.2C172.201 222.138 171.923 220.471 171.469 219.199C170.997 217.882 170.634 217.096 170.378 216.842C170.134 216.556 169.896 216.385 169.664 216.33C169.432 216.276 169.123 216.335 168.737 216.507C168.31 216.698 167.928 217.079 167.59 217.651C166.89 218.727 166.483 220.226 166.369 222.147C166.152 225.036 166.45 227.616 167.263 229.887C167.815 231.431 168.593 232.322 169.598 232.558C169.939 232.59 170.242 232.547 170.507 232.429Z" stroke="#2F4534" stroke-width="2" mask="url(#path-3-outside-1_2924:20620)"/>
<path d="M111.943 314.462C111.943 318.623 109.897 320.669 105.736 320.669H101.206C97.0456 320.669 95 318.7 95 314.678V307.372H100.26V315.917H106.689V303.719H101.213C97.0526 303.719 95.007 301.674 95.007 297.513V277.571C95.007 273.411 97.0526 271.365 101.213 271.365H111.95V314.462H111.943ZM100.253 276.103V298.967H106.606V276.103H100.253Z" fill="#064E40"/>
<path d="M121.732 271.358V272.604C122.24 272.089 122.831 271.727 123.416 271.581C123.924 271.435 124.954 271.365 126.408 271.365H128.961V276.111H121.732V303.727H116.472V271.365H121.732V271.358Z" fill="#064E40"/>
<path d="M149.641 297.729C149.641 301.743 147.595 303.719 143.434 303.719H138.904C134.744 303.719 132.698 301.674 132.698 297.513V277.571C132.698 273.411 134.744 271.365 138.904 271.365H143.434C147.595 271.365 149.641 273.334 149.641 277.356V289.191H137.951V298.981H144.38V291.091H149.641V297.729ZM144.38 284.432V276.103H137.951V284.432H144.38Z" fill="#064E40"/>
<path d="M171.335 297.729C171.335 301.743 169.29 303.719 165.129 303.719H160.599C156.438 303.719 154.393 301.674 154.393 297.513V277.571C154.393 273.411 156.438 271.365 160.599 271.365H165.129C169.29 271.365 171.335 273.334 171.335 277.356V289.191H159.646V298.981H166.075V291.091H171.335V297.729ZM166.075 284.432V276.103H159.646V284.432H166.075Z" fill="#064E40"/>
<path d="M186.462 271.358C190.623 271.358 192.669 273.404 192.669 277.565V303.72H187.409V276.104H180.979V303.72H175.719V271.358H186.462Z" fill="#064E40"/>
<path d="M203.258 286.478V298.237H210.634V286.624C210.634 285.524 210.564 284.87 210.418 284.578C210.272 284.286 209.903 283.994 209.319 283.771L201.067 280.633C199.751 280.125 198.875 279.395 198.436 278.372C197.998 277.349 197.775 275.595 197.775 273.111V261.206C197.775 257.046 199.821 255 203.982 255H209.896C214.064 255 216.103 257.046 216.103 261.206V272.457H210.62V260.476H203.244V273.334C203.244 274.58 203.314 275.303 203.537 275.595C203.683 275.888 204.121 276.18 204.852 276.472L212.38 279.248C213.918 279.756 214.864 280.487 215.372 281.364C215.88 282.24 216.103 283.701 216.103 285.747V297.506C216.103 301.674 214.057 303.712 209.896 303.712H203.982C199.821 303.712 197.775 301.667 197.775 297.506V286.478H203.258Z" fill="#064E40"/>
<path d="M232.92 284.432V276.104H226.491V298.967H232.92V290.931H238.181V297.722C238.181 301.737 236.135 303.713 231.974 303.713H227.445C223.284 303.713 221.238 301.667 221.238 297.506V277.565C221.238 273.404 223.284 271.358 227.445 271.358H231.974C236.142 271.358 238.181 273.328 238.181 277.349V284.432H232.92Z" fill="#064E40"/>
<path d="M242.348 277.565C242.348 273.404 244.393 271.358 248.554 271.358H253.084C257.245 271.358 259.29 273.404 259.29 277.565V303.72H248.554C244.386 303.72 242.348 301.674 242.348 297.513V290.646C242.348 286.485 244.393 284.439 248.554 284.439H254.03V276.111H247.601V280.856H242.341V277.565H242.348ZM254.037 289.185H247.608V298.974H254.037V289.185Z" fill="#064E40"/>
<path d="M274.417 271.358C278.585 271.358 280.623 273.404 280.623 277.565V303.72H275.363V276.104H268.934V303.72H263.674V271.358H274.417Z" fill="#064E40"/>
<path d="M118.1 305.57H116.438V319.569H118.1V305.57Z" fill="#064E40"/>
<path d="M121.586 305.57H119.923V319.569H121.586V305.57Z" fill="#064E40"/>
<path d="M133.325 305.57H131.662V319.569H133.325V305.57Z" fill="#064E40"/>
<path d="M146.183 305.57H144.52V319.569H146.183V305.57Z" fill="#064E40"/>
<path d="M149.251 305.57H147.588V319.569H149.251V305.57Z" fill="#064E40"/>
<path d="M169.944 305.57H168.281V319.569H169.944V305.57Z" fill="#064E40"/>
<path d="M182.308 305.57H180.645V319.569H182.308V305.57Z" fill="#064E40"/>
<path d="M193.963 305.57H192.3V319.569H193.963V305.57Z" fill="#064E40"/>
<path d="M197.421 305.57H195.758V319.569H197.421V305.57Z" fill="#064E40"/>
<path d="M200.858 305.57H199.195V319.569H200.858V305.57Z" fill="#064E40"/>
<path d="M223.45 305.57H221.787V319.569H223.45V305.57Z" fill="#064E40"/>
<path d="M240.567 305.57H238.904V319.569H240.567V305.57Z" fill="#064E40"/>
<path d="M252.938 305.57H251.275V319.569H252.938V305.57Z" fill="#064E40"/>
<path d="M276.713 305.57H275.05V319.569H276.713V305.57Z" fill="#064E40"/>
<path d="M281 305.57H279.337V319.569H281V305.57Z" fill="#064E40"/>
<path d="M129.929 305.57H126.742V319.569H129.929V305.57Z" fill="#064E40"/>
<path d="M166.076 305.57H162.889V319.569H166.076V305.57Z" fill="#064E40"/>
<path d="M178.439 305.57H175.252V319.569H178.439V305.57Z" fill="#064E40"/>
<path d="M190.567 305.57H187.38V319.569H190.567V305.57Z" fill="#064E40"/>
<path d="M206.028 305.57H202.841V319.569H206.028V305.57Z" fill="#064E40"/>
<path d="M211.26 305.57H208.074V319.569H211.26V305.57Z" fill="#064E40"/>
<path d="M230.283 305.57H227.096V319.569H230.283V305.57Z" fill="#064E40"/>
<path d="M237.178 305.57H233.992V319.569H237.178V305.57Z" fill="#064E40"/>
<path d="M266.43 305.57H263.243V319.569H266.43V305.57Z" fill="#064E40"/>
<path d="M272.553 305.57H269.366V319.569H272.553V305.57Z" fill="#064E40"/>
<path d="M142.321 305.57H135.544V319.569H142.321V305.57Z" fill="#064E40"/>
<path d="M157.775 305.57H150.998V319.569H157.775V305.57Z" fill="#064E40"/>
<path d="M220.076 305.57H214.892V319.569H220.076V305.57Z" fill="#064E40"/>
<path d="M248.138 305.57H242.954V319.569H248.138V305.57Z" fill="#064E40"/>
<path d="M261.454 305.57H256.271V319.569H261.454V305.57Z" fill="#064E40"/>
<defs>
<linearGradient id="paint0_linear_2924:20620" x1="187.5" y1="0.00158691" x2="187.5" y2="483.64" gradientUnits="userSpaceOnUse">
<stop stop-color="white"/>
<stop offset="1" stop-color="white" stop-opacity="0"/>
</linearGradient>
</defs>
</svg>
