<svg width="155" height="42" viewBox="0 0 155 42" fill="none" xmlns="http://www.w3.org/2000/svg">
<g clip-path="url(#clip0_3030:22807)">
<path d="M17.7282 0.250787C17.007 -0.216869 16.0442 -0.0115561 15.5771 0.709111L6.86166 14.1431L2.61128 10.2131C1.98031 9.62983 0.996779 9.6682 0.413505 10.2992C-0.169769 10.9296 -0.131403 11.9142 0.49957 12.4969L6.08033 17.6567C6.08033 17.6567 6.24054 17.7946 6.31468 17.8428C6.57599 18.0129 6.86944 18.0938 7.15978 18.0938C7.66891 18.0938 8.16819 17.8439 8.46631 17.3845L18.1865 2.4019C18.6542 1.68123 18.4489 0.717925 17.7282 0.250787Z" fill="black"/>
<path d="M13.9375 8.375H1.8125V20.5H13.9375V8.375Z" stroke="black"/>
<path d="M24.5037 17H25.9802V13.9307H27.696L29.3777 17H31.073L29.2136 13.7188C30.2185 13.3838 30.8201 12.4951 30.8201 11.4219V11.4082C30.8201 9.88379 29.7263 8.91309 27.9148 8.91309H24.5037V17ZM25.9802 12.8506V10.041H27.7302C28.7009 10.041 29.2957 10.5811 29.2957 11.4424V11.4561C29.2957 12.3379 28.7283 12.8506 27.7644 12.8506H25.9802ZM32.6931 17H38.1687V15.8311H34.1697V13.4453H37.95V12.3311H34.1697V10.082H38.1687V8.91309H32.6931V17ZM43.6101 17.1982C45.5583 17.1982 46.9666 16.1318 47.1921 14.5459L47.1853 14.5049H45.7361L45.7224 14.5322C45.5037 15.4277 44.697 15.9951 43.6101 15.9951C42.1472 15.9951 41.238 14.8262 41.238 12.96V12.9463C41.238 11.0801 42.1472 9.91797 43.6033 9.91797C44.6833 9.91797 45.5037 10.5469 45.7292 11.5176L45.7361 11.5449H47.1853L47.1921 11.4971C46.9871 9.87012 45.531 8.71484 43.6033 8.71484C41.2107 8.71484 39.7273 10.335 39.7273 12.9531V12.9668C39.7273 15.5781 41.2175 17.1982 43.6101 17.1982ZM51.0681 17H52.5583V13.7666L55.532 8.91309H53.905L51.8679 12.4062H51.7654L49.7146 8.91309H48.0876L51.0681 13.7666V17ZM60.1394 17.1982C62.0876 17.1982 63.4958 16.1318 63.7214 14.5459L63.7146 14.5049H62.2654L62.2517 14.5322C62.033 15.4277 61.2263 15.9951 60.1394 15.9951C58.6765 15.9951 57.7673 14.8262 57.7673 12.96V12.9463C57.7673 11.0801 58.6765 9.91797 60.1326 9.91797C61.2126 9.91797 62.033 10.5469 62.2585 11.5176L62.2654 11.5449H63.7146L63.7214 11.4971C63.5164 9.87012 62.0603 8.71484 60.1326 8.71484C57.74 8.71484 56.2566 10.335 56.2566 12.9531V12.9668C56.2566 15.5781 57.7468 17.1982 60.1394 17.1982ZM65.4509 17H70.8376V15.8311H66.9275V8.91309H65.4509V17ZM71.8494 17H73.408L74.1326 14.874H77.2771L78.0017 17H79.5603L76.532 8.91309H74.8708L71.8494 17ZM75.6501 10.3896H75.7527L76.9148 13.7939H74.4949L75.6501 10.3896ZM81.0369 17H84.6394C86.4509 17 87.5515 16.125 87.5515 14.71V14.7031C87.5515 13.6504 86.7722 12.8711 85.6306 12.7617V12.666C86.4783 12.5361 87.1414 11.7773 87.1414 10.9365V10.9229C87.1414 9.68555 86.1707 8.91309 84.5505 8.91309H81.0369V17ZM84.1951 10C85.1316 10 85.6716 10.4307 85.6716 11.1621V11.1758C85.6716 11.9277 85.0906 12.3311 83.9968 12.3311H82.5134V10H84.1951ZM84.2429 13.3359C85.4187 13.3359 86.0339 13.7666 86.0339 14.6074V14.6211C86.0339 15.4619 85.4392 15.9131 84.3044 15.9131H82.5134V13.3359H84.2429ZM89.24 17H94.6267V15.8311H90.7166V8.91309H89.24V17ZM96.2947 17H101.77V15.8311H97.7712V13.4453H101.552V12.3311H97.7712V10.082H101.77V8.91309H96.2947V17Z" fill="black"/>
</g>
<defs>
<clipPath id="clip0_3030:22807">
<rect width="155" height="42" fill="white"/>
</clipPath>
</defs>
</svg>
