<?xml version="1.0" encoding="utf-8"?>
<!-- Generator: Adobe Illustrator 25.4.1, SVG Export Plug-In . SVG Version: 6.00 Build 0)  -->
<svg version="1.1" id="Layer_1" xmlns="http://www.w3.org/2000/svg" xmlns:xlink="http://www.w3.org/1999/xlink" x="0px" y="0px"
	 viewBox="0 0 375 982" style="enable-background:new 0 0 375 982;" xml:space="preserve">
<style type="text/css">
	.st0{fill:url(#SVGID_1_);}
	.st1{fill:url(#SVGID_00000031187358657256195650000016272631020811752836_);}
</style>
<linearGradient id="SVGID_1_" gradientUnits="userSpaceOnUse" x1="187.5" y1="717.805" x2="187.5" y2="999.9505" gradientTransform="matrix(1 0 0 -1 0 982)">
	<stop  offset="0" style="stop-color:#064E40"/>
	<stop  offset="1" style="stop-color:#0DAD8D"/>
</linearGradient>
<path class="st0" d="M0,15.4c0,0,44,15.7,96.5,14.8C148.2,27.5,213.3,5.4,263,3.3c67-2.8,112,12,112,12V982H0V15.4z"/>
<g>
	
		<linearGradient id="SVGID_00000080172321251620051310000016385978474007422611_" gradientUnits="userSpaceOnUse" x1="186.6888" y1="944.1121" x2="188.5148" y2="-121.2296" gradientTransform="matrix(1 0 0 -1 0 982)">
		<stop  offset="0.1217" style="stop-color:#0DAD8D;stop-opacity:0.75"/>
		<stop  offset="0.3952" style="stop-color:#0DAD8D;stop-opacity:0.8"/>
		<stop  offset="0.7799" style="stop-color:#0D846C"/>
		<stop  offset="1" style="stop-color:#0A584D"/>
	</linearGradient>
	<path style="fill:url(#SVGID_00000080172321251620051310000016385978474007422611_);" d="M86.5,40.4C26.5,45.2,0,58.9,0,58.9V982
		h375V40.4c0,0-41,19.5-88,19.5c-44.1,0-44-8.1-102-15.6C122.5,36.2,126,37.1,86.5,40.4z"/>
</g>
<path d="M101.2,22l-1,0l0,1.6l1.4-0.7L101.2,22z M99.2,25.4c0.6,0,1-0.5,1-1c0-0.6-0.5-1-1-1L99.2,25.4z M100.9,7.7l0-1
	c-0.6,0-1,0.5-1,1L100.9,7.7z M106.3,7.6l0.8-0.6c-0.2-0.3-0.5-0.4-0.8-0.4L106.3,7.6z M111.3,14.5l1,0c0-0.2-0.1-0.4-0.2-0.6
	L111.3,14.5z M111.5,24.2l0,1c0.6,0,1-0.5,1-1L111.5,24.2z M111.3,16c0.6,0,1-0.5,1-1c0-0.6-0.5-1-1-1L111.3,16z M101,14.2
	c-0.6,0-1,0.5-1,1c0,0.6,0.5,1,1,1L101,14.2z M111.4,20.3c0.6,0,1-0.5,1-1c0-0.6-0.5-1-1-1L111.4,20.3z M108.7,18.4
	c-0.6,0-1,0.5-1,1c0,0.6,0.5,1,1,1L108.7,18.4z M89.2,23.6c-0.6,0-1,0.5-1,1c0,0.6,0.5,1,1,1L89.2,23.6z M82,25.8c0.6,0,1-0.5,1-1
	c0-0.6-0.5-1-1-1L82,25.8z M105.6,25.4c0,1.5-1.2,2.8-2.7,2.8l0,2c2.6-0.1,4.7-2.2,4.7-4.9L105.6,25.4z M102.9,28.2
	c-1.5,0-2.8-1.2-2.8-2.7l-2,0c0.1,2.6,2.2,4.7,4.9,4.7L102.9,28.2z M100.1,25.5c0-1.5,1.2-2.8,2.7-2.8l0-2c-2.6,0.1-4.7,2.2-4.7,4.9
	L100.1,25.5z M102.8,22.6c1.5,0,2.8,1.2,2.8,2.7l2,0c-0.1-2.6-2.2-4.7-4.9-4.7L102.8,22.6z M88.4,25.7c0,1.5-1.2,2.8-2.7,2.8l0,2
	c2.6-0.1,4.7-2.2,4.7-4.9L88.4,25.7z M85.7,28.5c-1.5,0-2.8-1.2-2.8-2.7l-2,0c0.1,2.6,2.2,4.7,4.9,4.7L85.7,28.5z M82.8,25.8
	c0-1.5,1.2-2.8,2.7-2.8l0-2c-2.6,0.1-4.7,2.2-4.7,4.9L82.8,25.8z M85.5,23c1.5,0,2.8,1.2,2.8,2.7l2,0C90.3,23,88.1,21,85.5,21
	L85.5,23z M79.2,2.7l19.4-0.4l0-2L79.1,0.7L79.2,2.7z M99.8,3.4l0.4,18.7l2,0l-0.4-18.7L99.8,3.4z M78.4,22.2L78,3.9l-2,0l0.4,18.3
	L78.4,22.2z M79.6,23.8c-0.2,0-0.4-0.1-0.7-0.5c-0.3-0.4-0.5-0.8-0.5-1.2l-2,0c0,0.8,0.4,1.7,0.9,2.4c0.5,0.7,1.3,1.3,2.4,1.3
	L79.6,23.8z M98.6,2.3c0.6,0,1.2,0.5,1.2,1.1l2,0c0-1.7-1.5-3.1-3.2-3.1L98.6,2.3z M79.1,0.7c-1.7,0-3.1,1.5-3.1,3.2l2,0
	c0-0.6,0.5-1.2,1.1-1.2L79.1,0.7z M100.9,8.7l5.4-0.1l0-2l-5.4,0.1L100.9,8.7z M105.5,8.2l5,6.9l1.6-1.2l-5-6.9L105.5,8.2z
	 M110.3,14.5l0.2,9.7l2,0l-0.2-9.7L110.3,14.5z M111.5,23.2l-5,0.1l0,2l5-0.1L111.5,23.2z M102.2,22l-0.3-14.4l-2,0l0.3,14.4
	L102.2,22z M111.3,14L101,14.2l0,2l10.3-0.2L111.3,14z M111.4,18.3l-2.7,0.1l0,2l2.7-0.1L111.4,18.3z M99.2,23.4l-10,0.2l0,2l10-0.2
	L99.2,23.4z M81.9,23.8l-2.3,0l0,2l2.3,0L81.9,23.8z M102.8,20.6c-0.6,0-1.1,0.1-1.4,0.3c-0.2,0.1-0.3,0.1-0.4,0.2
	c-0.1,0-0.1,0-0.1,0.1c0,0,0,0,0,0c0,0,0,0,0,0c0,0,0,0,0,0c0,0,0,0,0,0c0,0,0,0,0,0c0,0,0,0,0,0c0,0,0,0,0.5,0.9
	c0.5,0.9,0.5,0.9,0.5,0.9v0c0,0,0,0,0,0c0,0,0,0,0,0c0,0,0,0,0,0c0,0,0,0,0,0c0,0,0,0,0,0c0,0,0,0,0.1,0c0.1,0,0.1-0.1,0.3-0.1
	c0.2-0.1,0.5-0.1,0.9-0.2L102.8,20.6z"/>
<path d="M89.3,19.3c-0.3-0.3-0.3-0.8,0-1.1l2.8-2.4c0.4-0.4,1.1-0.1,1.2,0.5l0.1,4.7c0,0.6-0.7,0.9-1.1,0.6L89.3,19.3z"/>
<path d="M94.2,14.7c-0.3-0.4-0.4-0.9-0.3-1.4l0-0.1c0.1-0.4,0.5-0.7,1-0.7l0.2,0c0.4,0,0.8,0.2,1,0.5l0.3,0.3c0.5,0.6,0.8,1.2,1,2
	c0.1,0.5,0.2,1,0.1,1.5l0,0.2c-0.3,1.6-1.7,2.7-3.3,2.8l-0.8,0l-0.1-2.5l0.6,0c0.3,0,0.6-0.1,0.8-0.4l0,0c0.4-0.4,0.4-1,0.1-1.4
	c-0.1-0.1-0.1-0.2-0.2-0.3C94.5,15.1,94.3,14.9,94.2,14.7z"/>
<path d="M84,10.9c0.4-0.1,0.8,0.1,0.9,0.5l0.6,3.6c0.1,0.6-0.5,1-1,0.7l-4.1-2.4c-0.5-0.3-0.4-1.1,0.1-1.3L84,10.9z"/>
<path d="M85.3,17.4c0.5-0.1,1,0.1,1.3,0.5l0.1,0.1c0.3,0.3,0.3,0.8,0.1,1.2l-0.1,0.2c-0.2,0.3-0.6,0.5-1,0.6L85.2,20
	c-0.7,0.1-1.5,0-2.2-0.2c-0.5-0.1-0.9-0.4-1.3-0.7L81.6,19c-1.2-1.1-1.5-2.9-0.7-4.3l0.4-0.7l2.2,1.3l-0.3,0.5
	C83,16,83,16.4,83.1,16.7l0,0c0.2,0.5,0.7,0.8,1.2,0.8c0.1,0,0.2,0,0.3,0C84.8,17.5,85.1,17.5,85.3,17.4z"/>
<path d="M94,10.2c0,0.4-0.5,0.7-0.9,0.6l-3.6-0.9C89,9.7,88.8,9,89.3,8.6l3.9-2.7c0.5-0.3,1.1,0,1.1,0.6L94,10.2z"/>
<path d="M87.5,8.7c-0.1,0.5-0.5,0.9-1,1l-0.1,0c-0.4,0.1-0.9,0-1.1-0.4l-0.1-0.2C85,8.8,84.9,8.4,85,8l0.1-0.4
	c0.2-0.7,0.6-1.4,1.1-1.9C86.6,5.3,87,5,87.4,4.8l0.1-0.1c1.5-0.6,3.2-0.1,4.2,1.2l0.5,0.6l-2,1.4l-0.4-0.5C89.7,7.2,89.4,7,89.1,7
	l0,0c-0.5-0.1-1,0.2-1.2,0.7c0,0.1-0.1,0.2-0.1,0.3C87.6,8.2,87.5,8.5,87.5,8.7z"/>
</svg>
