<svg width="125" height="44" viewBox="0 0 125 44" fill="none" xmlns="http://www.w3.org/2000/svg">
<path d="M11.3261 39.7508C11.3261 42.5323 9.95863 43.8998 7.1771 43.8998H4.14904C1.36751 43.8998 0 42.5835 0 39.895V35.011H3.51645V40.7229H7.81433V32.569H4.15369C1.37216 32.569 0.00464883 31.2015 0.00464883 28.42V15.0891C0.00464883 12.3076 1.37216 10.9401 4.15369 10.9401H11.3308V39.7508H11.3261ZM3.5118 14.1077V29.3921H7.75852V14.1077H3.5118Z" fill="#064E40"/>
<path d="M17.8706 10.9354V11.768C18.2101 11.4238 18.6055 11.182 18.9962 11.0843C19.3358 10.9866 20.0242 10.9401 20.9963 10.9401H22.7034V14.1123H17.8706V32.5737H14.3541V10.9401H17.8706V10.9354Z" fill="#064E40"/>
<path d="M36.5273 28.5642C36.5273 31.248 35.1598 32.569 32.3783 32.569H29.3502C26.5687 32.569 25.2012 31.2015 25.2012 28.42V15.0891C25.2012 12.3076 26.5687 10.9401 29.3502 10.9401H32.3783C35.1598 10.9401 36.5273 12.2564 36.5273 14.9449V22.8569H28.713V29.4014H33.0109V24.1268H36.5273V28.5642ZM33.0109 19.6754V14.1077H28.713V19.6754H33.0109Z" fill="#064E40"/>
<path d="M51.0304 28.5642C51.0304 31.248 49.6629 32.569 46.8813 32.569H43.8533C41.0717 32.569 39.7042 31.2015 39.7042 28.42V15.0891C39.7042 12.3076 41.0717 10.9401 43.8533 10.9401H46.8813C49.6629 10.9401 51.0304 12.2564 51.0304 14.9449V22.8569H43.216V29.4014H47.5139V24.1268H51.0304V28.5642ZM47.5139 19.6754V14.1077H43.216V19.6754H47.5139Z" fill="#064E40"/>
<path d="M61.1424 10.9354C63.924 10.9354 65.2915 12.3029 65.2915 15.0845V32.569H61.775V14.1077H57.4771V32.569H53.9607V10.9354H61.1424V10.9354Z" fill="#064E40"/>
<path d="M72.3709 21.0429V28.9037H77.3013V21.1406C77.3013 20.4056 77.2548 19.9684 77.1571 19.773C77.0595 19.5777 76.8129 19.3823 76.4222 19.2335L70.9057 17.1357C70.0266 16.7962 69.4405 16.3078 69.1475 15.624C68.8544 14.9403 68.7056 13.7681 68.7056 12.1076V4.14903C68.7056 1.3675 70.0731 0 72.8546 0H76.8083C79.5945 0 80.9573 1.3675 80.9573 4.14903V11.6703H77.292V3.66064H72.3616V12.2564C72.3616 13.089 72.4081 13.5727 72.5569 13.7681C72.6546 13.9635 72.9476 14.1588 73.436 14.3542L78.4688 16.2101C79.4968 16.5496 80.1294 17.038 80.4689 17.6241C80.8085 18.2102 80.9573 19.187 80.9573 20.5545V28.4153C80.9573 31.2015 79.5898 32.5644 76.8083 32.5644H72.8546C70.0731 32.5644 68.7056 31.1969 68.7056 28.4153V21.0429H72.3709V21.0429Z" fill="#064E40"/>
<path d="M92.1998 19.6754V14.1077H87.9019V29.3921H92.1998V24.0198H95.7163V28.5595C95.7163 31.2434 94.3488 32.5644 91.5672 32.5644H88.5392C85.7577 32.5644 84.3901 31.1969 84.3901 28.4153V15.0845C84.3901 12.3029 85.7577 10.9354 88.5392 10.9354H91.5672C94.3534 10.9354 95.7163 12.2518 95.7163 14.9403V19.6754H92.1998V19.6754Z" fill="#064E40"/>
<path d="M98.5023 15.0845C98.5023 12.3029 99.8698 10.9354 102.651 10.9354H105.679C108.461 10.9354 109.828 12.3029 109.828 15.0845V32.569H102.651C99.8652 32.569 98.5023 31.2015 98.5023 28.42V23.8291C98.5023 21.0475 99.8698 19.68 102.651 19.68H106.312V14.1123H102.014V17.2846H98.4977V15.0845H98.5023ZM106.317 22.8523H102.019V29.3968H106.317V22.8523Z" fill="#064E40"/>
<path d="M119.941 10.9354C122.727 10.9354 124.09 12.3029 124.09 15.0845V32.569H120.573V14.1077H116.275V32.569H112.759V10.9354H119.941V10.9354Z" fill="#064E40"/>
<path d="M15.4427 33.8063H14.3311V43.1649H15.4427V33.8063Z" fill="#064E40"/>
<path d="M17.7729 33.8063H16.6613V43.1649H17.7729V33.8063Z" fill="#064E40"/>
<path d="M25.6197 33.8063H24.5081V43.1649H25.6197V33.8063Z" fill="#064E40"/>
<path d="M34.2157 33.8063H33.104V43.1649H34.2157V33.8063Z" fill="#064E40"/>
<path d="M36.267 33.8063H35.1553V43.1649H36.267V33.8063Z" fill="#064E40"/>
<path d="M50.1001 33.8063H48.9884V43.1649H50.1001V33.8063Z" fill="#064E40"/>
<path d="M58.3656 33.8063H57.2539V43.1649H58.3656V33.8063Z" fill="#064E40"/>
<path d="M66.1567 33.8063H65.045V43.1649H66.1567V33.8063Z" fill="#064E40"/>
<path d="M68.4684 33.8063H67.3567V43.1649H68.4684V33.8063Z" fill="#064E40"/>
<path d="M70.7662 33.8063H69.6545V43.1649H70.7662V33.8063Z" fill="#064E40"/>
<path d="M85.8691 33.8063H84.7574V43.1649H85.8691V33.8063Z" fill="#064E40"/>
<path d="M97.3117 33.8063H96.2001V43.1649H97.3117V33.8063Z" fill="#064E40"/>
<path d="M105.582 33.8063H104.47V43.1649H105.582V33.8063Z" fill="#064E40"/>
<path d="M121.476 33.8063H120.364V43.1649H121.476V33.8063Z" fill="#064E40"/>
<path d="M124.341 33.8063H123.229V43.1649H124.341V33.8063Z" fill="#064E40"/>
<path d="M23.3501 33.8063H21.2197V43.1649H23.3501V33.8063Z" fill="#064E40"/>
<path d="M47.5139 33.8063H45.3835V43.1649H47.5139V33.8063Z" fill="#064E40"/>
<path d="M55.7794 33.8063H53.649V43.1649H55.7794V33.8063Z" fill="#064E40"/>
<path d="M63.8869 33.8063H61.7566V43.1649H63.8869V33.8063Z" fill="#064E40"/>
<path d="M74.2223 33.8063H72.0919V43.1649H74.2223V33.8063Z" fill="#064E40"/>
<path d="M77.7201 33.8063H75.5897V43.1649H77.7201V33.8063Z" fill="#064E40"/>
<path d="M90.4368 33.8063H88.3065V43.1649H90.4368V33.8063Z" fill="#064E40"/>
<path d="M95.0463 33.8063H92.916V43.1649H95.0463V33.8063Z" fill="#064E40"/>
<path d="M114.601 33.8063H112.471V43.1649H114.601V33.8063Z" fill="#064E40"/>
<path d="M118.694 33.8063H116.564V43.1649H118.694V33.8063Z" fill="#064E40"/>
<path d="M31.634 33.8063H27.1035V43.1649H31.634V33.8063Z" fill="#064E40"/>
<path d="M41.9649 33.8063H37.4344V43.1649H41.9649V33.8063Z" fill="#064E40"/>
<path d="M83.6132 33.8063H80.1479V43.1649H83.6132V33.8063Z" fill="#064E40"/>
<path d="M102.373 33.8063H98.9072V43.1649H102.373V33.8063Z" fill="#064E40"/>
<path d="M111.275 33.8063H107.81V43.1649H111.275V33.8063Z" fill="#064E40"/>
</svg>
