<svg width="149" height="150" viewBox="0 0 149 150" fill="none" xmlns="http://www.w3.org/2000/svg">
<rect width="149" height="150" rx="18" fill="#064E40"/>
<path d="M63.6666 72.5L45.5833 82.8333V41.5L63.6666 31.1666M63.6666 72.5L84.3333 82.8333M63.6666 72.5V31.1666M84.3333 82.8333L102.417 72.5V31.1666L84.3333 41.5M84.3333 82.8333V41.5M84.3333 41.5L63.6666 31.1666" stroke="white" stroke-width="5" stroke-linecap="round" stroke-linejoin="round"/>
<path d="M40.1426 107H41.5371L43.2803 101.121H43.3623L45.1055 107H46.5L48.7764 98.9131H47.2451L45.7822 105.059H45.6934L43.9844 98.9131H42.6582L40.9629 105.059H40.8809L39.4043 98.9131H37.8662L40.1426 107ZM50.3691 107H51.8457V103.466H56.0156V107H57.499V98.9131H56.0156V102.29H51.8457V98.9131H50.3691V107ZM59.6387 107H65.1143V105.831H61.1152V103.445H64.8955V102.331H61.1152V100.082H65.1143V98.9131H59.6387V107ZM67.0215 107H68.498V103.931H70.2139L71.8955 107H73.5908L71.7314 103.719C72.7363 103.384 73.3379 102.495 73.3379 101.422V101.408C73.3379 99.8838 72.2441 98.9131 70.4326 98.9131H67.0215V107ZM68.498 102.851V100.041H70.248C71.2188 100.041 71.8135 100.581 71.8135 101.442V101.456C71.8135 102.338 71.2461 102.851 70.2822 102.851H68.498ZM75.2109 107H80.6865V105.831H76.6875V103.445H80.4678V102.331H76.6875V100.082H80.6865V98.9131H75.2109V107ZM89.9561 107.198C91.9043 107.198 93.3125 106.132 93.5381 104.546L93.5312 104.505H92.082L92.0684 104.532C91.8496 105.428 91.043 105.995 89.9561 105.995C88.4932 105.995 87.584 104.826 87.584 102.96V102.946C87.584 101.08 88.4932 99.918 89.9492 99.918C91.0293 99.918 91.8496 100.547 92.0752 101.518L92.082 101.545H93.5312L93.5381 101.497C93.333 99.8701 91.877 98.7148 89.9492 98.7148C87.5566 98.7148 86.0732 100.335 86.0732 102.953V102.967C86.0732 105.578 87.5635 107.198 89.9561 107.198ZM94.3789 107H95.9375L96.6621 104.874H99.8066L100.531 107H102.09L99.0615 98.9131H97.4004L94.3789 107ZM98.1797 100.39H98.2822L99.4443 103.794H97.0244L98.1797 100.39ZM103.566 107H104.995V101.319H105.077L109.295 107H110.587V98.9131H109.158V104.587H109.076L104.858 98.9131H103.566V107ZM40.9014 123H42.3779V114.913H40.9014V123ZM48.3389 123H49.8154V119.931H51.5312L53.2129 123H54.9082L53.0488 119.719C54.0537 119.384 54.6553 118.495 54.6553 117.422V117.408C54.6553 115.884 53.5615 114.913 51.75 114.913H48.3389V123ZM49.8154 118.851V116.041H51.5654C52.5361 116.041 53.1309 116.581 53.1309 117.442V117.456C53.1309 118.338 52.5635 118.851 51.5996 118.851H49.8154ZM56.5283 123H62.0039V121.831H58.0049V119.445H61.7852V118.331H58.0049V116.082H62.0039V114.913H56.5283V123ZM67.4453 123.198C69.3936 123.198 70.8018 122.132 71.0273 120.546L71.0205 120.505H69.5713L69.5576 120.532C69.3389 121.428 68.5322 121.995 67.4453 121.995C65.9824 121.995 65.0732 120.826 65.0732 118.96V118.946C65.0732 117.08 65.9824 115.918 67.4385 115.918C68.5186 115.918 69.3389 116.547 69.5645 117.518L69.5713 117.545H71.0205L71.0273 117.497C70.8223 115.87 69.3662 114.715 67.4385 114.715C65.0459 114.715 63.5625 116.335 63.5625 118.953V118.967C63.5625 121.578 65.0527 123.198 67.4453 123.198ZM74.9033 123H76.3936V119.767L79.3672 114.913H77.7402L75.7031 118.406H75.6006L73.5498 114.913H71.9229L74.9033 119.767V123ZM83.9746 123.198C85.9229 123.198 87.3311 122.132 87.5566 120.546L87.5498 120.505H86.1006L86.0869 120.532C85.8682 121.428 85.0615 121.995 83.9746 121.995C82.5117 121.995 81.6025 120.826 81.6025 118.96V118.946C81.6025 117.08 82.5117 115.918 83.9678 115.918C85.0479 115.918 85.8682 116.547 86.0938 117.518L86.1006 117.545H87.5498L87.5566 117.497C87.3516 115.87 85.8955 114.715 83.9678 114.715C81.5752 114.715 80.0918 116.335 80.0918 118.953V118.967C80.0918 121.578 81.582 123.198 83.9746 123.198ZM89.2861 123H94.6729V121.831H90.7627V114.913H89.2861V123ZM96.3408 123H101.816V121.831H97.8174V119.445H101.598V118.331H97.8174V116.082H101.816V114.913H96.3408V123ZM104.961 120.45H106.294V120.115C106.294 119.555 106.513 119.261 107.285 118.837C108.078 118.386 108.529 117.777 108.529 116.93V116.916C108.529 115.699 107.463 114.817 105.856 114.817C104.12 114.817 103.163 115.774 103.122 117.073V117.08H104.469L104.476 117.073C104.523 116.369 105.016 115.918 105.781 115.918C106.533 115.918 107.032 116.362 107.032 116.964V116.978C107.032 117.531 106.793 117.846 106.062 118.263C105.255 118.714 104.906 119.22 104.954 120.033L104.961 120.45ZM105.699 123.103C106.287 123.103 106.663 122.761 106.663 122.234C106.663 121.715 106.287 121.373 105.699 121.373C105.118 121.373 104.735 121.715 104.735 122.234C104.735 122.761 105.118 123.103 105.699 123.103Z" fill="white"/>
</svg>
