<svg width="30" height="24" viewBox="0 0 30 24" fill="none" xmlns="http://www.w3.org/2000/svg">
<path d="M2.2196 13.1878C2.8932 13.1878 3.4392 12.5815 3.4392 11.8337C3.4392 11.0858 2.8932 10.4795 2.2196 10.4795C1.546 10.4795 1 11.0858 1 11.8337C1 12.5815 1.546 13.1878 2.2196 13.1878Z" stroke="#424753" stroke-width="2" stroke-linecap="round" stroke-linejoin="round"/>
<path d="M2.2196 3.7083C2.8932 3.7083 3.4392 3.1021 3.4392 2.3542C3.4392 1.6063 2.8932 1 2.2196 1C1.546 1 1 1.6063 1 2.3542C1 3.1021 1.546 3.7083 2.2196 3.7083Z" stroke="#424753" stroke-width="2" stroke-linecap="round" stroke-linejoin="round"/>
<path d="M2.2196 22.6663C2.8932 22.6663 3.4392 22.0601 3.4392 21.3122C3.4392 20.5643 2.8932 19.958 2.2196 19.958C1.546 19.958 1 20.5643 1 21.3122C1 22.0601 1.546 22.6663 2.2196 22.6663Z" stroke="#424753" stroke-width="2" stroke-linecap="round" stroke-linejoin="round"/>
<path d="M6.46436 11.833H28.4172" stroke="#424753" stroke-width="2" stroke-linecap="round" stroke-linejoin="round"/>
<path d="M6.46411 3.70801H28.4169" stroke="#424753" stroke-width="2" stroke-linecap="round" stroke-linejoin="round"/>
<path d="M6.46436 19.958H28.4172" stroke="#424753" stroke-width="2" stroke-linecap="round" stroke-linejoin="round"/>
</svg>
