<svg width="335" height="56" viewBox="0 0 335 56" fill="none" xmlns="http://www.w3.org/2000/svg">
<rect width="335" height="56" rx="14" fill="#064E40"/>
<path d="M37.7871 38.7761L31.9548 32.9437C33.5193 31.145 34.4665 28.7982 34.4665 26.2333C34.4665 20.5871 29.8741 16 24.2333 16C18.5871 16 14 20.5925 14 26.2333C14 31.8741 18.5925 36.4665 24.2333 36.4665C26.7982 36.4665 29.145 35.5193 30.9437 33.9548L36.7761 39.7871C36.9144 39.9255 37.1007 40 37.2816 40C37.4625 40 37.6488 39.9308 37.7871 39.7871C38.0639 39.5104 38.0639 39.0528 37.7871 38.7761ZM15.4315 26.2333C15.4315 21.38 19.38 17.4368 24.2279 17.4368C29.0812 17.4368 33.0244 21.3854 33.0244 26.2333C33.0244 31.0812 29.0812 35.035 24.2279 35.035C19.38 35.035 15.4315 31.0865 15.4315 26.2333Z" fill="white"/>
<path d="M55.4322 35H56.8384V30.1172H61.8306V28.8672H56.8384V24.9922H62.2759V23.7266H55.4322V35ZM64.7273 24.9531C65.2429 24.9531 65.6648 24.5312 65.6648 24.0156C65.6648 23.5 65.2429 23.0781 64.7273 23.0781C64.2117 23.0781 63.7898 23.5 63.7898 24.0156C63.7898 24.5312 64.2117 24.9531 64.7273 24.9531ZM64.0398 35H65.3992V26.5781H64.0398V35ZM67.5537 35H68.9131V30.0156C68.9131 28.5391 69.7646 27.6328 71.1084 27.6328C72.4521 27.6328 73.0771 28.3594 73.0771 29.875V35H74.4365V29.5469C74.4365 27.5469 73.3818 26.4297 71.4912 26.4297C70.249 26.4297 69.4599 26.9531 69.0381 27.8438H68.9131V26.5781H67.5537V35ZM79.5988 35.1484C80.7707 35.1484 81.7082 34.5938 82.2238 33.6562H82.3488V35H83.7082V23.2344H82.3488V27.9062H82.2238C81.7629 27.0078 80.7551 26.4297 79.5988 26.4297C77.4582 26.4297 76.0676 28.1406 76.0676 30.7812V30.7969C76.0676 33.4219 77.466 35.1484 79.5988 35.1484ZM79.9113 33.9453C78.3723 33.9453 77.4582 32.7578 77.4582 30.7969V30.7812C77.4582 28.8203 78.3723 27.6328 79.9113 27.6328C81.4426 27.6328 82.3801 28.8359 82.3801 30.7812V30.7969C82.3801 32.7422 81.4426 33.9453 79.9113 33.9453ZM90.0797 35H91.4391V23.2344H90.0797V35ZM97.1014 35.1484C99.4998 35.1484 100.984 33.4922 100.984 30.7969V30.7812C100.984 28.0781 99.4998 26.4297 97.1014 26.4297C94.7029 26.4297 93.2186 28.0781 93.2186 30.7812V30.7969C93.2186 33.4922 94.7029 35.1484 97.1014 35.1484ZM97.1014 33.9453C95.5076 33.9453 94.6092 32.7812 94.6092 30.7969V30.7812C94.6092 28.7891 95.5076 27.6328 97.1014 27.6328C98.6951 27.6328 99.5936 28.7891 99.5936 30.7812V30.7969C99.5936 32.7812 98.6951 33.9453 97.1014 33.9453ZM106.131 35.1484C108.154 35.1484 109.287 34.0625 109.631 32.5391L109.647 32.4531L108.303 32.4609L108.287 32.5078C107.975 33.4453 107.256 33.9453 106.123 33.9453C104.623 33.9453 103.654 32.7031 103.654 30.7656V30.75C103.654 28.8516 104.607 27.6328 106.123 27.6328C107.334 27.6328 108.084 28.3047 108.295 29.1328L108.303 29.1562H109.654L109.647 29.1094C109.397 27.6094 108.17 26.4297 106.123 26.4297C103.764 26.4297 102.264 28.1328 102.264 30.75V30.7656C102.264 33.4375 103.772 35.1484 106.131 35.1484ZM113.543 35.1484C114.676 35.1484 115.559 34.6562 116.09 33.7578H116.215V35H117.574V29.2344C117.574 27.4844 116.426 26.4297 114.371 26.4297C112.574 26.4297 111.293 27.3203 111.074 28.6406L111.067 28.6875H112.426L112.434 28.6641C112.653 28.0078 113.317 27.6328 114.324 27.6328C115.582 27.6328 116.215 28.1953 116.215 29.2344V30L113.801 30.1484C111.84 30.2656 110.731 31.1328 110.731 32.6328V32.6484C110.731 34.1797 111.942 35.1484 113.543 35.1484ZM112.121 32.6172V32.6016C112.121 31.7656 112.684 31.3125 113.965 31.2344L116.215 31.0938V31.8594C116.215 33.0625 115.207 33.9688 113.824 33.9688C112.848 33.9688 112.121 33.4688 112.121 32.6172ZM119.729 35H121.088V23.2344H119.729V35ZM127.382 35H128.741V29.7812C128.741 28.5469 129.663 27.7266 130.96 27.7266C131.257 27.7266 131.515 27.7578 131.796 27.8047V26.4844C131.663 26.4609 131.374 26.4297 131.116 26.4297C129.975 26.4297 129.186 26.9453 128.866 27.8281H128.741V26.5781H127.382V35ZM136.271 35.1484C138.255 35.1484 139.458 34.0234 139.747 32.8828L139.763 32.8203H138.403L138.372 32.8906C138.146 33.3984 137.442 33.9375 136.302 33.9375C134.802 33.9375 133.841 32.9219 133.802 31.1797H139.864V30.6484C139.864 28.1328 138.474 26.4297 136.185 26.4297C133.896 26.4297 132.411 28.2109 132.411 30.8125V30.8203C132.411 33.4609 133.864 35.1484 136.271 35.1484ZM136.177 27.6406C137.419 27.6406 138.341 28.4297 138.482 30.0938H133.825C133.974 28.4922 134.927 27.6406 136.177 27.6406ZM145.011 35.1484C147.034 35.1484 148.167 34.0625 148.511 32.5391L148.527 32.4531L147.183 32.4609L147.167 32.5078C146.855 33.4453 146.136 33.9453 145.003 33.9453C143.503 33.9453 142.534 32.7031 142.534 30.7656V30.75C142.534 28.8516 143.488 27.6328 145.003 27.6328C146.214 27.6328 146.964 28.3047 147.175 29.1328L147.183 29.1562H148.534L148.527 29.1094C148.277 27.6094 147.05 26.4297 145.003 26.4297C142.644 26.4297 141.144 28.1328 141.144 30.75V30.7656C141.144 33.4375 142.652 35.1484 145.011 35.1484ZM150.83 37.9531C152.322 37.9531 153.017 37.4062 153.712 35.5156L157.001 26.5781H155.572L153.267 33.5078H153.142L150.83 26.5781H149.376L152.494 35.0078L152.337 35.5078C152.033 36.4766 151.564 36.8281 150.791 36.8281C150.603 36.8281 150.392 36.8203 150.228 36.7891V37.9062C150.416 37.9375 150.65 37.9531 150.83 37.9531ZM161.523 35.1484C163.547 35.1484 164.679 34.0625 165.023 32.5391L165.039 32.4531L163.695 32.4609L163.679 32.5078C163.367 33.4453 162.648 33.9453 161.515 33.9453C160.015 33.9453 159.047 32.7031 159.047 30.7656V30.75C159.047 28.8516 160 27.6328 161.515 27.6328C162.726 27.6328 163.476 28.3047 163.687 29.1328L163.695 29.1562H165.047L165.039 29.1094C164.789 27.6094 163.562 26.4297 161.515 26.4297C159.156 26.4297 157.656 28.1328 157.656 30.75V30.7656C157.656 33.4375 159.164 35.1484 161.523 35.1484ZM166.701 35H168.06V23.2344H166.701V35ZM170.981 24.9531C171.496 24.9531 171.918 24.5312 171.918 24.0156C171.918 23.5 171.496 23.0781 170.981 23.0781C170.465 23.0781 170.043 23.5 170.043 24.0156C170.043 24.5312 170.465 24.9531 170.981 24.9531ZM170.293 35H171.652V26.5781H170.293V35ZM173.807 35H175.166V30.0156C175.166 28.5391 176.018 27.6328 177.362 27.6328C178.705 27.6328 179.33 28.3594 179.33 29.875V35H180.69V29.5469C180.69 27.5469 179.635 26.4297 177.744 26.4297C176.502 26.4297 175.713 26.9531 175.291 27.8438H175.166V26.5781H173.807V35ZM186.211 37.9688C188.508 37.9688 189.961 36.7656 189.961 34.8828V26.5781H188.602V27.9688H188.508C187.993 27.0156 187.071 26.4297 185.883 26.4297C183.68 26.4297 182.321 28.1406 182.321 30.5V30.5156C182.321 32.875 183.672 34.5625 185.852 34.5625C187.008 34.5625 187.961 34.0391 188.493 33.1094H188.618V34.8125C188.618 36.0547 187.719 36.7656 186.211 36.7656C185.001 36.7656 184.251 36.3125 184.102 35.6719L184.094 35.6641H182.688L182.672 35.6719C182.883 37.0547 184.18 37.9688 186.211 37.9688ZM186.149 33.3594C184.586 33.3594 183.711 32.1875 183.711 30.5156V30.5C183.711 28.8281 184.586 27.6328 186.149 27.6328C187.704 27.6328 188.649 28.8281 188.649 30.5V30.5156C188.649 32.1875 187.711 33.3594 186.149 33.3594ZM199.622 35.1484C201.645 35.1484 202.778 34.0625 203.122 32.5391L203.138 32.4531L201.794 32.4609L201.778 32.5078C201.466 33.4453 200.747 33.9453 199.614 33.9453C198.114 33.9453 197.145 32.7031 197.145 30.7656V30.75C197.145 28.8516 198.099 27.6328 199.614 27.6328C200.825 27.6328 201.575 28.3047 201.786 29.1328L201.794 29.1562H203.145L203.138 29.1094C202.888 27.6094 201.661 26.4297 199.614 26.4297C197.255 26.4297 195.755 28.1328 195.755 30.75V30.7656C195.755 33.4375 197.263 35.1484 199.622 35.1484ZM208.159 35.1484C210.144 35.1484 211.347 34.0234 211.636 32.8828L211.652 32.8203H210.292L210.261 32.8906C210.034 33.3984 209.331 33.9375 208.191 33.9375C206.691 33.9375 205.73 32.9219 205.691 31.1797H211.753V30.6484C211.753 28.1328 210.362 26.4297 208.073 26.4297C205.784 26.4297 204.3 28.2109 204.3 30.8125V30.8203C204.3 33.4609 205.753 35.1484 208.159 35.1484ZM208.066 27.6406C209.308 27.6406 210.23 28.4297 210.37 30.0938H205.714C205.862 28.4922 206.816 27.6406 208.066 27.6406ZM213.454 35H214.814V30.0156C214.814 28.5391 215.665 27.6328 217.009 27.6328C218.353 27.6328 218.978 28.3594 218.978 29.875V35H220.337V29.5469C220.337 27.5469 219.283 26.4297 217.392 26.4297C216.15 26.4297 215.361 26.9531 214.939 27.8438H214.814V26.5781H213.454V35ZM225.382 35.0625C225.648 35.0625 225.906 35.0312 226.171 34.9844V33.8281C225.921 33.8516 225.789 33.8594 225.546 33.8594C224.671 33.8594 224.328 33.4609 224.328 32.4688V27.7031H226.171V26.5781H224.328V24.3984H222.921V26.5781H221.593V27.7031H222.921V32.8125C222.921 34.4219 223.648 35.0625 225.382 35.0625ZM231.107 35.1484C233.092 35.1484 234.295 34.0234 234.584 32.8828L234.599 32.8203H233.24L233.209 32.8906C232.982 33.3984 232.279 33.9375 231.138 33.9375C229.638 33.9375 228.678 32.9219 228.638 31.1797H234.701V30.6484C234.701 28.1328 233.31 26.4297 231.021 26.4297C228.732 26.4297 227.248 28.2109 227.248 30.8125V30.8203C227.248 33.4609 228.701 35.1484 231.107 35.1484ZM231.013 27.6406C232.256 27.6406 233.178 28.4297 233.318 30.0938H228.662C228.81 28.4922 229.763 27.6406 231.013 27.6406ZM236.402 35H237.762V29.7812C237.762 28.5469 238.684 27.7266 239.98 27.7266C240.277 27.7266 240.535 27.7578 240.816 27.8047V26.4844C240.684 26.4609 240.395 26.4297 240.137 26.4297C238.996 26.4297 238.207 26.9453 237.887 27.8281H237.762V26.5781H236.402V35Z" fill="white"/>
</svg>
