<svg width="149" height="150" viewBox="0 0 149 150" fill="none" xmlns="http://www.w3.org/2000/svg">
<rect width="149" height="150" rx="18" fill="#064E40"/>
<path d="M23.9346 104H25.3291L27.0723 98.1211H27.1543L28.8975 104H30.292L32.5684 95.9131H31.0371L29.5742 102.059H29.4854L27.7764 95.9131H26.4502L24.7549 102.059H24.6729L23.1963 95.9131H21.6582L23.9346 104ZM34.1611 104H35.6377V100.466H39.8076V104H41.291V95.9131H39.8076V99.29H35.6377V95.9131H34.1611V104ZM42.7744 104H44.333L45.0576 101.874H48.2021L48.9268 104H50.4854L47.457 95.9131H45.7959L42.7744 104ZM46.5752 97.3896H46.6777L47.8398 100.794H45.4199L46.5752 97.3896ZM53.1514 104H54.6348V97.082H57.2598V95.9131H50.5264V97.082H53.1514V104ZM62.708 104H65.873C68.4092 104 69.8652 102.517 69.8652 99.9326V99.9189C69.8652 97.3828 68.3955 95.9131 65.873 95.9131H62.708V104ZM64.1846 102.831V97.082H65.6748C67.3564 97.082 68.3545 98.1348 68.3545 99.9463V99.9531C68.3545 101.785 67.377 102.831 65.6748 102.831H64.1846ZM75.3066 104.198C77.7812 104.198 79.3125 102.558 79.3125 99.96V99.9531C79.3125 97.3486 77.7744 95.7148 75.3066 95.7148C72.8457 95.7148 71.3008 97.3418 71.3008 99.9531V99.96C71.3008 102.558 72.8184 104.198 75.3066 104.198ZM75.3135 102.995C73.7617 102.995 72.8115 101.799 72.8115 99.96V99.9463C72.8115 98.0938 73.7822 96.9111 75.3135 96.9111C76.8311 96.9111 77.8086 98.0938 77.8086 99.9463V99.96C77.8086 101.799 76.8379 102.995 75.3135 102.995ZM81.0967 104H86.5723V102.831H82.5732V100.445H86.3535V99.3311H82.5732V97.082H86.5723V95.9131H81.0967V104ZM91.4053 104.198C93.4287 104.198 94.707 103.221 94.707 101.662V101.655C94.707 100.438 93.9551 99.7549 92.1709 99.3926L91.2617 99.2012C90.1953 98.9893 89.7578 98.6201 89.7578 98.0322C89.7578 97.3145 90.4414 96.8906 91.3916 96.8838C92.376 96.877 93.0049 97.3418 93.1143 97.9775L93.1279 98.0459H94.5498L94.543 97.9775C94.4404 96.6924 93.2646 95.7148 91.4053 95.7148C89.5732 95.7148 88.2676 96.6855 88.2676 98.1143V98.1211C88.2676 99.3242 89.0195 100.09 90.7559 100.438L91.6719 100.623C92.7725 100.849 93.2168 101.218 93.2168 101.819C93.2168 102.53 92.4854 103.029 91.4531 103.029C90.3662 103.029 89.6006 102.571 89.5254 101.874L89.5186 101.812H88.0762L88.083 101.895C88.1924 103.275 89.4434 104.198 91.4053 104.198ZM102.37 104H103.854V97.082H106.479V95.9131H99.7451V97.082H102.37V104ZM108.099 104H109.575V100.466H113.745V104H115.229V95.9131H113.745V99.29H109.575V95.9131H108.099V104ZM117.368 104H118.845V95.9131H117.368V104ZM123.903 104.198C125.927 104.198 127.205 103.221 127.205 101.662V101.655C127.205 100.438 126.453 99.7549 124.669 99.3926L123.76 99.2012C122.693 98.9893 122.256 98.6201 122.256 98.0322C122.256 97.3145 122.939 96.8906 123.89 96.8838C124.874 96.877 125.503 97.3418 125.612 97.9775L125.626 98.0459H127.048L127.041 97.9775C126.938 96.6924 125.763 95.7148 123.903 95.7148C122.071 95.7148 120.766 96.6855 120.766 98.1143V98.1211C120.766 99.3242 121.518 100.09 123.254 100.438L124.17 100.623C125.271 100.849 125.715 101.218 125.715 101.819C125.715 102.53 124.983 103.029 123.951 103.029C122.864 103.029 122.099 102.571 122.023 101.874L122.017 101.812H120.574L120.581 101.895C120.69 103.275 121.941 104.198 123.903 104.198ZM26.0742 120H27.5029V114.319H27.585L31.8027 120H33.0947V111.913H31.666V117.587H31.584L27.3662 111.913H26.0742V120ZM38.707 120.198C40.8604 120.198 42.1797 118.995 42.1797 117.218V111.913H40.6963V117.102C40.6963 118.243 39.9854 118.995 38.707 118.995C37.4219 118.995 36.7041 118.243 36.7041 117.102V111.913H35.2207V117.218C35.2207 118.995 36.5605 120.198 38.707 120.198ZM44.2988 120H45.6318V114.189H45.7275L48.1133 120H49.1387L51.5312 114.189H51.6201V120H52.9531V111.913H51.2578L48.6807 118.216H48.5781L45.9941 111.913H44.2988V120ZM55.0859 120H58.6885C60.5 120 61.6006 119.125 61.6006 117.71V117.703C61.6006 116.65 60.8213 115.871 59.6797 115.762V115.666C60.5273 115.536 61.1904 114.777 61.1904 113.937V113.923C61.1904 112.686 60.2197 111.913 58.5996 111.913H55.0859V120ZM58.2441 113C59.1807 113 59.7207 113.431 59.7207 114.162V114.176C59.7207 114.928 59.1396 115.331 58.0459 115.331H56.5625V113H58.2441ZM58.292 116.336C59.4678 116.336 60.083 116.767 60.083 117.607V117.621C60.083 118.462 59.4883 118.913 58.3535 118.913H56.5625V116.336H58.292ZM63.2891 120H68.7646V118.831H64.7656V116.445H68.5459V115.331H64.7656V113.082H68.7646V111.913H63.2891V120ZM70.6719 120H72.1484V116.931H73.8643L75.5459 120H77.2412L75.3818 116.719C76.3867 116.384 76.9883 115.495 76.9883 114.422V114.408C76.9883 112.884 75.8945 111.913 74.083 111.913H70.6719V120ZM72.1484 115.851V113.041H73.8984C74.8691 113.041 75.4639 113.581 75.4639 114.442V114.456C75.4639 115.338 74.8965 115.851 73.9326 115.851H72.1484ZM82.6895 120H84.0225V114.189H84.1182L86.5039 120H87.5293L89.9219 114.189H90.0107V120H91.3438V111.913H89.6484L87.0713 118.216H86.9688L84.3848 111.913H82.6895V120ZM93.4766 120H98.9521V118.831H94.9531V116.445H98.7334V115.331H94.9531V113.082H98.9521V111.913H93.4766V120ZM100.203 120H101.762L102.486 117.874H105.631L106.355 120H107.914L104.886 111.913H103.225L100.203 120ZM104.004 113.39H104.106L105.269 116.794H102.849L104.004 113.39ZM109.391 120H110.819V114.319H110.901L115.119 120H116.411V111.913H114.982V117.587H114.9L110.683 111.913H109.391V120ZM119.788 117.45H121.121V117.115C121.121 116.555 121.34 116.261 122.112 115.837C122.905 115.386 123.356 114.777 123.356 113.93V113.916C123.356 112.699 122.29 111.817 120.684 111.817C118.947 111.817 117.99 112.774 117.949 114.073V114.08H119.296L119.303 114.073C119.351 113.369 119.843 112.918 120.608 112.918C121.36 112.918 121.859 113.362 121.859 113.964V113.978C121.859 114.531 121.62 114.846 120.889 115.263C120.082 115.714 119.733 116.22 119.781 117.033L119.788 117.45ZM120.526 120.103C121.114 120.103 121.49 119.761 121.49 119.234C121.49 118.715 121.114 118.373 120.526 118.373C119.945 118.373 119.562 118.715 119.562 119.234C119.562 119.761 119.945 120.103 120.526 120.103Z" fill="white"/>
<path d="M83.8629 47.6454C85.8495 49.0601 88.6 47.6086 88.5531 45.1701L88.4861 41.6868C88.4713 40.9141 87.6193 40.4528 86.9641 40.8627C86.4808 41.165 85.8429 41.0002 85.567 40.5014C84.4528 38.4871 81.8616 33.7939 81.4671 33.0009C80.8836 31.856 80.1128 30.5812 78.8823 29.5188C78.5578 29.2523 78.2171 29.0083 77.8624 28.7884C77.4709 28.5692 77.0592 28.3927 76.6335 28.2616C75.7341 27.9677 74.7781 27.9206 73.8564 28.1246C72.9134 28.3002 72.1243 28.7655 71.4053 29.2554C70.7503 29.7615 70.1623 30.3567 69.6565 31.0254C69.4122 31.3335 69.1887 31.6591 68.9877 32C68.7837 32.3336 68.5765 32.6778 68.436 32.9465C68.1184 33.5224 67.8057 34.0931 67.4914 34.662C66.8661 35.7981 66.2542 36.9149 65.6523 37.9983L62.3986 43.9141C61.4719 45.6027 60.6933 47.0171 60.1389 48.0229C59.6268 48.9518 59.9386 50.1187 60.8457 50.6687C61.8066 51.2512 63.0593 50.9162 63.6011 49.9318L65.7843 45.9651C66.7356 44.2337 67.8475 42.2144 69.0362 40.0493C69.6314 38.9676 70.2434 37.8508 70.867 36.713C71.183 36.1458 71.4956 35.5734 71.8133 34.9974C71.9805 34.6848 72.1142 34.4706 72.2513 34.2441C72.3825 34.0188 72.5301 33.8046 72.6928 33.6032C72.9751 33.2279 73.3008 32.8911 73.6624 32.6005C73.9968 32.3933 74.3313 32.1756 74.6322 32.1457C74.9259 32.075 75.2323 32.0902 75.5183 32.1896C75.6762 32.2386 75.8291 32.3039 75.9747 32.3846C76.1323 32.4874 76.2846 32.5988 76.4312 32.7182C77.0465 33.245 77.5698 34.0316 78.0078 34.9008C78.3954 35.685 80.9837 40.3719 82.1407 42.4625C82.452 43.0251 82.2611 43.7308 81.7102 44.0622C80.9734 44.5055 80.9327 45.5587 81.6331 46.0575L83.8629 47.6454Z" fill="white"/>
<path d="M83.0224 75.2489C81.0145 76.3063 80.9358 79.153 82.8823 80.3196L85.7688 82.0496C86.4616 82.4648 87.3412 81.9591 87.3309 81.1515C87.3236 80.5782 87.7826 80.109 88.3559 80.1072C90.5199 80.1005 95.3791 80.09 96.1862 80.1265C97.3729 80.1701 98.752 80.1055 100.181 79.5189C100.548 79.3596 100.904 79.1729 101.247 78.9603C101.611 78.7181 101.949 78.4349 102.258 78.1153C102.922 77.4475 103.419 76.6063 103.701 75.6713C104.022 74.7338 104.022 73.7876 103.982 72.892C103.896 72.048 103.707 71.2202 103.42 70.4305C103.296 70.0548 103.146 69.6895 102.973 69.3376C102.813 68.9885 102.636 68.6271 102.492 68.367C102.187 67.7932 101.886 67.2241 101.589 66.6596C100.989 65.5301 100.399 64.418 99.825 63.3427L94.6202 53.5465C94.1006 52.5684 92.8604 52.2364 91.9215 52.8239C91.0724 53.3553 90.7783 54.4525 91.2481 55.3372C91.7815 56.3419 92.5449 57.7795 93.4614 59.5055L96.579 65.3852C97.1499 66.4606 97.7385 67.5709 98.3431 68.7022C98.643 69.2695 98.9429 69.8387 99.2476 70.4113C99.416 70.7115 99.5202 70.935 99.6325 71.1812C99.7489 71.4113 99.8482 71.6512 99.9292 71.8987C100.089 72.3412 100.197 72.804 100.25 73.2761C100.25 73.6846 100.268 74.0879 100.144 74.3777C100.08 74.6089 99.9716 74.8215 99.8262 75.0015C99.7393 75.1091 99.6544 75.2117 99.5442 75.2952C99.3927 75.4101 99.224 75.5181 99.0571 75.6092C98.9847 75.6487 98.9103 75.6872 98.8291 75.7202C98.1122 76.0117 97.2462 76.0955 96.3465 76.0693C95.552 76.0307 90.7264 76.0398 88.4761 76.0463C87.838 76.0481 87.3225 75.5315 87.3225 74.8934C87.3225 74.0263 86.4007 73.4699 85.6335 73.8739L83.0224 75.2489Z" fill="white"/>
<path d="M57.3601 58.7101C57.526 56.3042 54.8815 54.7352 52.8495 56.034L50.2888 57.6706C49.6193 58.0986 49.6361 59.0822 50.3199 59.487C50.813 59.7789 50.9877 60.4076 50.7146 60.9113C49.6326 62.9075 47.0937 67.583 46.6445 68.3319C45.9982 69.4226 45.3453 70.7517 45.092 72.3869C45.0315 72.8107 45.0008 73.2386 45 73.6672C45.01 74.1289 45.0651 74.5883 45.1644 75.038C45.3692 75.9935 45.801 76.8779 46.4192 77.6074C47.0227 78.3728 47.7873 78.8495 48.5454 79.2565C49.2805 79.5949 50.0547 79.8288 50.8477 79.9524C51.2185 80.0198 51.5933 80.0605 51.9693 80.0742C52.3393 80.0933 52.7225 80.1107 53.0086 80.1037H69.0828C70.203 80.1037 71.1112 79.1956 71.1112 78.0754C71.1112 76.9551 70.203 76.047 69.0828 76.047H53.0136C52.6847 76.047 52.4397 76.0348 52.1913 76.0244C51.9447 76.0173 51.6989 75.9899 51.4562 75.9426C51.0126 75.8746 50.5789 75.7478 50.1653 75.5651C50.123 75.5392 50.0804 75.5135 50.0381 75.4879C49.5122 75.1703 49.0361 74.7024 48.922 74.0987C48.8816 73.9326 48.859 73.7621 48.8547 73.5907C48.8594 73.3969 48.8742 73.2035 48.8991 73.0114C49.0273 72.1955 49.4039 71.3379 49.8858 70.5116C50.3316 69.7739 52.8593 65.1237 53.9868 63.045C54.2826 62.4997 54.9743 62.3167 55.5028 62.6417C56.1948 63.0673 57.0915 62.6059 57.1474 61.7954L57.3601 58.7101Z" fill="white"/>
<path d="M71.112 52.632C71.64 52.328 72.2 52.104 72.792 51.96C73.4 51.8 74 51.72 74.592 51.72C75.536 51.72 76.376 51.88 77.112 52.2C77.848 52.52 78.416 52.976 78.816 53.568C79.216 54.144 79.416 54.816 79.416 55.584C79.416 56.432 79.224 57.176 78.84 57.816C78.456 58.44 77.888 59.152 77.136 59.952C76.464 60.688 75.952 61.328 75.6 61.872C75.248 62.416 75.032 63.032 74.952 63.72L74.856 64.272H73.44V63.504C73.44 62.56 73.608 61.76 73.944 61.104C74.28 60.432 74.768 59.696 75.408 58.896C75.92 58.256 76.296 57.72 76.536 57.288C76.792 56.84 76.92 56.336 76.92 55.776C76.92 55.152 76.704 54.664 76.272 54.312C75.84 53.944 75.232 53.76 74.448 53.76C73.328 53.76 72.216 54.096 71.112 54.768V52.632ZM72.744 66.12H75.6V69H72.744V66.12Z" fill="white"/>
</svg>
