<svg width="59" height="55" viewBox="0 0 59 55" fill="none" xmlns="http://www.w3.org/2000/svg">
<path d="M38.8629 19.6454C40.8495 21.0601 43.6 19.6086 43.5531 17.1701L43.4861 13.6868C43.4713 12.9141 42.6193 12.4528 41.9641 12.8627C41.4808 13.165 40.8429 13.0002 40.567 12.5014C39.4528 10.4871 36.8616 5.79389 36.4671 5.00089C35.8836 3.85599 35.1128 2.58119 33.8823 1.51879C33.5578 1.25229 33.2171 1.00829 32.8624 0.788392C32.4709 0.569192 32.0592 0.392691 31.6335 0.261591C30.7341 -0.0323085 29.7781 -0.0794096 28.8564 0.12459C27.9134 0.30019 27.1243 0.765491 26.4053 1.25539C25.7503 1.76149 25.1623 2.35669 24.6565 3.02539C24.4122 3.33349 24.1887 3.65909 23.9877 3.99999C23.7837 4.33359 23.5765 4.67779 23.436 4.94649C23.1184 5.52239 22.8057 6.09309 22.4914 6.66199C21.8661 7.79809 21.2542 8.91489 20.6523 9.99829L17.3986 15.9141C16.4719 17.6027 15.6933 19.0171 15.1389 20.0229C14.6268 20.9518 14.9386 22.1187 15.8457 22.6687C16.8066 23.2512 18.0593 22.9162 18.6011 21.9318L20.7843 17.9651C21.7356 16.2337 22.8475 14.2144 24.0362 12.0493C24.6314 10.9676 25.2434 9.85079 25.867 8.71299C26.183 8.14579 26.4956 7.57339 26.8133 6.99739C26.9805 6.68479 27.1142 6.47059 27.2513 6.24409C27.3825 6.01879 27.5301 5.80459 27.6928 5.60319C27.9751 5.22789 28.3008 4.89109 28.6624 4.60049C28.9968 4.39329 29.3313 4.17559 29.6322 4.14569C29.9259 4.07499 30.2323 4.09019 30.5183 4.18959C30.6762 4.23859 30.8291 4.30389 30.9747 4.38459C31.1323 4.48739 31.2846 4.59879 31.4312 4.71819C32.0465 5.24499 32.5698 6.03159 33.0078 6.90079C33.3954 7.68499 35.9837 12.3719 37.1407 14.4625C37.452 15.0251 37.2611 15.7308 36.7102 16.0622C35.9734 16.5055 35.9327 17.5587 36.6331 18.0575L38.8629 19.6454Z" fill="white"/>
<path d="M38.0223 47.2489C36.0144 48.3063 35.9357 51.153 37.8822 52.3196L40.7687 54.0496C41.4615 54.4648 42.3411 53.9591 42.3308 53.1515C42.3235 52.5782 42.7825 52.109 43.3558 52.1072C45.5198 52.1005 50.379 52.09 51.1861 52.1265C52.3728 52.1701 53.7519 52.1055 55.1809 51.5189C55.5479 51.3596 55.9039 51.1729 56.2469 50.9603C56.6109 50.7181 56.9489 50.4349 57.2579 50.1153C57.9219 49.4475 58.4189 48.6063 58.7009 47.6713C59.0219 46.7338 59.0219 45.7876 58.9819 44.892C58.8959 44.048 58.7069 43.2202 58.4199 42.4305C58.2959 42.0548 58.1459 41.6895 57.9729 41.3376C57.8129 40.9885 57.6359 40.6271 57.4919 40.367C57.1869 39.7932 56.8859 39.2241 56.5889 38.6596C55.9889 37.5301 55.3989 36.418 54.8249 35.3427L49.6201 25.5465C49.1005 24.5684 47.8603 24.2364 46.9214 24.8239C46.0723 25.3553 45.7782 26.4525 46.248 27.3372C46.7814 28.3419 47.5448 29.7795 48.4613 31.5055L51.5789 37.3852C52.1498 38.4606 52.7384 39.5709 53.343 40.7022C53.6429 41.2695 53.9428 41.8387 54.2475 42.4113C54.4159 42.7115 54.5201 42.935 54.6324 43.1812C54.7488 43.4113 54.8481 43.6512 54.9291 43.8987C55.0889 44.3412 55.1969 44.804 55.2499 45.2761C55.2499 45.6846 55.2679 46.0879 55.1439 46.3777C55.0799 46.6089 54.9715 46.8215 54.8261 47.0015C54.7392 47.1091 54.6543 47.2117 54.5441 47.2952C54.3926 47.4101 54.2239 47.5181 54.057 47.6092C53.9846 47.6487 53.9102 47.6872 53.829 47.7202C53.1121 48.0117 52.2461 48.0955 51.3464 48.0693C50.5519 48.0307 45.7263 48.0398 43.476 48.0463C42.8379 48.0481 42.3224 47.5315 42.3224 46.8934C42.3224 46.0263 41.4006 45.4699 40.6334 45.8739L38.0223 47.2489Z" fill="white"/>
<path d="M12.3601 30.7102C12.526 28.3043 9.8815 26.7353 7.8495 28.0341L5.2888 29.6707C4.6193 30.0987 4.6361 31.0823 5.3199 31.4871C5.813 31.779 5.9877 32.4077 5.7146 32.9114C4.6326 34.9076 2.0937 39.5831 1.6445 40.332C0.998201 41.4227 0.345299 42.7518 0.0919991 44.387C0.0314991 44.8108 0.0008 45.2387 0 45.6673C0.01 46.129 0.0650982 46.5884 0.164398 47.0381C0.369198 47.9936 0.801001 48.878 1.4192 49.6075C2.0227 50.3729 2.7873 50.8496 3.5454 51.2566C4.2805 51.595 5.0547 51.8289 5.8477 51.9525C6.2185 52.0199 6.5933 52.0606 6.9693 52.0743C7.3393 52.0934 7.7225 52.1108 8.0086 52.1038H24.0828C25.203 52.1038 26.1112 51.1957 26.1112 50.0755C26.1112 48.9552 25.203 48.0471 24.0828 48.0471H8.0136C7.6847 48.0471 7.4397 48.0349 7.1913 48.0245C6.9447 48.0174 6.6989 47.99 6.4562 47.9427C6.0126 47.8747 5.5789 47.7479 5.1653 47.5652C5.123 47.5393 5.0804 47.5136 5.0381 47.488C4.5122 47.1704 4.0361 46.7025 3.922 46.0988C3.8816 45.9327 3.859 45.7622 3.8547 45.5908C3.8594 45.397 3.8742 45.2036 3.8991 45.0115C4.0273 44.1956 4.4039 43.338 4.8858 42.5117C5.3316 41.774 7.8593 37.1238 8.9868 35.0451C9.2826 34.4998 9.9743 34.3168 10.5028 34.6418C11.1948 35.0674 12.0915 34.606 12.1474 33.7955L12.3601 30.7102Z" fill="white"/>
<path d="M26.1121 24.632C26.6401 24.328 27.2001 24.104 27.7921 23.96C28.4001 23.8 29.0001 23.72 29.5921 23.72C30.5361 23.72 31.3761 23.88 32.1121 24.2C32.8481 24.52 33.4161 24.976 33.8161 25.568C34.2161 26.144 34.4161 26.816 34.4161 27.584C34.4161 28.432 34.2241 29.176 33.8401 29.816C33.4561 30.44 32.8881 31.152 32.1361 31.952C31.4641 32.688 30.9521 33.328 30.6001 33.872C30.2481 34.416 30.0321 35.032 29.9521 35.72L29.8561 36.272H28.4401V35.504C28.4401 34.56 28.6081 33.76 28.9441 33.104C29.2801 32.432 29.7681 31.696 30.4081 30.896C30.9201 30.256 31.2961 29.72 31.5361 29.288C31.7921 28.84 31.9201 28.336 31.9201 27.776C31.9201 27.152 31.7041 26.664 31.2721 26.312C30.8401 25.944 30.2321 25.76 29.4481 25.76C28.3281 25.76 27.2161 26.096 26.1121 26.768V24.632ZM27.7441 38.12H30.6001V41H27.7441V38.12Z" fill="white"/>
</svg>
