<?xml version="1.0" encoding="utf-8"?>
<!-- Generator: Adobe Illustrator 25.4.1, SVG Export Plug-In . SVG Version: 6.00 Build 0)  -->
<svg version="1.1" id="Layer_1" xmlns="http://www.w3.org/2000/svg" xmlns:xlink="http://www.w3.org/1999/xlink" x="0px" y="0px"
	 viewBox="0 0 88 88" style="enable-background:new 0 0 88 88;" xml:space="preserve">
<style type="text/css">
	.st0{fill:#064E40;}
</style>
<path class="st0" d="M56.5,40l-0.2-10l-2.1,1.3c0,0-3.7-6.7-4.2-7.6c-0.5-1-1.2-2.2-2.3-3.1c-0.3-0.2-0.6-0.5-0.9-0.7
	c-0.4-0.2-0.7-0.4-1.1-0.5c-0.8-0.3-1.7-0.3-2.5-0.1c-0.8,0.2-1.6,0.6-2.2,1c-0.6,0.5-1.1,1-1.6,1.6c-0.2,0.3-0.4,0.6-0.6,0.9
	c-0.2,0.3-0.4,0.6-0.5,0.9c-0.3,0.5-0.6,1-0.9,1.5c-0.6,1-1.1,2-1.7,3c-1.1,1.9-2.1,3.8-2.9,5.3l-2.9,5.2l3.1,1.8
	c0,0,1.1-2.1,2.9-5.2l2.9-5.3c0.5-1,1.1-2,1.7-3c0.3-0.5,0.6-1,0.9-1.5c0.2-0.3,0.3-0.5,0.4-0.7c0.1-0.2,0.3-0.4,0.4-0.6
	c0.3-0.3,0.5-0.6,0.9-0.9c0.3-0.2,0.6-0.4,0.9-0.4c0.3-0.1,0.5,0,0.8,0c0.1,0,0.3,0.1,0.4,0.2c0.1,0.1,0.3,0.2,0.4,0.3
	c0.6,0.5,1,1.2,1.4,2c0.5,0.9,4.2,7.7,4.2,7.7l-2.3,1.4L56.5,40z"/>
<path class="st0" d="M45.5,63.9l8.5,4.8l0-2.6c0,0,7.5,0,8.5,0c1.1,0,2.5,0,3.8-0.5c0.4-0.1,0.7-0.3,1-0.5c0.3-0.2,0.7-0.5,1-0.8
	c0.6-0.6,1.1-1.4,1.4-2.2c0.3-0.8,0.3-1.7,0.3-2.5c-0.1-0.8-0.3-1.5-0.5-2.2c-0.1-0.3-0.3-0.7-0.4-1c-0.2-0.3-0.3-0.6-0.5-0.9
	c-0.3-0.5-0.6-1-0.9-1.5c-0.6-1-1.1-2-1.7-3c-1.1-1.9-2.1-3.7-3-5.3c-1.7-3.1-2.9-5.2-2.9-5.2L57,42.4l2.9,5.2l3,5.3
	c0.5,1,1.1,2,1.7,3c0.3,0.5,0.6,1,0.9,1.5c0.2,0.3,0.3,0.5,0.4,0.7c0.3,0.6,0.5,1.2,0.6,1.9c0,0.4,0,0.7-0.1,1
	c-0.1,0.3-0.2,0.5-0.4,0.7c-0.1,0.1-0.2,0.2-0.4,0.3c-0.2,0.1-0.3,0.2-0.5,0.2c-0.7,0.3-1.5,0.3-2.4,0.3c-1,0-8.6,0-8.6,0l0-2.8
	L45.5,63.9z"/>
<path class="st0" d="M30.1,41.7L22,46.8l2.2,1.3c0,0-3.7,6.6-4.2,7.5c-0.6,1-1.2,2.2-1.4,3.6c-0.1,0.4-0.1,0.8-0.1,1.2
	c0,0.4,0.1,0.8,0.2,1.2c0.2,0.9,0.6,1.7,1.2,2.3c0.6,0.7,1.3,1.1,2,1.5c0.7,0.3,1.4,0.5,2.1,0.6c0.3,0.1,0.7,0.1,1,0.1
	c0.3,0,0.7,0,1,0h16.6v-3.7H25.8c-0.3,0-0.5,0-0.8,0c-0.2,0-0.5,0-0.7-0.1c-0.4-0.1-0.8-0.2-1.2-0.3c-0.3-0.2-0.6-0.3-0.8-0.6
	c-0.2-0.2-0.3-0.5-0.4-0.7c0-0.1-0.1-0.3-0.1-0.5c0-0.2,0-0.3,0-0.5c0.1-0.7,0.5-1.5,0.9-2.2c0.5-0.9,4.3-7.6,4.3-7.6l2.3,1.4
	L30.1,41.7z"/>
</svg>
