<svg width="351" height="42" viewBox="0 0 351 42" fill="none" xmlns="http://www.w3.org/2000/svg">
<path d="M87.7994 42.0003V40.8533H83.8623V38.9996H87.4V37.8515H83.8623V36.341H87.6662V35.1895H82.4409V42.0003H87.7994ZM79.4381 42.0003V36.341H81.5229V35.1895H75.9168V36.341H78.0109V42.0003H79.4381ZM75.2219 42.0003V40.8533H71.2859V38.9996H74.8236V37.8515H71.2859V36.341H75.0911V35.1895H69.8669V42.0003H75.2219ZM65.4112 36.341C65.753 36.3315 66.095 36.3474 66.4343 36.3884C66.6551 36.4234 66.857 36.5301 67.0066 36.6909C67.1602 36.8594 67.2409 37.0784 67.232 37.3028C67.2383 37.4902 67.1832 37.6747 67.0746 37.83C66.9659 37.9853 66.8093 38.1034 66.627 38.1676C66.4363 38.2383 66.0614 38.2741 65.5023 38.2748H64.7221V36.341H65.4112ZM64.7221 42.0003V39.4308H65.6565C66.1498 39.4415 66.6432 39.409 67.1304 39.3337C67.3961 39.2741 67.6469 39.1644 67.8686 39.0109C68.121 38.8369 68.3262 38.6064 68.4665 38.3392C68.6333 38.0117 68.7135 37.6495 68.7001 37.2847C68.7001 36.7421 68.5643 36.2999 68.2925 35.9583C68.0426 35.631 67.6845 35.396 67.2776 35.2922C67.0152 35.2237 66.4515 35.1895 65.5864 35.1895H63.2949V42.0003H64.7221Z" fill="#1D3CAE"/>
<path d="M83.9302 13.2377L83.7875 6.84707L82.2267 7.70056C82.2267 7.70056 79.5302 3.45224 79.1985 2.8698C78.8162 2.2128 78.3077 1.48124 77.5004 0.8716C77.2872 0.718664 77.0634 0.578637 76.8304 0.45241C76.5733 0.326457 76.3028 0.225154 76.023 0.15011C75.4322 -0.018527 74.8041 -0.0455852 74.1987 0.0715119C73.5803 0.172279 73.0619 0.439311 72.5874 0.72045C72.1575 1.0114 71.7713 1.35289 71.4384 1.73618C71.2786 1.9134 71.1318 2.10024 70.9991 2.29544C70.8651 2.48689 70.7278 2.68439 70.6355 2.83857C70.428 3.16908 70.2203 3.49658 70.016 3.82306C69.6053 4.47502 69.2022 5.1159 68.8078 5.73763C68.0258 6.98008 67.2954 8.1389 66.6715 9.13246L64.5846 12.4437L66.8066 13.6216C66.8066 13.6216 67.6414 12.2965 68.8935 10.3094L71.0298 6.91458C71.4198 6.29386 71.8251 5.65298 72.2381 5.00002C72.4424 4.6742 72.6489 4.34604 72.8576 4.01553C72.9674 3.83616 73.0541 3.71322 73.1453 3.58324C73.2315 3.45396 73.3285 3.331 73.4353 3.21544C73.6204 2.99909 73.8352 2.80568 74.0745 2.64006C74.2942 2.52115 74.5139 2.3962 74.7105 2.37907C74.9027 2.33847 75.1033 2.34719 75.2904 2.40426C75.3945 2.43236 75.4953 2.46983 75.5914 2.51612C75.6881 2.5796 75.7946 2.62998 75.8923 2.70757C76.2965 3.00987 76.6392 3.46131 76.9281 3.9601C77.2576 4.54253 80.0036 8.87651 80.0036 8.87651L78.3318 9.75621L83.9302 13.2377Z" fill="#1D3CAE"/>
<path d="M76.192 28.6824L82.4878 31.7837L82.4606 30.1058C82.4606 30.1058 87.9903 30.0876 88.7269 30.1149C89.5654 30.1403 90.5399 30.1028 91.5495 29.7621C91.8091 29.6696 92.0612 29.5612 92.3042 29.4377C92.5602 29.2968 92.7991 29.1323 93.017 28.947C93.4869 28.5596 93.838 28.0709 94.0368 27.5276C94.2634 26.9832 94.2634 26.4336 94.2351 25.9135C94.1746 25.4233 94.0408 24.9424 93.8374 24.484C93.7494 24.2658 93.6437 24.0537 93.5212 23.8493C93.4079 23.6466 93.2821 23.4367 93.1813 23.2856C92.9667 22.9524 92.7533 22.6219 92.541 22.2941C92.1195 21.6381 91.7025 20.9923 91.2946 20.3678C90.4878 19.1177 89.7354 17.9517 89.0917 16.9521C87.8022 14.9538 86.9387 13.6216 86.9387 13.6216L84.6464 14.8047L86.7994 18.1373L89.0045 21.5519C89.4067 22.1765 89.8237 22.8213 90.2509 23.4783C90.4628 23.8078 90.6747 24.1383 90.8912 24.4708C91.0102 24.6452 91.0815 24.775 91.1631 24.9179C91.3851 25.2984 91.5334 25.7098 91.6017 26.1346C91.6017 26.3718 91.6141 26.606 91.528 26.7743C91.4686 26.9488 91.356 27.105 91.2028 27.2255C91.1439 27.3005 91.026 27.3431 90.941 27.411C90.8277 27.4556 90.7246 27.5124 90.6011 27.554C90.0946 27.7233 89.4815 27.7719 88.847 27.7567C88.1082 27.7273 82.4696 27.7456 82.4696 27.7456L82.4753 25.9652L76.192 28.6824Z" fill="#1D3CAE"/>
<path d="M64.377 14.7568L58.2033 18.0913L59.8468 18.9122C59.8468 18.9122 57.0898 23.2139 56.6929 23.7727C56.2482 24.4097 55.7955 25.1859 55.6192 26.1409C55.5778 26.3885 55.5568 26.6384 55.5566 26.8887C55.563 27.1584 55.6011 27.4267 55.6704 27.6893C55.8116 28.2474 56.1103 28.764 56.5382 29.1899C56.9545 29.6369 57.4868 29.9153 58.0077 30.153C58.5164 30.3499 59.0517 30.4866 59.6 30.5594C59.8569 30.5987 60.1164 30.6225 60.3769 30.6305C60.6339 30.6417 60.8966 30.6519 61.0945 30.6478H73.6126V28.2785H61.0923C60.8648 28.2785 60.6953 28.2714 60.5236 28.2653C60.3526 28.2612 60.1822 28.2452 60.014 28.2176C59.7075 28.1782 59.4079 28.1041 59.1223 27.9971C58.8949 27.8793 58.6571 27.7716 58.5366 27.6192C58.3969 27.4854 58.3013 27.3198 58.2602 27.1406C58.2339 27.0434 58.2183 26.944 58.2136 26.844C58.2176 26.7307 58.2286 26.6178 58.2465 26.5057C58.3353 26.0292 58.5957 25.5283 58.929 25.0457C59.327 24.4879 62.1398 20.0999 62.1398 20.0999L63.8675 20.996L64.377 14.7568Z" fill="#1D3CAE"/>
<path d="M76.1878 13.6216H74.8225C74.6118 14.199 74.2426 14.7013 73.7596 15.0677C73.331 15.4305 72.8451 15.7154 72.3229 15.9099V17.4833C73.1353 17.2152 73.8802 16.7664 74.5042 16.1687V22.7027H76.192L76.1878 13.6216Z" fill="#1D3CAE"/>
<path d="M130.667 41.9984V40.8527H126.908V39.0011H130.286V37.8543H126.908V36.3456H130.541V35.1954H125.552V41.9984H130.667ZM121.297 36.3456C121.623 36.3361 121.949 36.3519 122.273 36.3929C122.484 36.4277 122.677 36.5343 122.82 36.6951C122.967 36.8632 123.045 37.0819 123.037 37.3063C123.041 37.4933 122.987 37.6769 122.883 37.8316C122.779 37.9864 122.63 38.1047 122.457 38.1701C122.276 38.2407 121.918 38.2765 121.383 38.2772H120.64V36.3456H121.297ZM120.64 41.9984V39.4319H121.526C121.997 39.4426 122.469 39.4101 122.935 39.3349C123.188 39.275 123.428 39.1654 123.64 39.0124C123.88 38.8377 124.076 38.6078 124.212 38.3415C124.371 38.0142 124.447 37.6525 124.435 37.2883C124.435 36.7462 124.306 36.3046 124.047 35.9633C123.808 35.6369 123.466 35.4023 123.077 35.298C122.825 35.2296 122.287 35.1954 121.462 35.1954H119.275V41.9984H120.64ZM114.456 36.3456C114.829 36.3334 115.202 36.3553 115.571 36.411C115.806 36.4573 116.023 36.5681 116.199 36.7312C116.381 36.9143 116.514 37.1408 116.585 37.3898C116.692 37.7844 116.738 38.1931 116.724 38.602C116.736 39.02 116.69 39.4376 116.585 39.8424C116.527 40.0896 116.404 40.3165 116.229 40.4998C116.073 40.6382 115.885 40.7354 115.682 40.7828C115.411 40.8353 115.135 40.8572 114.859 40.8482H113.845V36.3377L114.456 36.3456ZM112.487 41.9984H115.044C115.45 42.0107 115.855 41.9621 116.247 41.8541C116.602 41.7502 116.929 41.5645 117.201 41.3117C117.533 40.9745 117.78 40.5625 117.923 40.1096C118.07 39.6417 118.139 39.1525 118.129 38.6617C118.142 38.1174 118.066 37.5746 117.906 37.0548C117.775 36.6434 117.557 36.2659 117.267 35.9486C116.991 35.6516 116.64 35.4351 116.253 35.3217C115.834 35.2216 115.403 35.178 114.972 35.192H112.488L112.487 41.9984ZM107.066 41.9984V39.0237H109.728V41.9984H111.087V35.1954H109.726V37.8735H107.064V35.1954H105.705V41.9984H107.066Z" fill="#1D3CAE"/>
<path d="M126.923 13.2367L126.778 6.84713L125.165 7.70062C125.165 7.70062 122.381 3.45233 122.039 2.8699C121.647 2.21291 121.12 1.48135 120.286 0.871719C120.066 0.718326 119.835 0.578279 119.594 0.452533C119.329 0.326409 119.05 0.225098 118.762 0.150235C118.151 -0.0185743 117.503 -0.0456334 116.877 0.0716379C116.239 0.172404 115.705 0.439433 115.216 0.72057C114.771 1.0107 114.372 1.35229 114.029 1.73629C113.864 1.91351 113.712 2.10034 113.575 2.29554C113.436 2.48699 113.295 2.6845 113.199 2.83867C112.986 3.16918 112.772 3.49734 112.559 3.82315C112.136 4.4751 111.719 5.11597 111.312 5.7377L109.107 9.1325L106.953 12.4437L109.248 13.6216L111.403 10.3094L113.608 6.91465C114.011 6.29393 114.427 5.65306 114.855 5.0001L115.495 4.01561C115.608 3.83625 115.699 3.71331 115.794 3.58332C115.883 3.45383 115.983 3.33084 116.094 3.21553C116.284 2.99925 116.505 2.80584 116.751 2.64016C116.978 2.52125 117.205 2.39631 117.409 2.37917C117.607 2.33858 117.815 2.34729 118.008 2.40437C118.113 2.43212 118.216 2.4689 118.314 2.5142C118.414 2.57768 118.521 2.62807 118.622 2.70566C119.038 3.00795 119.393 3.45938 119.692 3.95817C120.032 4.5406 122.867 8.87454 122.867 8.87454L121.149 9.75221L126.923 13.2367Z" fill="#1D3CAE"/>
<path d="M118.186 28.6813L124.714 31.7837L124.686 30.1053C124.686 30.1053 130.419 30.087 131.184 30.1144C132.052 30.1397 133.063 30.1022 134.11 29.7614C134.378 29.6688 134.639 29.5604 134.89 29.4369C135.157 29.2965 135.405 29.1319 135.631 28.946C136.117 28.5575 136.481 28.069 136.689 27.5262C136.924 26.9815 136.924 26.4319 136.894 25.9116C136.831 25.4213 136.693 24.9404 136.483 24.4816C136.392 24.2633 136.282 24.0511 136.154 23.8467C136.037 23.6438 135.908 23.4339 135.802 23.2828L135.138 22.2909C134.7 21.6347 134.269 20.9887 133.846 20.3639L131.563 16.9532L129.331 13.6216L126.953 14.8051C126.953 14.8051 127.846 16.1388 129.185 18.1388L131.475 21.5505C131.893 22.1753 132.326 22.8203 132.767 23.4775C132.987 23.8071 133.209 24.1377 133.43 24.4704C133.553 24.6448 133.63 24.7747 133.713 24.9177C133.797 25.0516 133.87 25.1909 133.929 25.3345C134.048 25.5912 134.127 25.8603 134.164 26.1347C134.164 26.372 134.178 26.6063 134.089 26.7747C134.028 26.9491 133.911 27.1054 133.753 27.226C133.69 27.301 133.567 27.3436 133.478 27.4116C133.361 27.4562 133.255 27.513 133.126 27.5546C132.602 27.7239 131.964 27.7726 131.307 27.7574C130.542 27.728 124.697 27.7462 124.697 27.7462V25.9653L118.186 28.6813Z" fill="#1D3CAE"/>
<path d="M107.366 14.7568L100.963 18.0913L102.667 18.9122C102.667 18.9122 99.8075 23.2139 99.3958 23.7727C98.9335 24.4097 98.4664 25.1859 98.2836 26.1409C98.2421 26.3886 98.2196 26.6384 98.2163 26.8887C98.2264 27.1585 98.2683 27.4267 98.3413 27.6893C98.4888 28.2477 98.7998 28.7644 99.2449 29.1899C99.6766 29.6369 100.229 29.9153 100.769 30.153C101.294 30.3498 101.848 30.4864 102.414 30.5594C102.68 30.5987 102.949 30.6224 103.219 30.6305C103.486 30.6417 103.759 30.6519 103.964 30.6478H116.938V28.2785H103.963C103.727 28.2785 103.551 28.2714 103.373 28.2653C103.196 28.2611 103.019 28.2451 102.845 28.2176C102.527 28.1779 102.217 28.1038 101.921 27.9971C101.685 27.8793 101.441 27.7716 101.315 27.6192C101.17 27.4857 101.07 27.32 101.028 27.1406C101 27.0434 100.984 26.944 100.98 26.844C100.984 26.7308 100.995 26.6179 101.012 26.5057C101.105 26.0292 101.375 25.5283 101.727 25.0457C102.142 24.4879 105.056 20.0999 105.056 20.0999L106.847 20.996L107.366 14.7568Z" fill="#1D3CAE"/>
<path d="M117.151 21.0926C117.255 20.9206 117.377 20.7595 117.515 20.6117C117.663 20.447 118.018 20.1138 118.582 19.612C118.999 19.2554 119.388 18.8697 119.747 18.4581C120.039 18.1073 120.279 17.7181 120.46 17.3021C120.609 16.9314 120.684 16.5366 120.682 16.1385C120.689 15.8021 120.623 15.4679 120.488 15.1583C120.353 14.8486 120.151 14.5707 119.897 14.343C119.372 13.8621 118.654 13.6216 117.736 13.6216C116.902 13.6216 116.206 13.829 115.648 14.2438C115.09 14.6586 114.758 15.3438 114.652 16.2992L116.423 16.4718C116.455 15.9649 116.583 15.6037 116.801 15.3858C116.918 15.2758 117.057 15.1904 117.21 15.1348C117.362 15.0791 117.524 15.0545 117.687 15.0623C118.063 15.0623 118.358 15.1665 118.572 15.375C118.786 15.5835 118.893 15.8804 118.893 16.2658C118.882 16.6477 118.754 17.0177 118.526 17.328C118.343 17.5868 117.852 18.08 117.051 18.8075C116.053 19.7091 115.386 20.4323 115.049 20.9772C114.718 21.5016 114.511 22.0909 114.442 22.7027H120.678V21.0926H117.151Z" fill="#1D3CAE"/>
<path d="M161.116 42.0003L164.091 35.1895H162.312L160.276 40.2301L158.174 35.1895H156.352L159.324 42.0003H161.116Z" fill="#DADADA"/>
<path d="M169.25 13.2367L169.109 6.84707L167.546 7.70056C167.546 7.70056 164.85 3.45224 164.519 2.8698C164.136 2.2128 163.63 1.48124 162.819 0.8716C162.607 0.717974 162.383 0.577915 162.149 0.45241C161.893 0.326461 161.623 0.225156 161.344 0.15011C160.753 -0.018527 160.125 -0.0455852 159.52 0.0715119C158.9 0.172279 158.382 0.439311 157.907 0.72045C157.477 1.01113 157.091 1.35266 156.758 1.73618C156.598 1.9134 156.451 2.10023 156.319 2.29543C156.185 2.48689 156.049 2.68439 155.955 2.83857L155.336 3.82306C154.926 4.47502 154.522 5.1159 154.127 5.73763C153.346 6.98008 152.617 8.1389 151.991 9.13246C150.741 11.1186 149.904 12.4437 149.904 12.4437L152.125 13.6216L154.212 10.3094C154.836 9.31585 155.566 8.15704 156.347 6.91458C156.739 6.29386 157.143 5.65298 157.556 5.00002C157.761 4.6742 157.968 4.34604 158.176 4.01552C158.286 3.83616 158.373 3.71322 158.463 3.58323C158.549 3.45371 158.646 3.33072 158.754 3.21543C158.939 2.99986 159.153 2.80654 159.391 2.64006C159.611 2.52115 159.83 2.3962 160.027 2.37907C160.22 2.33846 160.421 2.34717 160.609 2.40426C160.713 2.43238 160.813 2.46984 160.909 2.51611C161.013 2.57513 161.113 2.63904 161.209 2.70757C161.614 3.00987 161.957 3.46131 162.245 3.9601C162.574 4.54253 165.326 8.87651 165.326 8.87651L163.653 9.75621L169.25 13.2367Z" fill="#DADADA"/>
<path d="M161.511 28.6813L167.807 31.7837L167.781 30.1053C167.781 30.1053 173.308 30.087 174.048 30.1144C174.884 30.1397 175.861 30.1022 176.869 29.7614C177.129 29.6689 177.381 29.5604 177.624 29.4369C177.879 29.2957 178.118 29.1312 178.336 28.946C178.806 28.5585 179.157 28.0697 179.356 27.5262C179.583 26.9815 179.583 26.4319 179.554 25.9116C179.495 25.4211 179.362 24.9401 179.159 24.4816C179.07 24.2635 178.964 24.0513 178.842 23.8467C178.728 23.6438 178.604 23.4339 178.502 23.2828C178.287 22.9494 178.073 22.6188 177.861 22.2909C177.439 21.6347 177.022 20.9887 176.62 20.3639L174.414 16.9532L172.261 13.6216L169.969 14.8051L172.121 18.1388C172.767 19.1378 173.517 20.3041 174.324 21.5546C174.728 22.1793 175.143 22.8244 175.571 23.4816L176.21 24.4745C176.329 24.6489 176.401 24.7787 176.482 24.9217C176.563 25.0558 176.633 25.1951 176.691 25.3386C176.804 25.5956 176.88 25.8645 176.918 26.1388C176.918 26.3761 176.93 26.6104 176.843 26.7787C176.785 26.9535 176.673 27.11 176.52 27.23C176.46 27.3051 176.341 27.3477 176.256 27.4156C176.143 27.4602 176.041 27.517 175.916 27.5586C175.411 27.728 174.798 27.7767 174.163 27.7615C173.424 27.732 167.785 27.7503 167.785 27.7503L167.792 25.9694L161.511 28.6813Z" fill="#DADADA"/>
<path d="M149.699 14.7568L143.525 18.0913L145.167 18.9122C145.167 18.9122 142.41 23.2139 142.013 23.7727C141.568 24.4097 141.115 25.1859 140.937 26.1409C140.897 26.3886 140.877 26.6385 140.876 26.8887C140.883 27.1583 140.922 27.4265 140.99 27.6893C141.131 28.2475 141.431 28.7641 141.859 29.1899C142.275 29.6369 142.807 29.9153 143.329 30.153C143.836 30.3499 144.369 30.4866 144.916 30.5594C145.173 30.5988 145.432 30.6225 145.693 30.6305C145.948 30.6417 146.213 30.6519 146.411 30.6478H158.932V28.2785H146.414C146.187 28.2785 146.017 28.2714 145.845 28.2653C145.674 28.2612 145.503 28.2452 145.334 28.2176C145.028 28.1779 144.728 28.1038 144.441 27.9971C144.214 27.8793 143.977 27.7716 143.858 27.6192C143.718 27.4857 143.622 27.32 143.581 27.1406C143.553 27.0436 143.538 26.9441 143.535 26.844C143.539 26.7308 143.55 26.6179 143.567 26.5057C143.655 26.0292 143.916 25.5283 144.255 25.0457C144.653 24.4879 147.467 20.0999 147.467 20.0999L149.195 20.996L149.699 14.7568Z" fill="#DADADA"/>
<path d="M157.36 22.0085C157.939 22.472 158.667 22.7034 159.546 22.7027C160.471 22.7027 161.245 22.4278 161.869 21.8782C162.168 21.624 162.405 21.3151 162.565 20.9716C162.726 20.628 162.806 20.2574 162.8 19.8838C162.816 19.3852 162.639 18.8973 162.301 18.5062C161.966 18.1246 161.494 17.8647 160.969 17.7729C161.9 17.308 162.366 16.6856 162.365 15.9056C162.364 15.6293 162.304 15.3557 162.186 15.101C162.069 14.8463 161.898 14.6155 161.682 14.422C161.13 13.8894 160.397 13.6227 159.484 13.622C158.986 13.6148 158.493 13.7089 158.039 13.8975C157.635 14.0619 157.288 14.3238 157.034 14.6552C156.762 15.0476 156.578 15.4856 156.494 15.9438L158.207 16.2108C158.257 15.823 158.394 15.5273 158.618 15.3249C158.724 15.2275 158.85 15.1505 158.989 15.0985C159.128 15.0464 159.277 15.0204 159.428 15.0218C159.57 15.0154 159.712 15.0358 159.845 15.0817C159.979 15.1277 160.1 15.1982 160.203 15.2889C160.302 15.3839 160.378 15.4962 160.428 15.6192C160.479 15.7421 160.501 15.8731 160.494 16.0042C160.501 16.1637 160.469 16.3227 160.4 16.4693C160.331 16.616 160.227 16.7468 160.096 16.852C159.832 17.0639 159.447 17.1635 158.945 17.1508L158.741 18.5443C159.019 18.4673 159.307 18.4245 159.596 18.4172C159.77 18.4152 159.942 18.4478 160.101 18.5125C160.259 18.5773 160.401 18.6727 160.515 18.7923C160.766 19.0435 160.893 19.3826 160.893 19.8118C160.893 20.2632 160.762 20.6228 160.499 20.8905C160.379 21.018 160.23 21.1198 160.062 21.1889C159.895 21.2579 159.713 21.2924 159.529 21.2901C159.36 21.2928 159.193 21.2646 159.036 21.2073C158.879 21.15 158.736 21.0647 158.615 20.9562C158.364 20.7348 158.209 20.4126 158.153 19.993L156.352 20.1922C156.42 20.894 156.781 21.5448 157.36 22.0085V22.0085Z" fill="#DADADA"/>
<path d="M214.738 41.9984V40.8522H211.006V38.9997H214.36V37.8523H211.006V36.3428H214.612V35.192H209.656V41.9984H214.738ZM205.435 36.3428C205.76 36.3333 206.085 36.3492 206.408 36.3901C206.617 36.4252 206.808 36.5319 206.949 36.6925C207.095 36.8605 207.172 37.0796 207.164 37.304C207.167 37.4925 207.114 37.6777 207.011 37.8342C206.908 37.9888 206.761 38.1071 206.589 38.1727C206.409 38.2434 206.054 38.2791 205.522 38.2799H204.784V36.3428H205.435ZM204.784 41.9984V39.4307H205.663C206.131 39.4414 206.599 39.4089 207.062 39.3336C207.314 39.2743 207.552 39.1646 207.762 39.011C208.001 38.8371 208.196 38.6068 208.33 38.3397C208.488 38.0123 208.564 37.6504 208.551 37.2859C208.551 36.7433 208.424 36.3021 208.166 35.9603C207.929 35.633 207.59 35.3982 207.204 35.2947C206.955 35.2262 206.42 35.192 205.6 35.192H203.433V41.9984H204.784ZM198.645 36.3428C199.016 36.3304 199.387 36.3523 199.753 36.4082C199.987 36.4542 200.203 36.5651 200.379 36.7286C200.558 36.9125 200.689 37.1389 200.761 37.3875C200.866 37.7825 200.912 38.1913 200.898 38.6003C200.91 39.0185 200.864 39.4363 200.761 39.8413C200.703 40.0887 200.581 40.3157 200.408 40.4991C200.252 40.6376 200.065 40.7349 199.864 40.7822C199.595 40.8345 199.322 40.8565 199.049 40.8477H198.041V36.3349L198.645 36.3428ZM196.685 41.9984H199.232C199.636 42.0106 200.039 41.9619 200.429 41.854C200.781 41.7499 201.104 41.5641 201.374 41.3114C201.704 40.9746 201.949 40.5621 202.09 40.1087C202.236 39.6405 202.305 39.1511 202.295 38.6601C202.307 38.1155 202.233 37.5725 202.073 37.0524C201.942 36.6414 201.724 36.2648 201.434 35.949C201.161 35.651 200.813 35.4342 200.427 35.3217C200.011 35.2216 199.584 35.178 199.157 35.192H196.685V41.9984ZM195.727 41.9984V40.8522H192.373V35.2484H191.024V41.9984H195.727Z" fill="#DADADA"/>
<path d="M212.242 13.2377L212.096 6.84814L210.482 7.70062C210.482 7.70062 207.697 3.45233 207.355 2.8699C206.962 2.21291 206.437 1.48135 205.603 0.871719C205.383 0.718321 205.151 0.578276 204.909 0.452533C204.645 0.326234 204.366 0.224914 204.078 0.150235C203.467 -0.0185743 202.819 -0.0456334 202.193 0.0716379C201.555 0.172404 201.02 0.439433 200.531 0.72057C200.087 1.01151 199.688 1.35301 199.344 1.73629C199.179 1.91326 199.027 2.10012 198.891 2.29554C198.752 2.487 198.611 2.6845 198.515 2.83867C198.301 3.16918 198.087 3.49734 197.875 3.82315L196.633 5.7377C195.825 6.98014 195.071 8.13895 194.427 9.1325L192.272 12.4437L194.567 13.6216C194.567 13.6216 195.426 12.2966 196.721 10.3094C197.368 9.3159 198.12 8.15709 198.927 6.91465C199.331 6.29393 199.746 5.65306 200.174 5.0001C200.385 4.67429 200.597 4.34613 200.812 4.01561C200.925 3.83625 201.017 3.71332 201.11 3.58333C201.199 3.45406 201.299 3.33109 201.409 3.21553C201.6 2.99945 201.822 2.80607 202.068 2.64016C202.295 2.52125 202.522 2.39631 202.726 2.37917C202.925 2.33858 203.132 2.34729 203.325 2.40437C203.432 2.43265 203.536 2.47011 203.636 2.51622C203.742 2.57524 203.846 2.63914 203.945 2.70767C204.364 3.00997 204.716 3.4614 205.015 3.96019C205.355 4.54262 208.19 8.87656 208.19 8.87656L206.462 9.75624L212.242 13.2377Z" fill="#DADADA"/>
<path d="M203.505 28.6824L210.031 31.7837L210.004 30.1058C210.004 30.1058 215.737 30.0876 216.503 30.1149C217.37 30.1403 218.383 30.1028 219.429 29.7621C219.699 29.6694 219.96 29.561 220.213 29.4377C220.478 29.2965 220.725 29.1321 220.951 28.947C221.439 28.5599 221.803 28.0711 222.008 27.5276C222.243 26.9832 222.243 26.4336 222.213 25.9135C222.15 25.4236 222.013 24.9429 221.804 24.484C221.711 24.2663 221.6 24.0543 221.474 23.8493C221.356 23.6466 221.227 23.4367 221.121 23.2856L220.459 22.2941C220.019 21.6381 219.588 20.9923 219.166 20.3678C218.33 19.1177 217.55 17.9517 216.88 16.9521C215.544 14.9538 214.648 13.6216 214.648 13.6216L212.269 14.8047C212.269 14.8047 213.161 16.138 214.502 18.1373C215.169 19.1359 215.951 20.3019 216.787 21.5519C217.205 22.1765 217.637 22.8213 218.08 23.4783C218.299 23.8078 218.521 24.1383 218.743 24.4708C218.86 24.6452 218.941 24.775 219.025 24.9179C219.109 25.052 219.182 25.1913 219.242 25.3346C219.359 25.5917 219.438 25.8605 219.477 26.1346C219.477 26.3718 219.49 26.606 219.401 26.7743C219.339 26.9488 219.223 27.105 219.064 27.2255C219.001 27.3005 218.88 27.3431 218.79 27.411C218.675 27.4638 218.558 27.5115 218.437 27.554C217.913 27.7233 217.278 27.7719 216.618 27.7567C215.853 27.7273 210.006 27.7456 210.006 27.7456L210.012 25.9652L203.505 28.6824Z" fill="#DADADA"/>
<path d="M192.68 14.7568L186.28 18.0913L187.985 18.9122C187.985 18.9122 185.126 23.2139 184.715 23.7727C184.252 24.4097 183.784 25.1859 183.602 26.1409C183.559 26.3885 183.537 26.6384 183.536 26.8887C183.544 27.1585 183.586 27.4269 183.659 27.6893C183.805 28.2475 184.114 28.7643 184.558 29.1899C184.989 29.6369 185.54 29.9153 186.081 30.153C186.608 30.3501 187.163 30.4868 187.732 30.5594C187.997 30.5987 188.265 30.6225 188.535 30.6305C188.801 30.6417 189.075 30.6519 189.28 30.6478H202.257V28.2785H189.275C189.039 28.2785 188.864 28.2714 188.686 28.2653C188.508 28.2614 188.332 28.2454 188.157 28.2176C187.839 28.178 187.528 28.1039 187.232 27.9971C186.99 27.8793 186.75 27.7716 186.626 27.6192C186.481 27.4859 186.382 27.3201 186.341 27.1406C186.312 27.0435 186.296 26.9441 186.291 26.844C186.304 26.7342 186.298 26.6235 186.324 26.5057C186.416 26.0292 186.686 25.5283 187.038 25.0457C187.451 24.4879 190.367 20.0999 190.367 20.0999L192.154 20.996L192.68 14.7568Z" fill="#DADADA"/>
<path d="M201.319 19.3586L203.314 16.269V19.3597L201.319 19.3586ZM204.923 22.7016V20.8824H206.002V19.3586H204.923V13.6216H203.526L199.761 19.3651V20.8824H203.314V22.7027L204.923 22.7016Z" fill="#DADADA"/>
<path d="M248.8 36.341C249.132 36.3314 249.464 36.3473 249.794 36.3884C250.008 36.4226 250.204 36.5295 250.348 36.6909C250.498 36.859 250.577 37.0782 250.568 37.3028C250.572 37.4915 250.517 37.6768 250.411 37.8334C250.306 37.9879 250.156 38.1062 249.981 38.1721C249.797 38.2428 249.433 38.2786 248.889 38.2793H248.133V36.341H248.8ZM248.133 42.0003V39.4308H249.033C249.512 39.4415 249.991 39.409 250.465 39.3337C250.723 39.2744 250.966 39.1646 251.181 39.0109C251.426 38.8369 251.625 38.6064 251.761 38.3392C251.923 38.0115 252 37.6494 251.988 37.2847C251.988 36.7421 251.856 36.2999 251.592 35.9583C251.351 35.6308 251.003 35.3957 250.609 35.2922C250.354 35.2237 249.807 35.1895 248.966 35.1895H246.749V42.0003H248.133ZM242.429 36.341C242.761 36.3315 243.093 36.3474 243.423 36.3884C243.637 36.4234 243.832 36.5302 243.977 36.6909C244.127 36.8591 244.205 37.0784 244.196 37.3028C244.2 37.4914 244.146 37.6767 244.041 37.8334C243.936 37.9879 243.785 38.1062 243.61 38.1721C243.426 38.2432 243.061 38.2793 242.518 38.2793H241.762V36.341H242.429ZM241.762 42.0003V39.4308H242.664C243.143 39.4415 243.622 39.409 244.095 39.3337C244.353 39.2743 244.596 39.1646 244.81 39.0109C245.056 38.8369 245.255 38.6065 245.392 38.3392C245.553 38.0117 245.631 37.6495 245.618 37.2847C245.618 36.7421 245.486 36.2999 245.223 35.9583C244.981 35.6305 244.633 35.3954 244.238 35.2922C243.983 35.2237 243.436 35.1895 242.597 35.1895H240.382V42.0003H241.762Z" fill="#DADADA"/>
<path d="M254.569 13.2416L254.428 6.8496L252.866 7.70341C252.866 7.70341 250.169 3.45351 249.839 2.87087C249.455 2.21362 248.949 1.48179 248.139 0.871923C247.927 0.71824 247.703 0.578129 247.469 0.452578C247.212 0.326576 246.942 0.225235 246.663 0.150165C246.072 -0.0185338 245.444 -0.0456021 244.838 0.0715383C244.219 0.172342 243.701 0.439473 243.227 0.720717C242.796 1.01124 242.409 1.35292 242.077 1.73682C241.917 1.91436 241.77 2.10124 241.637 2.29628C241.504 2.48781 241.367 2.68539 241.275 2.83962C241.065 3.17025 240.861 3.49787 240.655 3.82447L239.447 5.73975L237.31 9.13584L235.223 12.4483L237.454 13.6216L239.541 10.3082C240.167 9.31426 240.896 8.15502 241.677 6.9121C242.068 6.29115 242.472 5.65003 242.885 4.99682C243.091 4.67123 243.296 4.34261 243.506 4.01197C243.616 3.83254 243.702 3.70956 243.794 3.57952C243.879 3.44973 243.977 3.32666 244.085 3.21158C244.269 2.99522 244.483 2.80174 244.722 2.63599C244.942 2.51705 245.161 2.39205 245.358 2.37491C245.55 2.33421 245.752 2.34293 245.939 2.40011C246.043 2.42822 246.144 2.4657 246.24 2.512C246.336 2.57551 246.442 2.62591 246.54 2.70353C246.945 3.00594 247.288 3.45755 247.575 3.95653C247.904 4.53917 250.656 8.87476 250.656 8.87476L248.984 9.75478L254.569 13.2416Z" fill="#DADADA"/>
<path d="M246.831 28.6824L253.126 31.7837L253.099 30.1058C253.099 30.1058 258.629 30.0876 259.366 30.1149C260.202 30.1403 261.179 30.1028 262.188 29.7621C262.448 29.6696 262.699 29.5612 262.942 29.4377C263.198 29.2965 263.437 29.1321 263.656 28.947C264.125 28.5594 264.476 28.0708 264.675 27.5276C264.902 26.9832 264.902 26.4336 264.874 25.9135C264.813 25.4234 264.68 24.9426 264.477 24.484C264.389 24.2658 264.283 24.0537 264.16 23.8493C264.047 23.6466 263.922 23.4367 263.82 23.2856L263.181 22.2941C262.758 21.6381 262.339 20.9923 261.935 20.3678C261.129 19.1177 260.378 17.9517 259.732 16.9521L257.579 13.6216L255.287 14.8047C255.287 14.8047 256.148 16.138 257.44 18.1373C258.085 19.1359 258.836 20.3019 259.644 21.5519L260.89 23.4783C261.102 23.8078 261.313 24.1383 261.529 24.4708C261.648 24.6452 261.722 24.775 261.801 24.9179C261.882 25.0518 261.952 25.1911 262.009 25.3346C262.123 25.5916 262.199 25.8604 262.236 26.1346C262.236 26.3718 262.249 26.606 262.162 26.7743C262.103 26.9484 261.99 27.1044 261.838 27.2255C261.778 27.3005 261.659 27.3431 261.573 27.411C261.46 27.4556 261.358 27.5124 261.233 27.554C260.728 27.7233 260.115 27.7719 259.479 27.7567C258.742 27.7273 253.103 27.7456 253.103 27.7456L253.11 25.9652L246.831 28.6824Z" fill="#DADADA"/>
<path d="M235.017 14.7568L228.843 18.0913L230.486 18.9122C230.486 18.9122 227.729 23.2139 227.332 23.7727C226.886 24.4097 226.433 25.1859 226.259 26.1409C226.216 26.3883 226.195 26.6383 226.195 26.8887C226.202 27.1584 226.24 27.4267 226.309 27.6893C226.451 28.2473 226.749 28.7638 227.177 29.1899C227.593 29.6369 228.126 29.9153 228.647 30.153C229.154 30.3497 229.688 30.4863 230.234 30.5594C230.491 30.5987 230.751 30.6225 231.011 30.6305C231.266 30.6417 231.531 30.6519 231.73 30.6478H244.251V28.2785H231.734C231.506 28.2785 231.335 28.2714 231.165 28.2653C230.994 28.2613 230.824 28.2453 230.656 28.2176C230.349 28.1779 230.049 28.1038 229.763 27.9971C229.536 27.8793 229.299 27.7716 229.178 27.6192C229.039 27.4854 228.943 27.3198 228.902 27.1406C228.876 27.0434 228.86 26.944 228.855 26.844C228.868 26.7342 228.855 26.6235 228.886 26.5057C228.977 26.0292 229.237 25.5283 229.577 25.0457C229.976 24.4879 232.788 20.0999 232.788 20.0999L234.515 20.996L235.017 14.7568Z" fill="#DADADA"/>
<path d="M243.955 22.0289C244.514 22.4781 245.237 22.7027 246.123 22.7027C247.233 22.7027 248.1 22.3032 248.723 21.5042C249.178 20.9281 249.419 20.2271 249.41 19.509C249.41 18.615 249.126 17.8884 248.559 17.3292C248.142 16.9088 247.591 16.6279 246.99 16.5288C246.388 16.4297 245.769 16.5177 245.225 16.7796L245.514 15.2411H248.984V13.6216H244.125L243.182 18.3343L244.676 18.5373C245.093 18.0968 245.567 17.8766 246.096 17.8766C246.29 17.8707 246.482 17.9049 246.66 17.9769C246.838 18.049 246.998 18.157 247.126 18.2933C247.39 18.5719 247.522 18.989 247.522 19.5446C247.522 20.1374 247.388 20.5822 247.123 20.8759C247.006 21.0143 246.858 21.126 246.689 21.2025C246.519 21.279 246.334 21.3183 246.147 21.3174C245.813 21.3187 245.493 21.1952 245.256 20.9741C244.989 20.7267 244.824 20.3968 244.793 20.0445L242.961 20.2237C243.065 20.9788 243.396 21.5805 243.955 22.0289Z" fill="#DADADA"/>
<path d="M289.229 41.4221C289.68 41.8072 290.324 41.9994 291.163 41.9987C291.655 42.0128 292.145 41.9314 292.605 41.7589C292.973 41.6124 293.285 41.356 293.5 41.0253C293.698 40.7111 293.807 40.3499 293.816 39.9795C293.826 39.6091 293.734 39.243 293.552 38.9194C293.374 38.6347 293.12 38.4036 292.819 38.2513C292.507 38.0878 292.026 37.9297 291.375 37.7771C290.724 37.6245 290.314 37.4792 290.144 37.3411C290.082 37.2942 290.032 37.2338 289.998 37.1646C289.963 37.0954 289.946 37.0193 289.946 36.9422C289.944 36.8621 289.962 36.7828 289.999 36.7115C290.035 36.6403 290.09 36.5794 290.157 36.5345C290.377 36.3754 290.681 36.2958 291.07 36.2958C291.448 36.2958 291.73 36.371 291.919 36.5138C292.108 36.6566 292.23 36.9051 292.288 37.243L293.627 37.1842C293.629 36.9099 293.57 36.6386 293.457 36.3886C293.343 36.1387 293.176 35.9159 292.968 35.7356C292.547 35.3722 291.921 35.1906 291.089 35.1906C290.643 35.1791 290.199 35.2569 289.784 35.4195C289.447 35.554 289.158 35.7861 288.955 36.0854C288.723 36.4372 288.627 36.861 288.687 37.2775C288.747 37.694 288.957 38.0747 289.28 38.3483C289.573 38.6055 290.076 38.8235 290.79 39.0023C291.348 39.1396 291.706 39.2352 291.863 39.289C292.046 39.3413 292.211 39.4397 292.344 39.5745C292.437 39.6859 292.486 39.8269 292.482 39.9713C292.48 40.095 292.449 40.2166 292.391 40.3266C292.334 40.4366 292.252 40.5321 292.152 40.6057C291.932 40.7866 291.607 40.8771 291.177 40.8771C290.77 40.8771 290.447 40.7754 290.207 40.5719C289.968 40.3691 289.808 40.0498 289.73 39.617L288.424 39.7402C288.512 40.4778 288.781 41.0384 289.229 41.4221ZM284.571 36.4179C284.893 36.4088 285.215 36.4241 285.534 36.4637C285.742 36.4973 285.932 36.6004 286.073 36.7558C286.216 36.9175 286.292 37.1272 286.284 37.3422C286.288 37.5244 286.235 37.7033 286.132 37.8545C286.031 38.0037 285.885 38.1179 285.715 38.1815C285.537 38.2498 285.183 38.2843 284.655 38.2851H283.923V36.4179H284.571ZM283.924 41.8821V39.4012H284.798C285.262 39.4115 285.727 39.3802 286.185 39.3075C286.435 39.2498 286.671 39.1438 286.88 38.9957C287.117 38.8266 287.31 38.6044 287.444 38.3472C287.6 38.0309 287.676 37.6812 287.664 37.3291C287.664 36.8052 287.536 36.3783 287.28 36.0484C287.045 35.7327 286.708 35.5058 286.325 35.4053C286.078 35.3392 285.547 35.3061 284.733 35.3061H282.584V41.8821H283.924Z" fill="#DADADA"/>
<path d="M297.561 13.2416L297.415 6.84964L295.802 7.70344C295.802 7.70344 293.02 3.45357 292.677 2.87092C292.282 2.21368 291.759 1.48185 290.923 0.871987C290.703 0.718536 290.472 0.578437 290.231 0.452644C289.966 0.326473 289.687 0.225124 289.399 0.150233C288.789 -0.0185584 288.141 -0.0456287 287.516 0.0716062C286.876 0.17241 286.341 0.43954 285.854 0.720781C285.409 1.01123 285.009 1.35292 284.665 1.73688C284.5 1.91419 284.349 2.10109 284.212 2.29634C284.073 2.48787 283.933 2.68544 283.838 2.83967C283.622 3.17031 283.41 3.49792 283.197 3.82452L281.95 5.73979L279.746 9.13082C278.458 11.1177 277.592 12.4432 277.592 12.4432L279.887 13.6216L282.041 10.3082C282.688 9.31428 283.44 8.15504 284.246 6.91214C284.651 6.29119 285.067 5.65007 285.493 4.99687C285.708 4.67127 285.92 4.34265 286.135 4.01202C286.248 3.83259 286.339 3.70961 286.432 3.57957C286.521 3.44978 286.621 3.32671 286.733 3.21164C286.924 2.99574 287.145 2.80233 287.39 2.63605C287.617 2.5171 287.844 2.3921 288.047 2.37497C288.246 2.33432 288.453 2.34304 288.647 2.40017C288.754 2.42828 288.858 2.46576 288.958 2.51206C289.057 2.57557 289.167 2.62597 289.268 2.70359C289.685 3.006 290.039 3.4576 290.337 3.95657C290.677 4.53922 293.517 8.87478 293.517 8.87478L291.789 9.7548L297.561 13.2416Z" fill="#DADADA"/>
<path d="M288.825 28.6813L295.352 31.7837L295.325 30.1053C295.325 30.1053 301.058 30.087 301.821 30.1144C302.691 30.1397 303.701 30.1022 304.746 29.7614C305.016 29.6693 305.277 29.5608 305.529 29.4369C305.795 29.2962 306.043 29.1317 306.269 28.946C306.756 28.5587 307.12 28.0698 307.326 27.5262C307.561 26.9815 307.561 26.4319 307.534 25.9116C307.47 25.4213 307.332 24.9405 307.122 24.4816C307.03 24.2641 306.92 24.0529 306.792 23.8497C306.674 23.6469 306.546 23.4369 306.439 23.2858C306.218 22.9525 305.997 22.6219 305.777 22.2939C305.339 21.6378 304.906 20.9917 304.484 20.367L302.202 16.9532C300.865 14.9542 299.97 13.6216 299.97 13.6216L297.593 14.8051L299.825 18.1388L302.109 21.5546C302.527 22.1793 302.961 22.8244 303.401 23.4816C303.622 23.8112 303.842 24.1418 304.065 24.4745C304.188 24.6489 304.265 24.7787 304.348 24.9217C304.432 25.0558 304.504 25.1952 304.564 25.3386C304.681 25.5958 304.76 25.8646 304.799 26.1388C304.799 26.3761 304.811 26.6104 304.721 26.7787C304.66 26.9531 304.544 27.1094 304.386 27.23C304.324 27.3051 304.2 27.3477 304.111 27.4156C303.993 27.4602 303.888 27.517 303.758 27.5586C303.233 27.728 302.598 27.7767 301.94 27.7615C301.175 27.732 295.329 27.7503 295.329 27.7503V25.9694L288.825 28.6813Z" fill="#DADADA"/>
<path d="M278.001 14.7568L271.599 18.0913L273.303 18.9122C273.303 18.9122 270.446 23.2139 270.034 23.7727C269.571 24.4097 269.103 25.1859 268.921 26.1409C268.879 26.3885 268.857 26.6384 268.855 26.8887C268.863 27.1583 268.903 27.4264 268.973 27.6893C269.119 28.2474 269.429 28.764 269.873 29.1899C270.304 29.6369 270.856 29.9153 271.396 30.153C271.923 30.3503 272.478 30.4869 273.047 30.5594C273.313 30.5988 273.582 30.6225 273.851 30.6305C274.118 30.6417 274.39 30.6519 274.595 30.6478H287.576V28.2785H274.598C274.362 28.2785 274.186 28.2714 274.008 28.2653C273.832 28.2611 273.656 28.2451 273.482 28.2176C273.164 28.1779 272.853 28.1038 272.556 27.9971C272.321 27.8793 272.075 27.7716 271.95 27.6192C271.805 27.4857 271.706 27.32 271.664 27.1406C271.636 27.0434 271.621 26.944 271.617 26.844C271.621 26.7308 271.631 26.6179 271.648 26.5057C271.742 26.0292 272.012 25.5283 272.362 25.0457C272.776 24.4879 275.692 20.0999 275.692 20.0999L277.481 20.996L278.001 14.7568Z" fill="#DADADA"/>
<path d="M287.444 18.4174C287.553 18.2948 287.689 18.1967 287.843 18.13C287.996 18.0632 288.163 18.0295 288.332 18.0312C288.501 18.0329 288.667 18.0701 288.819 18.1399C288.971 18.2098 289.104 18.3107 289.21 18.4354C289.449 18.7033 289.569 19.1274 289.569 19.7078C289.569 20.2697 289.458 20.6737 289.235 20.9208C289.135 21.0383 289.009 21.1328 288.865 21.1969C288.722 21.261 288.565 21.2931 288.406 21.2908C288.062 21.2908 287.756 21.1403 287.488 20.8391C287.22 20.538 287.086 20.11 287.087 19.5551C287.088 19.0532 287.207 18.674 287.444 18.4174ZM290.259 14.1888C289.793 13.8107 289.206 13.6216 288.496 13.6216C287.486 13.6216 286.664 13.9814 286.031 14.701C285.397 15.4206 285.08 16.5954 285.08 18.2255C285.08 19.8152 285.384 20.9586 285.992 21.6556C286.268 21.9893 286.622 22.2575 287.026 22.4391C287.43 22.6206 287.873 22.7107 288.319 22.7021C289.199 22.7021 289.919 22.4271 290.48 21.8772C291.04 21.3272 291.321 20.5974 291.321 19.6876C291.321 18.8302 291.054 18.1304 290.52 17.5882C290.279 17.3302 289.983 17.1242 289.652 16.9841C289.321 16.844 288.962 16.7731 288.6 16.776C288.281 16.772 287.964 16.8376 287.676 16.9679C287.387 17.0982 287.134 17.2898 286.935 17.5278C287.002 16.5056 287.168 15.8313 287.429 15.5079C287.69 15.1845 288.011 15.0223 288.388 15.0223C288.645 15.0125 288.895 15.0999 289.083 15.2651C289.262 15.4276 289.373 15.6786 289.418 16.0179L291.15 15.8355C291.021 15.1159 290.724 14.567 290.259 14.1888Z" fill="#DADADA"/>
<path d="M342.779 36.4161H343.874C344.443 36.4161 344.784 36.4237 344.899 36.439C345.102 36.4629 345.289 36.5547 345.427 36.6978C345.557 36.8484 345.624 37.0392 345.616 37.2338C345.623 37.4088 345.573 37.5817 345.472 37.7283C345.378 37.8605 345.239 37.9586 345.079 38.0067C344.912 38.0613 344.491 38.0886 343.817 38.0886H342.78L342.779 36.4161ZM342.779 41.8889V39.1389H343.062C343.301 39.1293 343.54 39.1543 343.77 39.2131C343.931 39.2716 344.076 39.3655 344.191 39.4871C344.459 39.7944 344.707 40.1179 344.931 40.4555L345.947 41.8889H347.626L346.777 40.6039C346.544 40.2266 346.277 39.869 345.979 39.5352C345.758 39.3172 345.504 39.1308 345.226 38.9816C345.836 38.898 346.294 38.6953 346.6 38.3736C346.914 38.0365 347.079 37.5985 347.061 37.1497C347.068 36.7831 346.963 36.4224 346.757 36.1115C346.571 35.8209 346.287 35.5985 345.95 35.4805C345.614 35.3615 345.075 35.3025 344.33 35.3025H341.374V41.8889H342.779ZM340.178 41.8889V40.7797H336.293V38.9871H339.785V37.8768H336.293V36.4161H340.045V35.3025H334.89V41.8889H340.178ZM329.281 41.8889V39.0089H332.033V41.8889H333.437V35.3025H332.033V37.8954H329.281V35.3025H327.877V41.8889H329.281ZM324.907 41.8889V36.4161H326.965V35.3025H321.439V36.4161H323.502V41.8889H324.907ZM316.073 36.891C316.253 36.7132 316.47 36.5716 316.71 36.4747C316.949 36.3777 317.207 36.3274 317.467 36.3267C317.728 36.326 317.986 36.3749 318.226 36.4705C318.466 36.5662 318.683 36.7066 318.865 36.8834C319.211 37.2556 319.39 37.8179 319.39 38.5733C319.39 39.3288 319.21 39.9096 318.852 40.2917C318.676 40.473 318.463 40.6178 318.224 40.7168C317.986 40.8158 317.729 40.8669 317.469 40.8669C317.209 40.8669 316.952 40.8158 316.714 40.7168C316.475 40.6178 316.262 40.473 316.086 40.2917C315.721 39.9067 315.539 39.3412 315.539 38.5952C315.541 37.8324 315.719 37.2644 316.073 36.891V36.891ZM315.01 41.105C315.625 41.7026 316.447 42.001 317.477 42.0003C318.507 41.9995 319.323 41.6997 319.926 41.1007C320.536 40.4995 320.841 39.6672 320.841 38.6039C320.841 37.5406 320.534 36.7036 319.919 36.0929C319.304 35.4918 318.484 35.1908 317.459 35.1901C316.946 35.181 316.436 35.2697 315.96 35.451C315.621 35.5887 315.316 35.7904 315.062 36.0438C314.792 36.3062 314.573 36.6119 314.415 36.9467C314.187 37.4827 314.078 38.0578 314.096 38.6356C314.095 39.6851 314.4 40.5082 315.01 41.105V41.105Z" fill="#DADADA"/>
<path d="M339.888 13.2367L339.747 6.84707L338.185 7.70056C338.185 7.70056 335.49 3.45224 335.158 2.8698C334.775 2.2128 334.268 1.48124 333.46 0.8716C333.246 0.718664 333.023 0.578637 332.79 0.45241C332.532 0.326631 332.262 0.225336 331.982 0.15011C331.391 -0.018527 330.763 -0.0455852 330.158 0.0715119C329.538 0.172279 329.019 0.439311 328.547 0.72045C328.117 1.01086 327.73 1.35243 327.398 1.73618C327.238 1.91295 327.091 2.09982 326.959 2.29543C326.825 2.48689 326.688 2.68439 326.596 2.83857C326.387 3.16908 326.182 3.49657 325.976 3.82306C325.565 4.47502 325.163 5.1159 324.767 5.73763L322.63 9.13246C321.382 11.1186 320.542 12.4437 320.542 12.4437L322.767 13.6216L324.854 10.3094C325.479 9.31585 326.21 8.15704 326.991 6.91458C327.382 6.29386 327.784 5.65298 328.193 5.00002C328.401 4.67454 328.606 4.34604 328.815 4.01552C328.925 3.83616 329.013 3.71322 329.103 3.58323C329.189 3.45396 329.286 3.331 329.393 3.21543C329.578 3.00009 329.792 2.80681 330.03 2.64006C330.25 2.52115 330.47 2.3962 330.667 2.37907C330.86 2.33846 331.062 2.34717 331.249 2.40426C331.353 2.43238 331.454 2.46984 331.549 2.51611C331.653 2.57513 331.753 2.63904 331.849 2.70757C332.253 3.00987 332.597 3.46131 332.885 3.9601C333.215 4.54253 335.966 8.87651 335.966 8.87651L334.292 9.75621L339.888 13.2367Z" fill="#DADADA"/>
<path d="M332.15 28.6813L338.445 31.7837L338.419 30.1053C338.419 30.1053 343.947 30.087 344.685 30.1144C345.523 30.1397 346.498 30.1022 347.507 29.7614C347.767 29.6688 348.018 29.5604 348.261 29.4369C348.517 29.2962 348.757 29.1317 348.975 28.946C349.444 28.5581 349.795 28.0694 349.995 27.5262C350.221 26.9815 350.221 26.4319 350.193 25.9116C350.132 25.4213 349.999 24.9404 349.796 24.4816C349.708 24.2633 349.603 24.0511 349.48 23.8467C349.367 23.6438 349.242 23.4339 349.14 23.2828C348.925 22.9494 348.712 22.6188 348.502 22.2909C348.079 21.6347 347.662 20.9887 347.256 20.3639L345.052 16.9532L342.899 13.6216L340.607 14.8011C340.607 14.8011 341.468 16.1348 342.76 18.1347L344.963 21.5505C345.366 22.1753 345.782 22.8203 346.209 23.4775C346.421 23.8071 346.633 24.1377 346.848 24.4704C346.967 24.6448 347.041 24.7747 347.12 24.9177C347.202 25.0513 347.272 25.1907 347.33 25.3345C347.443 25.5916 347.519 25.8604 347.556 26.1347C347.556 26.372 347.569 26.6063 347.481 26.7747C347.423 26.9493 347.311 27.1057 347.157 27.226C347.097 27.301 346.979 27.3436 346.892 27.4116C346.779 27.4562 346.677 27.513 346.552 27.5546C346.046 27.7239 345.434 27.7726 344.798 27.7574C344.062 27.728 338.423 27.7462 338.423 27.7462V25.9653L332.15 28.6813Z" fill="#DADADA"/>
<path d="M320.339 14.7568L314.162 18.0913L315.804 18.9122C315.804 18.9122 313.048 23.2139 312.652 23.7727C312.205 24.4097 311.753 25.1859 311.578 26.1409C311.536 26.3884 311.515 26.6384 311.514 26.8887C311.521 27.1583 311.559 27.4266 311.628 27.6893C311.77 28.2473 312.068 28.7638 312.496 29.1899C312.913 29.6369 313.442 29.9153 313.966 30.153C314.474 30.3506 315.01 30.4873 315.558 30.5594C315.815 30.5988 316.074 30.6225 316.334 30.6305C316.59 30.6417 316.855 30.6519 317.052 30.6478H329.57V28.2785H317.056C316.828 28.2785 316.659 28.2714 316.487 28.2653C316.317 28.2612 316.147 28.2452 315.979 28.2176C315.672 28.1779 315.372 28.1038 315.086 27.9971C314.859 27.8793 314.622 27.7716 314.503 27.6192C314.362 27.4859 314.267 27.3201 314.227 27.1406C314.199 27.0436 314.183 26.9441 314.18 26.844C314.183 26.7308 314.193 26.6178 314.211 26.5057C314.299 26.0292 314.56 25.5283 314.893 25.0457C315.292 24.4879 318.104 20.0999 318.104 20.0999L319.829 20.996L320.339 14.7568Z" fill="#DADADA"/>
<path d="M331.28 15.2606C330.379 16.3324 329.662 17.5296 329.156 18.8087C328.645 20.0533 328.36 21.3697 328.316 22.7027H330.134C330.148 21.7671 330.291 20.8371 330.561 19.9362C330.843 18.9148 331.265 17.9321 331.818 17.0127C332.365 16.0964 332.906 15.3931 333.439 14.9027V13.6216H326.991V15.2606H331.28Z" fill="#DADADA"/>
<path d="M6.65137 26.4023H2.48145L1.54492 29H0.191406L3.99219 19.0469H5.14062L8.94824 29H7.60156L6.65137 26.4023ZM2.87793 25.3223H6.26172L4.56641 20.667L2.87793 25.3223ZM12.5011 28.1045C12.9523 28.1045 13.3465 27.9678 13.6837 27.6943C14.0209 27.4209 14.2078 27.0791 14.2442 26.6689H15.4405C15.4178 27.0928 15.2719 27.4961 15.003 27.8789C14.7342 28.2617 14.3741 28.5671 13.923 28.7949C13.4763 29.0228 13.0024 29.1367 12.5011 29.1367C11.4939 29.1367 10.6918 28.8018 10.0948 28.1318C9.50239 27.4574 9.20616 26.5368 9.20616 25.3701V25.1582C9.20616 24.4382 9.33832 23.7979 9.60265 23.2373C9.86697 22.6768 10.2452 22.2415 10.7374 21.9316C11.2342 21.6217 11.8198 21.4668 12.4942 21.4668C13.3237 21.4668 14.0118 21.7152 14.5587 22.2119C15.1101 22.7087 15.4041 23.3535 15.4405 24.1465H14.2442C14.2078 23.668 14.0255 23.276 13.6974 22.9707C13.3738 22.6608 12.9728 22.5059 12.4942 22.5059C11.8517 22.5059 11.3526 22.7383 10.9972 23.2031C10.6463 23.6634 10.4708 24.3311 10.4708 25.2061V25.4453C10.4708 26.2975 10.6463 26.9538 10.9972 27.4141C11.3481 27.8743 11.8494 28.1045 12.5011 28.1045ZM19.2737 28.1045C19.7248 28.1045 20.119 27.9678 20.4563 27.6943C20.7935 27.4209 20.9804 27.0791 21.0168 26.6689H22.2131C22.1903 27.0928 22.0445 27.4961 21.7756 27.8789C21.5067 28.2617 21.1467 28.5671 20.6955 28.7949C20.2489 29.0228 19.775 29.1367 19.2737 29.1367C18.2665 29.1367 17.4644 28.8018 16.8674 28.1318C16.275 27.4574 15.9787 26.5368 15.9787 25.3701V25.1582C15.9787 24.4382 16.1109 23.7979 16.3752 23.2373C16.6395 22.6768 17.0178 22.2415 17.51 21.9316C18.0067 21.6217 18.5923 21.4668 19.2668 21.4668C20.0962 21.4668 20.7844 21.7152 21.3313 22.2119C21.8827 22.7087 22.1766 23.3535 22.2131 24.1465H21.0168C20.9804 23.668 20.7981 23.276 20.4699 22.9707C20.1464 22.6608 19.7453 22.5059 19.2668 22.5059C18.6242 22.5059 18.1252 22.7383 17.7697 23.2031C17.4188 23.6634 17.2434 24.3311 17.2434 25.2061V25.4453C17.2434 26.2975 17.4188 26.9538 17.7697 27.4141C18.1207 27.8743 18.622 28.1045 19.2737 28.1045ZM26.1488 29.1367C25.1462 29.1367 24.3304 28.8086 23.7015 28.1523C23.0726 27.4915 22.7581 26.6097 22.7581 25.5068V25.2744C22.7581 24.5407 22.8971 23.8867 23.1751 23.3125C23.4577 22.7337 23.8496 22.2826 24.3509 21.959C24.8568 21.6309 25.4036 21.4668 25.9915 21.4668C26.9531 21.4668 27.7005 21.7835 28.2337 22.417C28.7669 23.0505 29.0335 23.9574 29.0335 25.1377V25.6641H24.0228C24.041 26.3932 24.2529 26.9834 24.6585 27.4346C25.0687 27.8812 25.5882 28.1045 26.2171 28.1045C26.6637 28.1045 27.042 28.0133 27.3519 27.8311C27.6618 27.6488 27.9329 27.4072 28.1654 27.1064L28.9378 27.708C28.318 28.6605 27.3883 29.1367 26.1488 29.1367ZM25.9915 22.5059C25.4811 22.5059 25.0527 22.6927 24.7064 23.0664C24.36 23.4355 24.1458 23.9551 24.0638 24.625H27.7689V24.5293C27.7324 23.8867 27.5592 23.39 27.2493 23.0391C26.9395 22.6836 26.5202 22.5059 25.9915 22.5059ZM36.1957 25.3838C36.1957 26.5094 35.9383 27.4163 35.4233 28.1045C34.9083 28.7926 34.211 29.1367 33.3315 29.1367C32.4337 29.1367 31.7273 28.8519 31.2123 28.2822V31.8438H29.9477V21.6035H31.103L31.1645 22.4238C31.6795 21.7858 32.395 21.4668 33.311 21.4668C34.1997 21.4668 34.9015 21.8018 35.4165 22.4717C35.936 23.1416 36.1957 24.0736 36.1957 25.2676V25.3838ZM34.9311 25.2402C34.9311 24.4062 34.7534 23.7477 34.3979 23.2646C34.0424 22.7816 33.5548 22.54 32.935 22.54C32.1694 22.54 31.5952 22.8796 31.2123 23.5586V27.0928C31.5906 27.7673 32.1694 28.1045 32.9487 28.1045C33.5548 28.1045 34.0356 27.8652 34.3911 27.3867C34.7511 26.9036 34.9311 26.1882 34.9311 25.2402ZM38.9693 19.8125V21.6035H40.3502V22.5811H38.9693V27.168C38.9693 27.4642 39.0308 27.6875 39.1539 27.8379C39.2769 27.9837 39.4865 28.0566 39.7828 28.0566C39.9286 28.0566 40.1291 28.0293 40.3843 27.9746V29C40.0516 29.0911 39.7281 29.1367 39.4136 29.1367C38.8485 29.1367 38.4224 28.9658 38.1353 28.624C37.8482 28.2822 37.7046 27.7969 37.7046 27.168V22.5811H36.358V21.6035H37.7046V19.8125H38.9693ZM45.5846 27.0381C45.5846 26.6963 45.4548 26.432 45.195 26.2451C44.9398 26.0537 44.4909 25.8896 43.8483 25.7529C43.2103 25.6162 42.7021 25.4521 42.3239 25.2607C41.9502 25.0693 41.6722 24.8415 41.4899 24.5771C41.3122 24.3128 41.2233 23.9984 41.2233 23.6338C41.2233 23.0277 41.4785 22.515 41.9889 22.0957C42.5039 21.6764 43.1602 21.4668 43.9577 21.4668C44.7962 21.4668 45.4753 21.6833 45.9948 22.1162C46.5189 22.5492 46.7809 23.1029 46.7809 23.7773H45.5094C45.5094 23.431 45.3613 23.1325 45.0651 22.8818C44.7734 22.6312 44.4043 22.5059 43.9577 22.5059C43.4974 22.5059 43.1374 22.6061 42.8776 22.8066C42.6178 23.0072 42.488 23.2692 42.488 23.5928C42.488 23.8981 42.6087 24.1283 42.8503 24.2832C43.0918 24.4382 43.527 24.5863 44.1559 24.7275C44.7894 24.8688 45.3021 25.0374 45.694 25.2334C46.0859 25.4294 46.3753 25.6663 46.5622 25.9443C46.7536 26.2178 46.8493 26.5527 46.8493 26.9492C46.8493 27.61 46.585 28.141 46.0563 28.542C45.5277 28.9385 44.8418 29.1367 43.9987 29.1367C43.4063 29.1367 42.8822 29.0319 42.4264 28.8223C41.9707 28.6126 41.613 28.321 41.3532 27.9473C41.098 27.569 40.9704 27.1611 40.9704 26.7236H42.235C42.2578 27.1475 42.4264 27.4847 42.7409 27.7354C43.0599 27.9814 43.4792 28.1045 43.9987 28.1045C44.4772 28.1045 44.86 28.0088 45.1471 27.8174C45.4388 27.6214 45.5846 27.3617 45.5846 27.0381ZM47.9002 28.3369C47.9002 28.1182 47.964 27.9359 48.0916 27.79C48.2237 27.6442 48.4197 27.5713 48.6795 27.5713C48.9392 27.5713 49.1352 27.6442 49.2674 27.79C49.4041 27.9359 49.4724 28.1182 49.4724 28.3369C49.4724 28.5465 49.4041 28.722 49.2674 28.8633C49.1352 29.0046 48.9392 29.0752 48.6795 29.0752C48.4197 29.0752 48.2237 29.0046 48.0916 28.8633C47.964 28.722 47.9002 28.5465 47.9002 28.3369ZM47.907 22.3008C47.907 22.082 47.9708 21.8997 48.0984 21.7539C48.2306 21.6081 48.4265 21.5352 48.6863 21.5352C48.9461 21.5352 49.142 21.6081 49.2742 21.7539C49.4109 21.8997 49.4793 22.082 49.4793 22.3008C49.4793 22.5104 49.4109 22.6859 49.2742 22.8271C49.142 22.9684 48.9461 23.0391 48.6863 23.0391C48.4265 23.0391 48.2306 22.9684 48.0984 22.8271C47.9708 22.6859 47.907 22.5104 47.907 22.3008Z" fill="#212121"/>
</svg>
