<svg width="319" height="57" viewBox="0 0 319 57" fill="none" xmlns="http://www.w3.org/2000/svg">
<rect width="319" height="57" rx="14" fill="#064E40"/>
<path d="M264 16H267.569V40H264V16Z" fill="white"/>
<path d="M269.815 16H272.194V40H269.815V16Z" fill="white"/>
<path d="M274.44 16H275.629V40H274.44V16Z" fill="white"/>
<path d="M277.875 16H279.065V40H277.875V16Z" fill="white"/>
<path d="M281.31 16H282.5V40H281.31V16Z" fill="white"/>
<path d="M284.746 16H287.125V40H284.746V16Z" fill="white"/>
<path d="M289.371 16H292.94V40H289.371V16Z" fill="white"/>
<path d="M295.185 16H296.375V40H295.185V16Z" fill="white"/>
<path d="M298.621 16H301V40H298.621V16Z" fill="white"/>
<path d="M59.1328 36.2656C61.6484 36.2656 63.2969 34.9531 63.2969 32.8438V32.8359C63.2969 31.2109 62.3672 30.2656 60.0156 29.7422L58.7656 29.4609C57.2344 29.125 56.6172 28.5156 56.6172 27.6172V27.6094C56.6172 26.4297 57.7031 25.7656 59.1094 25.7578C60.5781 25.75 61.5156 26.4844 61.6719 27.4766L61.6875 27.5781H63.0938L63.0859 27.4688C62.9688 25.7891 61.3984 24.4609 59.1484 24.4609C56.8203 24.4609 55.1875 25.7812 55.1797 27.6484V27.6562C55.1797 29.2891 56.1562 30.3281 58.4141 30.8281L59.6641 31.1016C61.2109 31.4453 61.8594 32.0859 61.8594 33.0234V33.0312C61.8594 34.1797 60.7422 34.9688 59.2109 34.9688C57.5859 34.9688 56.4141 34.2578 56.3125 33.1328L56.3047 33.0469H54.8984L54.9062 33.1328C55.0703 34.9688 56.6641 36.2656 59.1328 36.2656ZM68.5061 36.1484C70.5295 36.1484 71.6623 35.0625 72.0061 33.5391L72.0217 33.4531L70.6779 33.4609L70.6623 33.5078C70.3498 34.4453 69.6311 34.9453 68.4983 34.9453C66.9983 34.9453 66.0295 33.7031 66.0295 31.7656V31.75C66.0295 29.8516 66.9826 28.6328 68.4983 28.6328C69.7092 28.6328 70.4592 29.3047 70.6701 30.1328L70.6779 30.1562H72.0295L72.0217 30.1094C71.7717 28.6094 70.5451 27.4297 68.4983 27.4297C66.1389 27.4297 64.6389 29.1328 64.6389 31.75V31.7656C64.6389 34.4375 66.1467 36.1484 68.5061 36.1484ZM75.9184 36.1484C77.0512 36.1484 77.934 35.6562 78.4653 34.7578H78.5903V36H79.9496V30.2344C79.9496 28.4844 78.8012 27.4297 76.7465 27.4297C74.9496 27.4297 73.6684 28.3203 73.4496 29.6406L73.4418 29.6875H74.8012L74.809 29.6641C75.0278 29.0078 75.6918 28.6328 76.6996 28.6328C77.9574 28.6328 78.5903 29.1953 78.5903 30.2344V31L76.1762 31.1484C74.2153 31.2656 73.1059 32.1328 73.1059 33.6328V33.6484C73.1059 35.1797 74.3168 36.1484 75.9184 36.1484ZM74.4965 33.6172V33.6016C74.4965 32.7656 75.059 32.3125 76.3403 32.2344L78.5903 32.0938V32.8594C78.5903 34.0625 77.5824 34.9688 76.1996 34.9688C75.2231 34.9688 74.4965 34.4688 74.4965 33.6172ZM82.026 36H83.3854V31.0156C83.3854 29.5391 84.2369 28.6328 85.5807 28.6328C86.9244 28.6328 87.5494 29.3594 87.5494 30.875V36H88.9088V30.5469C88.9088 28.5469 87.8541 27.4297 85.9635 27.4297C84.7213 27.4297 83.9323 27.9531 83.5104 28.8438H83.3854V27.5781H82.026V36ZM97.3662 36.1484C98.4991 36.1484 99.3819 35.6562 99.9131 34.7578H100.038V36H101.397V30.2344C101.397 28.4844 100.249 27.4297 98.1944 27.4297C96.3975 27.4297 95.1162 28.3203 94.8975 29.6406L94.8897 29.6875H96.2491L96.2569 29.6641C96.4756 29.0078 97.1397 28.6328 98.1475 28.6328C99.4053 28.6328 100.038 29.1953 100.038 30.2344V31L97.6241 31.1484C95.6631 31.2656 94.5537 32.1328 94.5537 33.6328V33.6484C94.5537 35.1797 95.7647 36.1484 97.3662 36.1484ZM95.9444 33.6172V33.6016C95.9444 32.7656 96.5069 32.3125 97.7881 32.2344L100.038 32.0938V32.8594C100.038 34.0625 99.0303 34.9688 97.6475 34.9688C96.6709 34.9688 95.9444 34.4688 95.9444 33.6172ZM107.738 36H109.144V31.9766H111.988C114.105 31.9766 115.605 30.4844 115.605 28.3438V28.3281C115.605 26.1875 114.105 24.7266 111.988 24.7266H107.738V36ZM111.628 25.9766C113.238 25.9766 114.167 26.8594 114.167 28.3438V28.3594C114.167 29.8438 113.238 30.7266 111.628 30.7266H109.144V25.9766H111.628ZM117.33 36H118.689V30.7812C118.689 29.5469 119.611 28.7266 120.908 28.7266C121.205 28.7266 121.463 28.7578 121.744 28.8047V27.4844C121.611 27.4609 121.322 27.4297 121.064 27.4297C119.924 27.4297 119.134 27.9453 118.814 28.8281H118.689V27.5781H117.33V36ZM126.242 36.1484C128.641 36.1484 130.125 34.4922 130.125 31.7969V31.7812C130.125 29.0781 128.641 27.4297 126.242 27.4297C123.844 27.4297 122.359 29.0781 122.359 31.7812V31.7969C122.359 34.4922 123.844 36.1484 126.242 36.1484ZM126.242 34.9453C124.648 34.9453 123.75 33.7812 123.75 31.7969V31.7812C123.75 29.7891 124.648 28.6328 126.242 28.6328C127.836 28.6328 128.734 29.7891 128.734 31.7812V31.7969C128.734 33.7812 127.836 34.9453 126.242 34.9453ZM134.936 36.1484C136.107 36.1484 137.045 35.5938 137.561 34.6562H137.686V36H139.045V24.2344H137.686V28.9062H137.561C137.1 28.0078 136.092 27.4297 134.936 27.4297C132.795 27.4297 131.404 29.1406 131.404 31.7812V31.7969C131.404 34.4219 132.803 36.1484 134.936 36.1484ZM135.248 34.9453C133.709 34.9453 132.795 33.7578 132.795 31.7969V31.7812C132.795 29.8203 133.709 28.6328 135.248 28.6328C136.779 28.6328 137.717 29.8359 137.717 31.7812V31.7969C137.717 33.7422 136.779 34.9453 135.248 34.9453ZM144.067 36.1484C145.301 36.1484 146.153 35.6406 146.567 34.7422H146.692V36H148.051V27.5781H146.692V32.5625C146.692 34.0391 145.903 34.9453 144.418 34.9453C143.075 34.9453 142.528 34.2188 142.528 32.7031V27.5781H141.168V33.0312C141.168 35.0234 142.153 36.1484 144.067 36.1484ZM153.627 36.1484C155.651 36.1484 156.784 35.0625 157.127 33.5391L157.143 33.4531L155.799 33.4609L155.784 33.5078C155.471 34.4453 154.752 34.9453 153.62 34.9453C152.12 34.9453 151.151 33.7031 151.151 31.7656V31.75C151.151 29.8516 152.104 28.6328 153.62 28.6328C154.831 28.6328 155.581 29.3047 155.792 30.1328L155.799 30.1562H157.151L157.143 30.1094C156.893 28.6094 155.667 27.4297 153.62 27.4297C151.26 27.4297 149.76 29.1328 149.76 31.75V31.7656C149.76 34.4375 151.268 36.1484 153.627 36.1484ZM161.876 36.0625C162.141 36.0625 162.399 36.0312 162.665 35.9844V34.8281C162.415 34.8516 162.282 34.8594 162.04 34.8594C161.165 34.8594 160.821 34.4609 160.821 33.4688V28.7031H162.665V27.5781H160.821V25.3984H159.415V27.5781H158.087V28.7031H159.415V33.8125C159.415 35.4219 160.141 36.0625 161.876 36.0625ZM165.397 36.0781C165.96 36.0781 166.413 35.6172 166.413 35.0625C166.413 34.5 165.96 34.0469 165.397 34.0469C164.843 34.0469 164.382 34.5 164.382 35.0625C164.382 35.6172 164.843 36.0781 165.397 36.0781ZM169.739 36.0781C170.302 36.0781 170.755 35.6172 170.755 35.0625C170.755 34.5 170.302 34.0469 169.739 34.0469C169.185 34.0469 168.724 34.5 168.724 35.0625C168.724 35.6172 169.185 36.0781 169.739 36.0781ZM174.081 36.0781C174.644 36.0781 175.097 35.6172 175.097 35.0625C175.097 34.5 174.644 34.0469 174.081 34.0469C173.527 34.0469 173.066 34.5 173.066 35.0625C173.066 35.6172 173.527 36.0781 174.081 36.0781Z" fill="white"/>
<path d="M38.7871 38.7761L32.9548 32.9437C34.5193 31.145 35.4665 28.7982 35.4665 26.2333C35.4665 20.5871 30.8741 16 25.2333 16C19.5871 16 15 20.5925 15 26.2333C15 31.8741 19.5925 36.4665 25.2333 36.4665C27.7982 36.4665 30.145 35.5193 31.9437 33.9548L37.7761 39.7871C37.9144 39.9255 38.1007 40 38.2816 40C38.4625 40 38.6488 39.9308 38.7871 39.7871C39.0639 39.5104 39.0639 39.0528 38.7871 38.7761ZM16.4315 26.2333C16.4315 21.38 20.38 17.4368 25.2279 17.4368C30.0812 17.4368 34.0244 21.3854 34.0244 26.2333C34.0244 31.0812 30.0812 35.035 25.2279 35.035C20.38 35.035 16.4315 31.0865 16.4315 26.2333Z" fill="white"/>
</svg>
